<svg width="90" height="90" viewBox="0 0 90 90" fill="none" xmlns="http://www.w3.org/2000/svg">
<g clip-path="url(#clip0_62_397)">
<path d="M52.0746 0.97544C52.2134 0.975359 52.3522 0.975247 52.4909 0.975108C52.8703 0.974816 53.2497 0.974959 53.6291 0.975177C54.039 0.975337 54.4488 0.975091 54.8587 0.974897C55.661 0.974585 56.4632 0.974652 57.2654 0.974856C57.9175 0.975015 58.5696 0.975036 59.2217 0.97496C59.2681 0.974955 59.3145 0.974949 59.3623 0.974944C59.5507 0.974922 59.7391 0.974899 59.9274 0.974876C61.693 0.974661 63.4586 0.974856 65.2242 0.975235C66.7915 0.975568 68.3588 0.975538 69.9261 0.975202C71.6885 0.974825 73.451 0.974677 75.2134 0.974894C75.4015 0.974916 75.5895 0.974938 75.7775 0.97496C75.87 0.974971 75.9625 0.974982 76.0578 0.974993C76.709 0.975053 77.3601 0.974951 78.0113 0.974786C78.8051 0.974588 79.5988 0.974642 80.3926 0.975016C80.7975 0.975201 81.2023 0.975274 81.6071 0.975041C81.978 0.974831 82.3489 0.974948 82.7198 0.975321C82.8537 0.975399 82.9875 0.97536 83.1214 0.975189C85.625 0.972234 85.625 0.972234 86.1533 1.49606C86.2572 1.61858 86.3598 1.7422 86.4612 1.86685C86.6379 2.05303 86.7944 2.14353 87.0245 2.25439C87.4997 2.48835 87.6829 2.83169 87.921 3.2871C88.0326 3.44783 88.1059 3.49825 88.2682 3.59912C88.6668 3.87299 88.8301 4.26875 88.9198 4.73468C88.9993 5.33923 89.0353 5.92953 89.0329 6.54022C89.0331 6.63491 89.0333 6.72959 89.0336 6.82427C89.0341 7.08225 89.0338 7.34022 89.0333 7.5982C89.033 7.87971 89.0334 8.16121 89.0338 8.44271C89.0343 8.93536 89.0343 9.428 89.0339 9.92065C89.0334 10.6532 89.0336 11.3858 89.0341 12.1184C89.0348 13.427 89.0347 14.7356 89.0343 16.0442C89.034 17.1894 89.0339 18.3346 89.0341 19.4797C89.0341 19.5938 89.0341 19.5938 89.0341 19.7101C89.0341 20.0186 89.0342 20.3271 89.0342 20.6356C89.0347 23.5291 89.0343 26.4225 89.0335 29.3159C89.0328 31.8858 89.0329 34.4557 89.0336 37.0256C89.0343 39.9137 89.0346 42.8019 89.0342 45.6901C89.0341 45.9981 89.0341 46.306 89.0341 46.614C89.034 46.6898 89.034 46.7656 89.034 46.8438C89.0339 47.9881 89.0341 49.1325 89.0344 50.2769C89.0348 51.5783 89.0347 52.8797 89.0339 54.181C89.0335 54.9091 89.0335 55.6372 89.034 56.3653C89.0344 56.8519 89.0342 57.3385 89.0335 57.8251C89.0332 58.1022 89.0331 58.3793 89.0336 58.6563C89.0341 58.9089 89.0339 59.1615 89.0332 59.4142C89.033 59.5466 89.0334 59.6791 89.0339 59.8115C89.0256 61.726 89.0256 61.726 88.4731 62.276C88.3904 62.3478 88.306 62.4178 88.2196 62.485C87.9742 62.678 87.8609 62.8379 87.7408 63.1274C87.5491 63.5255 87.2946 63.717 86.9059 63.9141C86.8445 63.9354 86.7831 63.9567 86.7199 63.9786C86.5236 64.0688 86.4904 64.1309 86.4005 64.3227C86.1792 64.6979 85.9034 64.8299 85.4996 64.9687C84.6411 65.1547 83.7572 65.131 82.8836 65.133C82.6244 65.1336 82.3652 65.135 82.106 65.1367C81.4635 65.1406 80.8209 65.1431 80.1783 65.1456C79.6327 65.1478 79.0871 65.1506 78.5415 65.1541C78.2861 65.1555 78.0308 65.1561 77.7754 65.1566C77.6196 65.1575 77.4638 65.1585 77.308 65.1595C77.2371 65.1594 77.1661 65.1594 77.093 65.1593C77.0278 65.1599 76.9627 65.1604 76.8956 65.161C76.8392 65.1612 76.7827 65.1615 76.7246 65.1617C76.5473 65.1823 76.4357 65.2188 76.2887 65.3203C76.2698 65.4528 76.2518 65.5855 76.2401 65.7188C76.1714 66.2379 75.9497 66.5918 75.59 66.9639C74.8468 67.753 74.7507 68.7008 74.7418 69.75C74.7633 69.9724 74.8011 70.1827 74.8454 70.4015C74.8993 70.7834 74.902 71.1621 74.9044 71.5474C74.9056 71.6206 74.9068 71.6938 74.9081 71.7692C74.9077 72.6453 74.7361 73.294 74.1458 73.9421C73.8657 74.2544 73.6644 74.5886 73.4564 74.9526C72.9775 75.7907 72.9775 75.7907 72.5432 76.0026C72.2118 76.2083 72.0206 76.5816 71.8722 76.9307C71.7054 77.2849 71.4115 77.4299 71.0855 77.625C70.708 77.8704 70.4804 78.0918 70.255 78.4811C69.9756 78.9102 69.4455 79.0016 68.9762 79.1016C68.4557 79.1859 67.9421 79.1889 67.4161 79.1894C67.3661 79.1895 67.3161 79.1896 67.2646 79.1897C65.1812 79.1877 65.1812 79.1877 64.2564 78.7338C64.105 78.6619 64.105 78.6619 63.8434 78.6797C63.7289 78.7474 63.6146 78.8154 63.5014 78.8851C63.263 79.0054 63.0097 79.0567 62.7502 79.115C62.5513 79.1806 62.4883 79.2129 62.3668 79.3828C62.3403 79.5713 62.326 79.7456 62.3204 79.9349C62.3179 79.9893 62.3154 80.0436 62.3128 80.0997C62.305 80.2738 62.2984 80.4479 62.2921 80.6221C62.2153 82.5874 62.2153 82.5874 61.734 83.1094C61.5851 83.1953 61.5851 83.1953 61.422 83.272C61.0629 83.4462 60.9484 83.6863 60.7905 84.0432C60.4388 84.6476 59.8231 84.7435 59.1924 84.9224C58.7623 85.0539 58.4758 85.1805 58.1826 85.5277C57.3975 86.3729 55.1409 86.3212 54.0823 86.3643C51.4278 86.4262 51.4278 86.4262 50.6535 85.7546C50.5021 85.5866 50.403 85.4079 50.3038 85.2056C50.1939 84.9906 50.1264 84.9187 49.9215 84.7969C49.7327 84.7668 49.7327 84.7668 49.5263 84.7738C49.4493 84.7741 49.3723 84.7744 49.293 84.7747C49.2118 84.7762 49.1306 84.7777 49.047 84.7793C48.9645 84.7802 48.8821 84.7811 48.7971 84.7821C48.5625 84.7854 48.328 84.7906 48.0934 84.7969C48.0371 84.7983 47.9808 84.7998 47.9228 84.8013C47.4628 84.8102 47.4628 84.8102 47.0249 84.9331C46.8175 85.1702 46.805 85.4545 46.7574 85.7593C46.6694 86.3117 46.5866 86.8246 46.1513 87.21C46.0859 87.2519 46.0206 87.2938 45.9532 87.3369C45.597 87.5796 45.3644 87.7937 45.1292 88.1568C45.101 88.1994 45.0727 88.2421 45.0436 88.2861C45.0198 88.3247 44.9961 88.3633 44.9716 88.4031C44.6384 88.759 44.2186 88.8613 43.7548 88.9261C43.6677 88.939 43.6677 88.939 43.5787 88.9521C42.9338 89.0398 42.2927 89.0449 41.643 89.0412C41.5149 89.0411 41.3867 89.0412 41.2586 89.0413C40.9926 89.0413 40.7267 89.0405 40.4607 89.0393C40.1226 89.0377 39.7846 89.0376 39.4465 89.0381C39.1828 89.0383 38.9191 89.0379 38.6554 89.0372C38.5308 89.0369 38.4063 89.0368 38.2817 89.0369C35.9824 89.0373 35.9824 89.0373 35.3228 88.519C35.1559 88.3125 35.1559 88.3125 35.0501 88.1507C34.7823 87.7413 34.5281 87.4897 34.1174 87.2237C33.8528 87.0439 33.711 86.8142 33.5387 86.5503C33.3258 86.2046 33.3258 86.2046 32.9761 86.0344C32.7965 86.0216 32.6201 86.0201 32.44 86.0229C32.3747 86.0234 32.3093 86.0239 32.2419 86.0243C31.6292 86.0409 31.0882 86.1873 30.5089 86.3741C30.3242 86.429 30.1386 86.46 29.9483 86.4888C29.637 86.5376 29.3851 86.6391 29.1071 86.7862C28.9346 86.848 28.8563 86.8314 28.6871 86.7656C28.5846 86.6864 28.4825 86.6063 28.3855 86.5203C28.3001 86.4449 28.2123 86.372 28.123 86.3012C27.7759 86.0193 27.5904 85.7746 27.4215 85.3594C27.4215 85.313 27.4215 85.2666 27.4215 85.2187C27.3751 85.2187 27.3287 85.2187 27.2809 85.2187C27.2809 85.1723 27.2809 85.1259 27.2809 85.0781C27.2199 85.0622 27.159 85.0462 27.0963 85.0298C26.64 84.8523 26.4073 84.5993 26.2083 84.1643C26.1393 83.9791 26.1052 83.7979 26.0855 83.6016C26.0377 83.5957 25.9898 83.59 25.9405 83.584C25.5126 83.4747 25.1956 83.2713 24.9605 82.8984C24.9237 82.7828 24.8871 82.667 24.8507 82.5513C24.7019 82.1486 24.46 82.0424 24.0858 81.8635C23.7402 81.6905 23.6349 81.4487 23.5016 81.1055C23.3473 80.7387 23.1204 80.6197 22.7809 80.4375C22.3781 80.1717 22.2388 79.8765 22.0489 79.435C21.92 79.2127 21.8127 79.1445 21.5855 79.0312C21.1224 78.7477 20.8909 78.4521 20.6803 77.9604C20.5824 77.8064 20.4865 77.763 20.3199 77.6953C20.0813 77.9139 20.0176 78.0865 20 78.3995C19.9969 78.5456 19.9953 78.6918 19.9949 78.8379C19.993 78.9578 19.993 78.9578 19.991 79.0802C19.987 79.3452 19.985 79.61 19.9829 79.875C19.9805 80.0601 19.9779 80.2453 19.9752 80.4304C19.9689 80.8691 19.9641 81.3079 19.9598 81.7466C19.9534 82.3851 19.9451 83.0235 19.9367 83.662C19.9354 83.7574 19.9342 83.8528 19.9329 83.9482C19.9323 83.9949 19.9317 84.0416 19.9311 84.0898C19.9269 84.4064 19.9235 84.723 19.9202 85.0397C19.9151 85.5213 19.9073 86.0028 19.898 86.4844C19.8963 86.5941 19.8963 86.5941 19.8945 86.706C19.8907 86.9107 19.8851 87.1152 19.8787 87.3199C19.8778 87.3792 19.877 87.4385 19.876 87.4996C19.8587 87.9482 19.7176 88.2065 19.4015 88.5322C18.7439 88.9519 18.027 89.0261 17.2653 89.026C17.1998 89.0262 17.1343 89.0265 17.0668 89.0267C16.8481 89.0275 16.6294 89.0278 16.4107 89.0281C16.2536 89.0285 16.0965 89.029 15.9394 89.0295C15.4243 89.0309 14.9093 89.0317 14.3942 89.0324C14.2167 89.0327 14.0392 89.0329 13.8617 89.0332C13.1236 89.0344 12.3855 89.0355 11.6474 89.036C11.4562 89.0361 11.265 89.0362 11.0738 89.0364C11.0263 89.0364 10.9787 89.0364 10.9298 89.0365C10.1595 89.0371 9.38925 89.0388 8.61898 89.0411C7.82728 89.0434 7.03559 89.0447 6.24389 89.0449C5.79972 89.0451 5.35556 89.0457 4.9114 89.0475C4.49373 89.0491 4.07608 89.0494 3.65841 89.0487C3.50524 89.0487 3.35207 89.0491 3.1989 89.0501C2.98957 89.0513 2.78031 89.0508 2.57098 89.0499C2.51058 89.0507 2.45018 89.0515 2.38794 89.0522C1.98577 89.048 1.66863 88.9677 1.33554 88.7344C1.00449 88.3184 0.973661 87.9883 0.974578 87.473C0.974418 87.4079 0.974261 87.3428 0.974097 87.2757C0.97365 87.0566 0.973709 86.8376 0.973767 86.6185C0.973556 86.4618 0.973316 86.3051 0.97305 86.1483C0.972427 85.7216 0.972266 85.2949 0.972222 84.8682C0.972172 84.6013 0.972022 84.3344 0.971835 84.0676C0.971218 83.1838 0.97089 82.3001 0.970943 81.4164C0.970946 81.3687 0.970948 81.3211 0.970951 81.272C0.970954 81.2243 0.970957 81.1765 0.97096 81.1274C0.970988 80.3564 0.970318 79.5854 0.969325 78.8144C0.968311 78.0215 0.967844 77.2286 0.967892 76.4357C0.967909 75.9911 0.967712 75.5465 0.966965 75.1019C0.966279 74.6828 0.96628 74.2637 0.966789 73.8446C0.966862 73.6915 0.966697 73.5385 0.966269 73.3855C0.959423 70.7667 0.959425 70.7667 1.40586 70.2422C1.58312 70.0835 1.76863 69.9491 1.96836 69.8203C2.20642 69.6616 2.22466 69.6014 2.31552 69.3413C2.4824 68.9085 2.62694 68.6653 3.0582 68.4712C3.11113 68.4499 3.16406 68.4286 3.2186 68.4066C3.51277 68.288 3.66733 68.2225 3.81845 67.9351C4.04702 67.5511 4.30151 67.3526 4.72647 67.2163C5.20539 67.1041 5.70242 67.0802 6.1915 67.0386C6.34316 67.0253 6.49481 67.0119 6.64645 66.9984C6.78381 66.9863 6.92121 66.9744 7.05861 66.9626C7.30855 66.9379 7.55597 66.9046 7.80429 66.8672C7.80429 66.8208 7.80429 66.7744 7.80429 66.7266C7.72911 66.7059 7.72911 66.7059 7.65241 66.6848C7.14553 66.5265 6.8228 66.3392 6.53867 65.8828C6.50171 65.7858 6.46781 65.6876 6.43759 65.5884C6.34264 65.2845 6.17013 65.198 5.90091 65.0476C5.5153 64.8235 5.42666 64.4823 5.31616 64.0761C5.185 63.3693 5.18845 62.653 5.18955 61.9365C5.18961 61.8596 5.18961 61.8596 5.18968 61.7812C5.19482 59.4971 5.19482 59.4971 5.62461 58.9922C5.80187 58.8335 5.98738 58.6991 6.18711 58.5703C6.42517 58.4116 6.44341 58.3514 6.53427 58.0913C6.70115 57.6585 6.84569 57.4153 7.27695 57.2212C7.32988 57.1999 7.38281 57.1786 7.43735 57.1566C7.73152 57.038 7.88608 56.9725 8.0372 56.6851C8.27344 56.2882 8.54258 56.0986 8.97763 55.9512C9.67876 55.8082 10.4051 55.815 11.1178 55.8151C11.266 55.8149 11.4142 55.8137 11.5624 55.8123C13.7176 55.8033 13.7176 55.8033 14.3137 56.3522C14.4409 56.4969 14.541 56.6389 14.6131 56.818C14.7238 57.0008 14.8225 57.0155 15.0245 57.0762C15.427 57.226 15.6616 57.4341 15.8902 57.7969C15.9372 57.9158 15.9812 58.036 16.0221 58.1572C16.149 58.5187 16.3328 58.6332 16.6552 58.8222C16.9987 59.0518 17.1151 59.4291 17.2005 59.8224C17.4261 61.1746 17.6213 63.4454 16.9229 64.6842C16.7408 64.9052 16.5086 65.0307 16.2673 65.1805C16.0111 65.3961 15.9347 65.656 15.8361 65.9693C15.7026 66.2698 15.5016 66.3963 15.2099 66.5343C15.1487 66.5571 15.0875 66.58 15.0245 66.6035C14.9624 66.6271 14.9003 66.6506 14.8364 66.6749C14.7897 66.692 14.743 66.709 14.6949 66.7266C14.6949 66.773 14.6949 66.8194 14.6949 66.8672C15.3956 66.9677 16.0878 67.019 16.7955 67.0386C17.3569 67.0559 17.9097 67.086 18.4654 67.1704C18.5174 67.1778 18.5693 67.1853 18.6228 67.1929C19.0817 67.2701 19.5131 67.4265 19.8233 67.7856C19.9684 67.9922 19.9684 67.9922 20.0387 68.2031C20.23 68.2869 20.4184 68.3607 20.6144 68.4316C21.4401 68.7509 21.4401 68.7509 21.6559 69.1875C21.6863 69.3006 21.6863 69.3006 21.7174 69.416C21.7742 69.6142 21.7742 69.6142 21.9171 69.6725C22.0164 69.7069 22.1162 69.74 22.2164 69.7717C22.5399 69.882 22.7085 70.0746 22.86 70.3696C22.9477 70.555 23.0144 70.7319 23.0797 70.9277C23.2293 71.2057 23.3469 71.2451 23.6252 71.3669C24.0949 71.6036 24.2248 72.1044 24.398 72.5625C24.5197 72.8441 24.645 72.9381 24.9034 73.0854C25.4123 73.4057 25.6563 73.9898 25.8952 74.5233C26.0804 74.936 26.2695 75.1264 26.6376 75.3863C26.9308 75.6373 27.0828 76.0029 27.1809 76.3715C27.3002 76.8111 27.5597 76.9262 27.9425 77.149C28.2136 77.3342 28.2952 77.5359 28.4059 77.8359C28.5666 78.2277 28.6994 78.5212 29.0562 78.7632C29.6201 79.1614 29.9775 79.8515 30.1329 80.5122C30.194 80.7102 30.2435 80.8224 30.423 80.9316C30.7478 81.0825 31.0858 81.1824 31.4293 81.2812C31.4757 81.3044 31.5221 81.3276 31.5699 81.3516C32.477 81.4695 32.477 81.4695 33.3187 81.2252C33.4422 81.0612 33.5277 80.9069 33.609 80.7187C33.8485 80.3454 34.0653 80.1211 34.4472 79.8928C34.6836 79.7197 34.7887 79.5678 34.9361 79.3169C35.2553 78.8275 35.4718 78.6107 36.0477 78.4805C36.8568 78.3318 37.6427 78.298 38.4636 78.3026C38.5948 78.3026 38.726 78.3026 38.8573 78.3025C39.13 78.3025 39.4027 78.3032 39.6753 78.3045C40.0219 78.3061 40.3684 78.3061 40.7149 78.3056C40.9851 78.3054 41.2553 78.3059 41.5255 78.3066C41.6531 78.3068 41.7808 78.3069 41.9085 78.3068C44.3038 78.3064 44.3038 78.3064 44.895 78.8472C45.0413 79.0151 45.1576 79.1993 45.2765 79.3872C45.509 79.7184 45.7831 79.9125 46.129 80.1079C46.3535 80.2417 46.4627 80.3638 46.5904 80.5913C46.7067 80.796 46.7484 80.8541 46.9596 80.978C47.2455 81.0066 47.4421 80.9561 47.6715 80.7891C47.7894 80.6504 47.8918 80.5069 47.9942 80.3565C48.0934 80.2266 48.0934 80.2266 48.2823 80.1167C48.5517 79.9492 48.624 79.6578 48.6945 79.3604C48.7409 79.1217 48.7824 78.8823 48.8227 78.6425C48.929 78.0595 49.1017 77.6032 49.5716 77.2273C49.7144 77.1302 49.859 77.0555 50.0138 76.979C50.377 76.7903 50.6003 76.5085 50.8531 76.1921C51.3414 75.7267 51.9803 75.6501 52.6241 75.542C52.8671 75.4994 53.1101 75.4568 53.353 75.414C53.4965 75.3891 53.6401 75.3653 53.7839 75.3429C54.1265 75.285 54.3405 75.245 54.5665 74.9619C55.1024 74.375 55.7628 74.3097 56.5309 74.25C56.8834 74.2361 57.233 74.2381 57.5855 74.25C57.6628 74.2521 57.74 74.2542 57.8196 74.2563C58.3328 74.2827 58.7409 74.3603 59.1198 74.7246C59.4137 75.0527 59.4137 75.0527 59.4137 75.2344C59.8102 75.3435 60.1856 75.4071 60.5958 75.4321C60.6485 75.4366 60.7012 75.4411 60.7555 75.4457C61.0409 75.4715 61.0409 75.4715 61.2913 75.3561C61.4506 75.1433 61.4205 74.8798 61.4264 74.6233C61.4287 74.5628 61.431 74.5023 61.4334 74.44C61.4408 74.2463 61.4469 74.0526 61.4527 73.8589C61.5145 71.8294 61.5145 71.8294 62.0855 71.2266C62.3781 71.0156 62.3781 71.0156 62.5777 71.0156C62.5897 70.9697 62.6017 70.9239 62.614 70.8766C62.631 70.8152 62.6481 70.7537 62.6656 70.6904C62.6819 70.6301 62.6983 70.5697 62.7151 70.5075C62.8653 70.1095 63.1316 69.8087 63.4171 69.4995C63.4757 69.4356 63.5344 69.3717 63.5948 69.3059C63.7101 69.1838 63.8284 69.0644 63.9499 68.9485C64.1162 68.7744 64.241 68.6018 64.3734 68.4025C64.7603 67.826 65.2011 67.4414 65.7698 67.049C65.9964 66.8921 66.185 66.7164 66.3746 66.5156C67.1212 65.82 67.9943 65.7173 68.9806 65.7246C69.0643 65.7246 69.1481 65.7245 69.2344 65.7245C69.703 65.7277 70.1498 65.7581 70.6109 65.8389C70.9477 65.897 70.9477 65.897 71.2624 65.7982C71.3872 65.6931 71.4844 65.5942 71.5777 65.4609C71.2982 65.2393 71.0969 65.171 70.7419 65.1703C70.6706 65.17 70.5993 65.1697 70.5259 65.1694C70.408 65.1695 70.408 65.1695 70.2878 65.1695C70.2046 65.1693 70.1213 65.169 70.0355 65.1688C69.8039 65.1681 69.5723 65.1678 69.3408 65.1676C69.0911 65.1674 68.8415 65.1667 68.5919 65.1661C68.159 65.165 67.7261 65.1642 67.2932 65.1635C66.6661 65.1626 66.0391 65.1611 65.4121 65.1594C64.3933 65.1567 63.3745 65.1543 62.3557 65.1521C62.2642 65.1519 62.2642 65.1519 62.1708 65.1517C61.3066 65.1498 60.4424 65.1481 59.5783 65.1465C59.5175 65.1464 59.4568 65.1463 59.3942 65.1461C59.3032 65.146 59.3032 65.146 59.2103 65.1458C58.1964 65.1439 57.1825 65.1415 56.1685 65.1387C55.5437 65.1369 54.9188 65.1356 54.294 65.1349C53.865 65.1344 53.436 65.1334 53.007 65.132C52.7599 65.1312 52.5129 65.1306 52.2658 65.1306C49.4757 65.1298 49.4757 65.1298 48.7965 64.6172C48.6848 64.4811 48.5899 64.3403 48.4935 64.1931C48.3443 64.0194 48.1934 63.9477 47.9879 63.8481C47.509 63.61 47.3289 63.2767 47.0823 62.8206C46.9587 62.6339 46.8334 62.5291 46.6563 62.3935C46.1824 61.9813 46.0579 61.503 46.0131 60.8902C45.98 60.4045 45.9742 59.9208 45.9751 59.4342C45.9751 59.3401 45.975 59.246 45.9748 59.1519C45.9746 58.895 45.9747 58.638 45.975 58.3811C45.9751 58.1009 45.9749 57.8207 45.9747 57.5406C45.9745 57.0501 45.9745 56.5596 45.9747 56.0691C45.9749 55.3397 45.9748 54.6103 45.9746 53.8809C45.9742 52.5781 45.9742 51.2753 45.9744 49.9725C45.9746 48.8324 45.9747 47.6923 45.9746 46.5522C45.9746 46.4387 45.9746 46.4387 45.9746 46.3229C45.9745 46.0159 45.9745 45.7088 45.9745 45.4018C45.9743 42.5216 45.9745 39.6415 45.9749 36.7613C45.9752 34.2028 45.9752 31.6443 45.9748 29.0857C45.9744 26.2109 45.9743 23.336 45.9745 20.4611C45.9745 20.1546 45.9746 19.8481 45.9746 19.5416C45.9746 19.4661 45.9746 19.3906 45.9746 19.3129C45.9747 18.1735 45.9746 17.0342 45.9744 15.8948C45.9742 14.5992 45.9743 13.3037 45.9746 12.0081C45.9748 11.2831 45.9748 10.5581 45.9746 9.83314C45.9744 9.34875 45.9745 8.86436 45.9748 8.37998C45.975 8.10408 45.9751 7.82819 45.9748 7.5523C45.9746 7.3009 45.9747 7.0495 45.975 6.7981C45.9751 6.66595 45.9749 6.53381 45.9746 6.40167C45.9789 4.43756 45.9789 4.43756 46.5069 3.80126C46.6871 3.65624 46.6871 3.65624 46.8585 3.54199C47.049 3.36546 47.1308 3.21732 47.2496 2.98828C47.4383 2.62814 47.5957 2.43071 47.9623 2.24368C48.3458 2.04753 48.3458 2.04753 48.6163 1.72265C48.8383 1.36719 49.2335 1.20231 49.6265 1.08812C50.4165 0.916965 51.2701 0.974412 52.0746 0.97544ZM50.9059 4.92187C50.8529 5.02207 50.8018 5.12328 50.7521 5.22509C50.5754 5.57392 50.3503 5.70735 50.0064 5.87905C49.8244 5.99335 49.7901 6.06123 49.7105 6.25781C49.6184 6.79173 49.6301 7.34317 49.6308 7.88331C49.6306 7.96603 49.6305 8.04876 49.6303 8.13398C49.6299 8.36238 49.6298 8.59077 49.6299 8.81916C49.6299 9.06809 49.6295 9.31702 49.6291 9.56595C49.6284 10.0591 49.6282 10.5522 49.628 11.0454C49.6278 11.6362 49.6272 12.2271 49.6266 12.818C49.6251 14.2454 49.6244 15.6728 49.6238 17.1002C49.6235 17.7752 49.6231 18.4503 49.6227 19.1254C49.6215 21.436 49.6204 23.7466 49.6199 26.0572C49.6199 26.2021 49.6198 26.347 49.6198 26.492C49.6198 26.5998 49.6198 26.5998 49.6197 26.7098C49.6197 27.0739 49.6196 27.4381 49.6195 27.8023C49.6195 27.8745 49.6194 27.9468 49.6194 28.0212C49.6189 30.3672 49.6172 32.7132 49.6149 35.0591C49.6125 37.5393 49.6111 40.0194 49.6109 42.4996C49.6109 42.7715 49.6108 43.0435 49.6108 43.3155C49.6108 43.3825 49.6108 43.4495 49.6108 43.5185C49.6106 44.5979 49.6095 45.6772 49.6081 46.7566C49.6067 47.8402 49.6063 48.9239 49.6069 50.0075C49.6073 50.6518 49.6069 51.2962 49.6054 51.9405C49.6044 52.3704 49.6045 52.8002 49.6054 53.23C49.6059 53.4753 49.6059 53.7206 49.6047 53.9658C49.6037 54.2295 49.6043 54.4931 49.6054 54.7567C49.6047 54.8336 49.604 54.9105 49.6033 54.9897C49.6047 55.3796 49.6047 55.3796 49.7466 55.7347C49.9965 55.8682 50.228 55.8668 50.5044 55.8635C50.5938 55.8641 50.5938 55.8641 50.685 55.8647C50.886 55.8658 51.087 55.8648 51.2881 55.8638C51.4331 55.8642 51.5782 55.8646 51.7232 55.8652C52.1229 55.8663 52.5226 55.8658 52.9222 55.8649C53.3528 55.8643 53.7834 55.8652 54.214 55.866C55.0092 55.8672 55.8043 55.8671 56.5995 55.8663C57.334 55.8656 58.0685 55.8654 58.803 55.8658C58.8517 55.8658 58.9004 55.8658 58.9505 55.8658C59.1481 55.8659 59.3457 55.866 59.5433 55.8661C61.3977 55.8669 63.2521 55.8662 65.1065 55.8647C66.7549 55.8633 68.4032 55.8634 70.0516 55.8648C71.9026 55.8663 73.7535 55.8669 75.6045 55.866C75.8018 55.8659 75.999 55.8658 76.1962 55.8658C76.2448 55.8657 76.2934 55.8657 76.3434 55.8657C77.0775 55.8654 77.8117 55.8657 78.5458 55.8665C79.3804 55.8673 80.2149 55.867 81.0495 55.8655C81.4756 55.8648 81.9017 55.8645 82.3278 55.8654C82.7174 55.8663 83.107 55.8658 83.4967 55.8643C83.638 55.864 83.7794 55.8642 83.9208 55.8648C84.1122 55.8657 84.3035 55.8648 84.4949 55.8635C84.5505 55.8642 84.606 55.8648 84.6633 55.8655C84.8877 55.8624 85.0536 55.841 85.2526 55.7347C85.4286 55.424 85.3971 55.1074 85.3938 54.7567C85.3941 54.6747 85.3945 54.5927 85.3948 54.5082C85.3955 54.2795 85.3949 54.0509 85.3938 53.8222C85.3929 53.5738 85.3936 53.3254 85.3942 53.077C85.3949 52.6413 85.3945 52.2056 85.3935 51.7698C85.3919 51.1219 85.392 50.474 85.3924 49.826C85.393 48.736 85.3923 47.6459 85.3909 46.5559C85.3894 45.4758 85.3886 44.3956 85.3884 43.3155C85.3884 43.2484 85.3884 43.1813 85.3884 43.1121C85.3883 42.8396 85.3883 42.5672 85.3883 42.2947C85.3881 39.8098 85.3865 37.3249 85.3841 34.84C85.3818 32.4941 85.3803 30.1482 85.3797 27.8023C85.3797 27.73 85.3797 27.6578 85.3797 27.5834C85.3796 27.2196 85.3795 26.8558 85.3794 26.492C85.3794 26.4202 85.3794 26.3484 85.3794 26.2744C85.3794 26.1297 85.3793 25.9849 85.3793 25.8401C85.3788 23.5343 85.3777 21.2285 85.3764 18.9227C85.376 18.2475 85.3757 17.5723 85.3754 16.8971C85.3748 15.4768 85.3739 14.0564 85.3725 12.6361C85.3719 12.0486 85.3713 11.4611 85.3712 10.8736C85.371 10.3864 85.3706 9.89927 85.3699 9.41212C85.3695 9.16693 85.3693 8.92174 85.3694 8.67654C85.3694 8.41213 85.369 8.14773 85.3684 7.88331C85.3685 7.80759 85.3686 7.73187 85.3687 7.65385C85.4171 6.71925 85.4171 6.71925 85.0777 5.90624C84.9775 5.85329 84.8763 5.80223 84.7745 5.75244C84.4257 5.57576 84.2923 5.35065 84.1206 5.00674C84.0065 4.82516 83.9377 4.79071 83.7418 4.71093C83.1716 4.60771 82.5759 4.62537 81.9981 4.62373C81.8509 4.62303 81.7038 4.62084 81.5566 4.61865C81.462 4.61819 81.3673 4.61782 81.2726 4.61755C81.1881 4.61689 81.1035 4.61623 81.0164 4.61556C80.7649 4.64324 80.6342 4.69431 80.4371 4.85156C80.3722 5.04969 80.3281 5.22415 80.2921 5.42724C80.0751 6.4691 80.0751 6.4691 79.6406 6.79257C79.2878 7.08735 79.1389 7.47629 78.9547 7.88818C78.7916 8.22647 78.6549 8.45841 78.2937 8.59422C77.3269 8.89047 76.2657 8.80895 75.2678 8.80725C75.0794 8.80744 74.8911 8.80769 74.7027 8.808C74.2462 8.80862 73.7896 8.80849 73.333 8.80808C72.9617 8.80776 72.5903 8.80772 72.2189 8.80787C72.1393 8.80791 72.1393 8.80791 72.0582 8.80794C71.9503 8.80798 71.8425 8.80803 71.7347 8.80808C70.7261 8.80848 69.7175 8.80802 68.7089 8.80726C67.8453 8.80663 66.9818 8.80674 66.1181 8.80739C65.1129 8.80814 64.1077 8.80844 63.1025 8.80801C62.9951 8.80796 62.8877 8.80792 62.7803 8.80787C62.7275 8.80785 62.6747 8.80783 62.6202 8.80781C62.2497 8.80769 61.8792 8.80789 61.5087 8.80822C61.0566 8.80862 60.6045 8.80851 60.1523 8.80776C59.9221 8.80739 59.6918 8.80732 59.4616 8.80771C56.8265 8.81179 56.8265 8.81179 56.3199 8.36718C56.1598 8.14706 56.0419 7.91347 55.9244 7.66845C55.7041 7.21908 55.5288 6.90909 55.1246 6.60937C54.8522 6.19272 54.7645 5.75118 54.6787 5.26663C54.6172 4.95761 54.6172 4.95761 54.4112 4.73114C54.168 4.62142 53.993 4.61548 53.7266 4.61755C53.6805 4.61768 53.6345 4.61781 53.5871 4.61795C53.4898 4.61842 53.3925 4.61939 53.2952 4.62084C53.149 4.62301 53.0028 4.62372 52.8565 4.62414C51.8177 4.56287 51.8177 4.56287 50.9059 4.92187ZM68.1324 70.875C68.1034 70.9123 68.0744 70.9497 68.0445 70.9882C67.7539 71.3436 67.4975 71.5407 67.0777 71.7187C66.7636 71.8758 66.6255 72.0505 66.4449 72.3516C66.6185 72.7388 66.8365 72.8743 67.2159 73.0366C67.6068 73.2781 67.7444 73.6879 67.9039 74.0962C67.9261 74.1516 67.9483 74.207 67.9712 74.2641C68.0255 74.3998 68.079 74.5358 68.1324 74.6719C68.1788 74.6719 68.2252 74.6719 68.273 74.6719C68.3724 74.5579 68.3724 74.5579 68.4708 74.4126C68.6005 74.2279 68.7086 74.0983 68.8861 73.955C69.0861 73.7091 69.0779 73.5929 69.0488 73.2876C69.0408 73.2296 69.0328 73.1716 69.0245 73.1118C69.0173 73.0519 69.01 72.992 69.0025 72.9303C68.9433 72.5182 68.8327 72.2192 68.5864 71.8794C68.431 71.6357 68.3793 71.3766 68.3181 71.0966C68.3032 71.0467 68.2884 70.9968 68.273 70.9453C68.2266 70.9221 68.1802 70.8989 68.1324 70.875ZM54.7071 79.1279C54.651 79.1368 54.5948 79.1457 54.537 79.1548C54.2474 79.2028 53.9868 79.2581 53.7184 79.3828C53.8491 79.7357 54.1579 79.9346 54.461 80.1343C54.9722 80.6193 55.2 81.4835 55.4762 82.125C55.5226 82.125 55.569 82.125 55.6168 82.125C55.9577 81.4288 56.1507 80.9228 56.0606 80.1431C56.0552 80.0954 56.0498 80.0478 56.0441 79.9987C55.9914 79.6199 55.8904 79.3049 55.6168 79.0312C55.3035 79.0312 55.0152 79.0764 54.7071 79.1279ZM38.8824 82.1953C38.8824 82.447 38.9399 82.5091 39.0846 82.7095C39.367 83.1218 39.4857 83.4477 39.4449 83.9531C39.3837 84.237 39.3102 84.5167 39.234 84.7969C39.2103 84.8905 39.1867 84.9843 39.1637 85.0781C39.8484 85.3544 40.3524 85.4025 41.0621 85.1484C41.0969 85.0788 41.0969 85.0788 41.1324 85.0078C41.0646 84.8273 41.0646 84.8273 40.9654 84.6299C40.6406 83.9565 40.672 83.52 40.9097 82.8188C40.9907 82.6199 41.0872 82.4463 41.2027 82.2656C40.365 81.9507 39.7427 81.9947 38.8824 82.1953Z" fill="black"/>
<path d="M67.116 15.0338C67.3243 15.0339 67.5326 15.0334 67.7409 15.0324C72.2816 15.0118 72.2816 15.0118 73.3011 15.9038C73.4066 16.0312 73.4066 16.0312 73.4066 16.1719C73.4932 16.1889 73.5799 16.206 73.6691 16.2235C75.6504 16.6212 75.6504 16.6212 76.1795 17.2046C76.3227 17.5082 76.3254 17.7518 76.2191 18.0703C76.0279 18.3669 75.8757 18.4739 75.5379 18.5669C75.4581 18.5891 75.3782 18.6113 75.2959 18.6342C73.9133 18.9844 73.9133 18.9844 73.6175 18.9844C73.4703 19.9225 73.5442 20.6914 73.8284 21.5859C73.8511 21.4585 73.8737 21.3311 73.8963 21.2036C73.9156 21.0948 73.935 20.9859 73.9545 20.877C74.0236 20.4891 74.0838 20.1006 74.1361 19.71C74.1882 19.5166 74.2344 19.459 74.3909 19.3359C74.5659 19.29 74.5659 19.29 74.7801 19.2621C74.9026 19.2457 74.9026 19.2457 75.0276 19.2289C75.1192 19.2178 75.2107 19.2067 75.305 19.1953C75.4067 19.1826 75.5084 19.1698 75.6101 19.157C75.884 19.1232 76.158 19.0915 76.4322 19.0607C76.6029 19.0413 76.7735 19.0212 76.944 19.001C77.0538 18.9885 77.1637 18.9761 77.2735 18.9638C77.349 18.9547 77.349 18.9547 77.426 18.9454C78.3209 18.8481 79.0706 19.261 79.7569 19.8009C80.0275 20.0416 80.2298 20.3071 80.4378 20.6016C80.5321 20.7238 80.6274 20.8454 80.7235 20.9663C80.7663 21.021 80.8092 21.0756 80.8534 21.1319C80.9862 21.2986 80.9862 21.2986 81.109 21.3936C81.3591 21.6038 81.4491 21.7491 81.4793 22.0784C81.4888 22.275 81.4925 22.4712 81.4963 22.668C81.5053 23.0146 81.5053 23.0146 81.6475 23.3204C81.8624 23.5067 82.1153 23.6288 82.3714 23.748C82.9369 24.0511 83.1422 24.4554 83.3338 25.0532C83.401 25.287 83.4603 25.5191 83.5104 25.7572C83.614 26.2662 83.614 26.2662 83.9804 26.6201C84.5971 27.1549 84.6468 28.1405 84.7124 28.8946C84.7373 29.2636 84.7468 29.6317 84.7488 30.0015C84.7492 30.0694 84.7496 30.1374 84.75 30.2074C84.7459 30.6159 84.6993 30.9989 84.6196 31.3994C84.5541 31.7349 84.5352 32.0733 84.5159 32.4141C84.5102 32.5031 84.5102 32.5031 84.5044 32.594C84.4931 32.9151 84.5274 33.1747 84.6214 33.4819C84.9462 34.6883 84.844 36.4879 84.3124 37.6306C84.171 37.8621 83.9897 38.0286 83.7755 38.1909C83.6199 38.3858 83.5875 38.6091 83.536 38.8477C83.1638 40.4395 83.1638 40.4395 82.5736 40.8164C82.4714 40.8757 82.3688 40.9342 82.2659 40.9922C82.1383 41.0681 82.0109 41.1442 81.8836 41.2207C81.8242 41.2559 81.7649 41.291 81.7037 41.3273C81.5682 41.4033 81.5682 41.4033 81.4925 41.4844C81.4891 41.5869 81.4899 41.6895 81.4925 41.792C81.4982 42.8334 81.4982 42.8334 81.2917 43.1798C81.1316 43.3308 80.9651 43.4615 80.7894 43.5938C80.6723 43.728 80.6723 43.728 80.574 43.8706C80.5239 43.9391 80.5239 43.9391 80.4727 44.009C80.3979 44.1138 80.3242 44.2193 80.2513 44.3254C79.7412 45.0243 78.9558 45.545 78.1175 45.7734C77.8678 45.7908 77.6314 45.7659 77.3836 45.7339C77.3155 45.7264 77.2473 45.7189 77.1771 45.7112C77.03 45.6949 76.883 45.6779 76.7361 45.6602C76.4861 45.6312 76.2359 45.6066 75.9853 45.5828C75.8142 45.5659 75.6431 45.5488 75.472 45.5317C75.3907 45.524 75.3095 45.5163 75.2258 45.5084C75.1495 45.5002 75.0732 45.4921 74.9946 45.4837C74.8935 45.4734 74.8935 45.4734 74.7904 45.463C74.5198 45.404 74.3191 45.3132 74.1618 45.0794C74.1028 44.9099 74.0732 44.7517 74.0498 44.5737C74.0407 44.5061 74.0317 44.4385 74.0223 44.3688C74.009 44.2636 74.009 44.2636 73.9954 44.1562C73.986 44.0861 73.9766 44.0159 73.9669 43.9437C73.9295 43.6591 73.8988 43.3892 73.8988 43.1016C73.8523 43.1016 73.8059 43.1016 73.7581 43.1016C73.7494 43.1857 73.7407 43.2698 73.7318 43.3564C73.7128 43.54 73.6801 43.685 73.6156 43.8593C73.5354 44.1251 73.5291 44.3695 73.534 44.644C73.534 44.6917 73.5341 44.7393 73.5341 44.7884C73.5368 45.1002 73.5675 45.3963 73.6175 45.7031C73.6945 45.7122 73.6945 45.7122 73.773 45.7215C74.2585 45.7869 74.7266 45.8839 75.1995 46.0107C75.2533 46.0246 75.3071 46.0384 75.3625 46.0527C75.6807 46.141 75.9072 46.2401 76.1488 46.4766C76.3071 46.8004 76.3119 47.0439 76.2191 47.3906C75.9364 47.8411 75.5488 48.0081 75.0439 48.1457C74.8443 48.1913 74.6444 48.2335 74.4437 48.2739C73.7416 48.3946 73.7416 48.3946 73.2044 48.8276C72.7039 49.4312 71.8594 49.469 71.1263 49.5396C70.0018 49.6365 68.882 49.6628 67.7538 49.659C67.5172 49.6582 67.2806 49.6586 67.044 49.6594C62.6213 49.6722 62.6213 49.6722 61.7347 48.8672C61.7002 48.809 61.6658 48.7508 61.6303 48.6909C61.3447 48.4079 60.9865 48.3814 60.6009 48.3047C59.1767 48.0151 59.1767 48.0151 58.764 47.4785C58.6163 47.2014 58.6308 46.9992 58.7041 46.6999C58.8456 46.4205 59.0073 46.244 59.3042 46.1291C59.5112 46.0683 59.7186 46.0162 59.9285 45.9668C60.0348 45.9399 60.0348 45.9399 60.1432 45.9124C60.5324 45.8161 60.9139 45.7432 61.3128 45.7031C61.5106 44.9738 61.5531 44.2925 61.2425 43.5938C61.2425 43.5241 61.2425 43.4545 61.2425 43.3828C61.1961 43.3828 61.1497 43.3828 61.1019 43.3828C61.0031 43.8976 60.9264 44.411 60.867 44.9319C60.8187 45.1492 60.7881 45.2243 60.6097 45.3516C60.3471 45.4391 60.0873 45.459 59.8135 45.4853C59.6949 45.4973 59.5764 45.5092 59.4579 45.5212C59.2717 45.5397 59.0855 45.558 58.8993 45.5762C58.7191 45.5939 58.539 45.6121 58.3589 45.6303C58.304 45.6355 58.2491 45.6408 58.1926 45.6461C57.9276 45.6732 57.6755 45.7118 57.4175 45.7789C56.8133 45.9337 56.1358 45.5324 55.6202 45.2291C55.0776 44.8624 54.723 44.3803 54.3405 43.8587C54.1901 43.659 54.0408 43.4904 53.8462 43.3326C53.6488 43.1719 53.6488 43.1719 53.5081 42.9609C53.4957 42.8081 53.4957 42.8081 53.5013 42.6322C53.5392 41.9346 53.5392 41.9346 53.3126 41.3031C53.1461 41.1948 52.9929 41.1261 52.805 41.0625C52.7047 41.0171 52.605 40.9703 52.5062 40.9219C52.4425 40.8958 52.4425 40.8958 52.3776 40.8691C51.9571 40.5956 51.8079 40.2026 51.6668 39.7441C51.6487 39.6883 51.6307 39.6325 51.6121 39.575C51.5013 39.2248 51.4137 38.8795 51.3718 38.5137C51.3387 38.3773 51.3387 38.3773 51.195 38.3134C51.1462 38.2925 51.0974 38.2716 51.0472 38.25C50.1654 37.3902 50.2339 35.8678 50.2004 34.7201C50.1951 34.1675 50.2858 33.6509 50.4578 33.1252C50.501 32.8866 50.4813 32.6503 50.4671 32.4097C50.4626 32.3257 50.4626 32.3257 50.4579 32.2401C50.4361 31.898 50.3932 31.5672 50.3302 31.2305C50.1241 30.1254 50.213 29.0222 50.366 27.9141C50.3734 27.8582 50.3808 27.8024 50.3885 27.7449C50.4716 27.2135 50.6825 26.7661 51.0472 26.3672C51.0943 26.3358 51.1415 26.3044 51.19 26.272C51.3571 26.1323 51.383 26.0469 51.4334 25.8374C51.4493 25.775 51.4652 25.7126 51.4816 25.6483C51.4977 25.5825 51.5139 25.5166 51.5306 25.4487C51.8889 24.1276 51.8889 24.1276 52.5427 23.736C52.7444 23.6226 52.9502 23.5187 53.1566 23.4141C53.3804 23.3005 53.3804 23.3005 53.3988 23.1222C53.4013 23.0608 53.4039 22.9994 53.4065 22.9362C53.4126 22.835 53.4126 22.835 53.4189 22.7318C53.4256 22.5901 53.4318 22.4484 53.4375 22.3066C53.4664 21.8475 53.5193 21.6208 53.8597 21.3047C53.9193 21.2572 53.979 21.2097 54.0404 21.1608C54.2294 21.0089 54.3465 20.8536 54.4837 20.6543C54.5804 20.5195 54.677 20.3847 54.7738 20.25C54.8104 20.1986 54.847 20.1472 54.8847 20.0943C55.2468 19.6326 55.7384 19.3879 56.2503 19.125C56.3129 19.0919 56.3754 19.0588 56.4398 19.0247C56.7774 18.8582 56.9294 18.8481 57.305 18.9141C57.4822 18.9362 57.6596 18.9572 57.837 18.9775C57.9404 18.9895 58.0438 19.0014 58.1472 19.0134C58.3076 19.0318 58.468 19.0501 58.6285 19.0684C58.9844 19.1091 59.3401 19.1514 59.6956 19.1953C59.7857 19.2062 59.8758 19.2171 59.9686 19.2283C60.0503 19.2393 60.132 19.2502 60.2161 19.2615C60.2874 19.2708 60.3588 19.2801 60.4322 19.2897C60.6298 19.3412 60.7031 19.3815 60.8206 19.5469C60.8628 19.6868 60.8628 19.6868 60.8849 19.8449C60.8934 19.9026 60.9019 19.9603 60.9107 20.0197C60.9187 20.0797 60.9267 20.1398 60.9349 20.2017C60.9519 20.32 60.9689 20.4384 60.986 20.5568C60.9937 20.6127 61.0014 20.6686 61.0094 20.7262C61.0368 20.9196 61.0686 21.1122 61.1019 21.3047C61.1483 21.3047 61.1947 21.3047 61.2425 21.3047C61.2556 21.2111 61.2556 21.2111 61.2689 21.1157C61.3128 20.8828 61.3128 20.8828 61.3848 20.7227C61.4687 20.4888 61.4721 20.296 61.471 20.0479C61.4714 19.9654 61.4717 19.8829 61.4721 19.7979C61.452 19.5278 61.3956 19.3115 61.3128 19.0547C61.2533 19.0413 61.1937 19.0278 61.1323 19.014C60.9097 18.9633 60.6872 18.9118 60.4648 18.8599C60.3689 18.8376 60.2728 18.8156 60.1768 18.794C60.038 18.7627 59.8995 18.7303 59.761 18.6976C59.6778 18.6785 59.5946 18.6593 59.5088 18.6396C59.2091 18.5413 58.9378 18.4135 58.7621 18.1431C58.5982 17.6535 58.5982 17.6535 58.7113 17.3672C58.9206 16.9873 59.1648 16.7456 59.5768 16.611C59.7636 16.5628 59.9508 16.5201 60.1395 16.4795C60.2027 16.4652 60.2659 16.4509 60.331 16.4361C60.8387 16.3216 60.8387 16.3216 61.074 16.2807C61.1306 16.2704 61.1872 16.26 61.2455 16.2493C61.2958 16.241 61.3462 16.2328 61.398 16.2242C61.5705 16.1524 61.5948 16.0592 61.6644 15.8906C62.2755 15.1806 63.2785 15.174 64.1488 15.0963C65.1367 15.0289 66.1263 15.0337 67.116 15.0338ZM59.57 24.0046C59.0448 24.3846 58.2447 24.3707 57.6214 24.4072C57.461 24.4175 57.3006 24.4279 57.1402 24.4385C57.0356 24.4448 57.0356 24.4448 56.9289 24.4512C56.7653 24.4666 56.6187 24.4938 56.4613 24.5391C56.4613 24.5855 56.4613 24.6319 56.4613 24.6797C56.5222 24.6867 56.5832 24.6938 56.646 24.701C56.8746 24.728 57.1031 24.7559 57.3316 24.7844C57.43 24.7965 57.5285 24.8082 57.627 24.8196C58.8941 24.966 58.8941 24.966 59.299 25.4339C59.4341 25.7034 59.5079 25.9598 59.5726 26.2529C59.5847 26.3047 59.5969 26.3564 59.6094 26.4098C59.6389 26.536 59.6674 26.6625 59.6956 26.7891C59.742 26.7891 59.7884 26.7891 59.8363 26.7891C59.8468 26.7473 59.8574 26.7055 59.8683 26.6624C59.9178 26.4699 59.9693 26.2779 60.0208 26.0859C60.0374 26.0202 60.054 25.9545 60.0711 25.8868C60.1932 25.439 60.3575 25.0892 60.68 24.75C60.7264 24.7268 60.7728 24.7036 60.8206 24.6797C60.7261 24.396 60.5427 24.3192 60.2977 24.1743C60.2345 24.1355 60.2345 24.1355 60.1701 24.0959C59.8711 23.8878 59.8711 23.8878 59.57 24.0046ZM74.5447 24.293C74.5027 24.3164 74.4607 24.3399 74.4174 24.3641C74.3145 24.4218 74.212 24.4803 74.1097 24.5391C74.1097 24.5855 74.1097 24.6319 74.1097 24.6797C74.1836 24.729 74.2576 24.7783 74.3338 24.8291C74.8998 25.2979 74.9907 26.3417 75.1169 27.0283C75.1404 27.1187 75.1404 27.1187 75.1644 27.2109C75.2108 27.2341 75.2572 27.2573 75.305 27.2812C75.3124 27.2366 75.3198 27.1919 75.3275 27.1459C75.3618 26.9419 75.3971 26.738 75.4324 26.5342C75.4441 26.4639 75.4557 26.3937 75.4677 26.3213C75.5465 25.8727 75.6234 25.4912 75.951 25.1543C76.4398 24.8501 77.0656 24.8392 77.6253 24.7764C77.7066 24.7669 77.7879 24.7575 77.8717 24.7478C78.0708 24.7248 78.2699 24.7021 78.4691 24.6797C78.4691 24.6333 78.4691 24.5869 78.4691 24.5391C78.0178 24.4678 77.568 24.4038 77.1128 24.3652C77.0486 24.3597 76.9844 24.3542 76.9183 24.3486C76.7919 24.3381 76.6655 24.3283 76.539 24.3192C76.172 24.2888 75.8591 24.2151 75.5125 24.0922C75.1195 23.9624 74.8939 24.0954 74.5447 24.293ZM75.2347 37.4062C75.0918 37.802 75.0105 38.203 74.9306 38.615C74.8369 39.0638 74.7174 39.4913 74.3657 39.8035C74.3102 39.8361 74.2547 39.8687 74.1976 39.9023C74.1133 39.9535 74.1133 39.9535 74.0273 40.0056C73.9849 40.0295 73.9425 40.0535 73.8988 40.0781C74.2684 40.3793 74.8477 40.7373 75.3424 40.6961C75.4987 40.6389 75.6463 40.5701 75.7972 40.5C76.3627 40.35 76.9554 40.3186 77.5367 40.2739C77.5985 40.2688 77.6602 40.2636 77.7239 40.2583C77.7794 40.254 77.8348 40.2498 77.892 40.2454C78.0593 40.2167 78.1812 40.1611 78.3284 40.0781C77.876 39.9 77.4054 39.8669 76.926 39.8132C76.4725 39.7573 76.1105 39.6931 75.7796 39.353C75.5202 38.9546 75.4697 38.509 75.4017 38.0479C75.3923 37.986 75.3828 37.9242 75.3731 37.8605C75.3501 37.7092 75.3275 37.5577 75.305 37.4062C75.2818 37.4062 75.2586 37.4062 75.2347 37.4062ZM59.6956 37.8984C59.6794 37.9798 59.6632 38.0612 59.6465 38.1451C59.6234 38.2533 59.6002 38.3615 59.577 38.4697C59.5613 38.5499 59.5613 38.5499 59.5453 38.6318C59.4606 39.0171 59.3521 39.2429 59.0628 39.5156C58.614 39.7808 58.1 39.8117 57.5906 39.8804C57.4582 39.8991 57.4582 39.8991 57.323 39.9181C57.1061 39.9486 56.8892 39.9785 56.6722 40.0078C56.6722 40.0542 56.6722 40.1006 56.6722 40.1484C57.0812 40.2164 57.4887 40.2816 57.9016 40.3198C58.5171 40.3772 59.0527 40.4609 59.6253 40.7109C59.8241 40.8018 59.8241 40.8018 59.9699 40.7311C60.0189 40.7043 60.0679 40.6774 60.1183 40.6497C60.1982 40.6065 60.1982 40.6065 60.2797 40.5625C60.3626 40.5163 60.3626 40.5163 60.4471 40.4692C60.5031 40.4387 60.5592 40.4082 60.617 40.3768C60.7555 40.3013 60.8937 40.2252 61.0316 40.1484C60.9254 40.0401 60.8253 39.9409 60.7022 39.8518C60.0865 39.402 59.9984 38.6024 59.8363 37.8984C59.7898 37.8984 59.7434 37.8984 59.6956 37.8984Z" fill="black"/>
</g>
<defs>
<clipPath id="clip0_62_397">
<rect width="90" height="90" fill="white"/>
</clipPath>
</defs>
</svg>
