<svg width="384" height="436" viewBox="0 0 384 436" fill="none" xmlns="http://www.w3.org/2000/svg">
<g clip-path="url(#clip0_102_76)">
<path d="M175.173 433.895C174.984 432.738 174.784 431.394 174.728 430.908C174.291 427.129 174.031 424.325 173.885 421.828C173.791 420.223 173.667 418.619 173.609 418.264C173.551 417.908 173.431 414.157 173.342 409.927C173.253 405.698 173.059 400.111 172.91 397.513C172.762 394.915 172.57 389.975 172.486 386.537C172.401 383.098 172.281 379.721 172.218 379.034C172.155 378.346 172.03 375.845 171.939 373.476C171.049 350.25 170.737 348.776 165.166 341.494C162.135 337.534 156.247 327.08 153.441 320.678C148.097 308.488 143.77 295.538 140.951 283.299C139.804 278.319 138.096 267.426 137.849 263.508C137.709 261.305 137.539 259.446 137.471 259.379C137.231 259.142 136.042 265.538 135.942 267.602C135.886 268.749 135.729 269.936 135.593 270.242C135.457 270.548 135.198 271.611 135.018 272.604C134.319 276.473 132.795 279.962 131.926 279.689C131.426 279.532 131.502 279.366 128.692 286.713C128.325 287.672 127.954 288.57 127.868 288.709C127.781 288.848 126.828 288.648 125.75 288.265C123.16 287.345 123.055 287.389 121.711 289.972C121.074 291.195 120.222 292.758 119.817 293.445C119.411 294.133 118.933 295.155 118.754 295.716C118.382 296.879 117.599 297.698 117.405 297.127C117.009 295.962 116.389 297.358 115.673 301.031C114.95 304.738 113.697 308.451 113.168 308.451C112.669 308.451 107.363 302.835 106.047 300.912C104.285 298.339 103.967 298.224 103.395 299.951C102.865 301.554 101.643 300.628 98.9744 296.602C98.4608 295.827 98.0569 295.491 97.7375 295.574C96.8093 295.813 94.9731 287.725 94.8916 283.039C94.8701 281.805 94.5199 282.423 93.3248 285.804C91.7523 290.252 90.9313 291.506 89.7165 291.316C89.2306 291.24 88.7352 291.816 86.9846 294.491C84.5805 298.164 83.58 299.009 82.8756 297.959C82.2423 297.014 82.0106 297.138 79.2925 299.865C77.9062 301.256 75.7094 303.094 74.4107 303.949L72.0494 305.505L71.6037 304.845C70.8233 303.689 68.8065 298.906 68.6135 297.753C68.5111 297.141 68.2005 296.428 67.9231 296.167C67.5619 295.828 67.3673 295.079 67.2375 293.527C66.5667 285.514 65.6754 284.153 61.6373 284.973C60.6259 285.179 60.5548 285.154 60.7523 284.667C61.5998 282.574 61.7065 271.325 60.8814 271.066C60.1987 270.852 60.1343 266.019 60.7632 262.184C61.1034 260.109 61.1099 259.62 60.8016 259.315C60.2749 258.793 61.6034 254.446 63.3596 250.945C63.8926 249.882 63.9267 249.641 63.5963 249.274C63.2648 248.906 63.344 248.531 64.1567 246.622C64.6773 245.399 65.1076 244.19 65.1131 243.936C65.1185 243.681 65.3711 242.899 65.6743 242.199C65.9776 241.498 66.1039 240.925 65.955 240.925C65.4114 240.925 65.707 239.577 66.6312 237.841C67.152 236.863 67.6757 235.75 67.795 235.368C68.1429 234.254 71.5744 229.748 75.1743 225.678C76.6114 224.053 78.1535 222.161 78.6012 221.474C79.5627 219.996 81.0551 217.947 81.7386 217.166C83.1134 215.595 85.9364 211.974 85.8517 211.891C85.7064 211.748 76.2236 220.675 74.9317 222.171C73.6703 223.632 68.1993 228.66 67.2182 229.26C66.6974 229.579 65.4621 230.802 64.473 231.978C62.0377 234.875 61.6367 235.276 59.3685 237.079C58.2878 237.939 56.9043 239.156 56.294 239.784C55.6837 240.412 55.0856 240.925 54.9649 240.925C54.8442 240.925 54.0904 241.324 53.2898 241.812C52.1429 242.511 51.5762 242.683 50.6176 242.625C48.9713 242.524 43.8899 244.997 40.9826 247.314L38.8773 248.991L37.8634 247.849L36.8496 246.706L34.8978 247.706C33.8244 248.256 32.8095 248.706 32.6425 248.706C32.1105 248.706 28.3176 250.317 27.8339 250.749C27.0117 251.482 25.9939 251.571 25.2495 250.974C24.5734 250.432 24.5649 250.432 23.7777 250.987C23.3423 251.294 22.0175 251.785 20.8339 252.078C18.8467 252.569 16.8487 253.56 16.8441 254.055C16.8397 254.54 16.3343 254.212 16.202 253.639C16.1226 253.295 15.7725 252.013 15.4238 250.79C14.9201 249.024 14.7912 247.868 14.7959 245.163C14.7991 243.291 14.771 241.759 14.7335 241.759C14.6959 241.759 14.2117 241.947 13.6574 242.176C12.4736 242.666 12.2562 242.691 12.4913 242.315C12.5868 242.162 12.5136 242.037 12.3288 242.037C11.6388 242.037 12.8535 234.989 13.7415 233.839C13.8596 233.687 13.9731 233.029 13.9938 232.377C14.089 229.38 17.5969 222.522 21.1035 218.477C22.2311 217.176 22.0954 217 20.4164 217.584C19.6032 217.867 17.3141 218.36 15.3295 218.679C13.3449 218.998 11.6205 219.321 11.4973 219.396C11.3742 219.472 11.0732 219.335 10.8285 219.093C10.4706 218.739 10.2051 218.709 9.4725 218.939C8.97146 219.097 7.42467 219.296 6.0352 219.381C4.64572 219.466 2.83544 219.682 2.01235 219.859C-0.162497 220.329 -0.236018 220.078 0.735954 215.499C1.48876 211.952 4.5143 205.392 6.32597 203.378C7.46733 202.109 8.00951 200.595 7.59625 199.83C7.22457 199.143 7.51724 198.342 8.65502 196.933C9.12554 196.35 9.70724 195.287 9.94769 194.57C10.3731 193.303 12.9958 189.795 13.5184 189.795C13.6618 189.795 13.7488 189.638 13.7118 189.447C13.5696 188.714 14.0774 187.953 15.3334 187.016C17.3887 185.483 18.2457 184.522 18.2457 183.75C18.2457 182.91 22.2883 178.857 24.561 177.417C25.3417 176.923 26.4192 176.082 26.9552 175.548C27.5503 174.955 28.5859 174.356 29.6141 174.009C30.5405 173.696 32.0562 173.057 32.9826 172.59C33.9089 172.122 34.774 171.738 34.905 171.736C35.0361 171.734 36.1825 171.127 37.4526 170.387C39.0652 169.447 40.433 168.894 41.9863 168.552C45.1792 167.85 48.2793 167.004 49.3238 166.55C50.6347 165.98 53.6111 165.063 54.1497 165.063C54.404 165.063 54.8612 164.903 55.1657 164.706C56.0921 164.11 57.6314 163.683 59.3853 163.537C63.3136 163.209 66.8085 162.796 68.772 162.428L70.8773 162.033L66.6668 162.176C63.987 162.267 61.946 162.204 61.0527 162.002C60.2808 161.827 59.0808 161.574 58.3861 161.44C57.6913 161.306 56.1755 161 55.0176 160.762C50.4353 159.818 47.9669 159.502 43.9299 159.345C39.0509 159.154 36.7509 158.673 36.9589 157.886C37.0741 157.449 36.7207 157.29 34.4507 156.756C31.8372 156.141 30.9643 155.955 30.496 155.914C30.3635 155.902 30.3213 155.612 30.4022 155.268C30.5314 154.719 30.2871 154.517 28.3975 153.61C26.4851 152.692 24.6885 151.735 23.6485 151.079C23.3947 150.919 23.3765 150.71 23.583 150.328C23.8233 149.883 23.7289 149.727 22.9943 149.351C21.0817 148.372 17.0191 146.974 16.32 147.054C14.5779 147.255 16.5867 144.213 18.8064 143.289L19.7161 142.91L18.1479 141.799C17.2854 141.187 16.2283 140.269 15.7987 139.757C13.6284 137.173 11.0459 134.765 9.5335 133.916C6.64235 132.292 6.75046 132.445 7.75391 131.389C8.23605 130.882 9.09974 129.78 9.67323 128.941C10.8838 127.17 12.3421 125.791 13.8056 125.035C14.3741 124.741 14.9124 124.383 15.0019 124.239C15.0914 124.096 15.7957 123.771 16.567 123.518C17.3383 123.264 17.8933 122.935 17.8004 122.786C17.1056 121.673 19.0393 120.455 23.8598 118.968C25.8236 118.362 29.4165 118.136 31.3355 118.498C32.4642 118.711 32.4918 118.698 32.3616 118.025C32.0127 116.217 38.7064 116.867 42.2457 118.984C43.6261 119.81 43.6578 119.568 42.3543 118.156C40.7385 116.405 38.8111 114.17 37.2313 112.215L35.9561 110.637L36.8908 110.091C37.4049 109.791 38.0938 109.461 38.4216 109.358C39.2546 109.096 39.168 108.485 38.0345 106.624C37.4945 105.738 37.0527 104.955 37.0527 104.884C37.0527 104.814 36.8156 104.226 36.5258 103.578C36.236 102.93 35.7873 101.816 35.5286 101.102C35.2699 100.388 34.8755 99.6539 34.652 99.4703C34.0363 98.9645 34.139 98.8001 35.4863 98.1339C38.7751 96.5079 43.5672 96.127 47.8335 97.1525C49.6321 97.5848 49.7966 97.5854 50.11 97.1612C50.3882 96.7845 50.7636 96.7347 52.2414 96.8782C53.9662 97.0458 54.72 97.2715 58.1054 98.634C59.6129 99.2407 60.7945 99.6174 63.7896 100.446C65.8018 101.003 68.8313 102.557 72.3046 104.816C73.9042 105.856 75.3111 106.708 75.4311 106.708C75.5511 106.708 75.9864 106.989 76.3984 107.333C76.8105 107.677 77.4945 108.208 77.9184 108.514C78.3424 108.819 78.8263 109.199 78.9938 109.357C79.1613 109.516 80.1826 110.346 81.2633 111.202C83.353 112.857 84.3813 113.887 85.8968 115.842C86.4148 116.511 87.6684 117.588 88.6825 118.238C89.6967 118.887 90.8422 119.69 91.2282 120.023C92.8283 121.401 95.7194 124.286 95.7194 124.504C95.7194 124.633 95.9475 124.902 96.2264 125.101C96.5052 125.301 97.4732 126.465 98.3774 127.688C99.2817 128.91 100.096 129.973 100.188 130.05C100.279 130.126 100.726 130.689 101.18 131.3C102.189 132.657 104.18 134.774 104.447 134.774C104.555 134.774 105.047 135.148 105.542 135.605C106.441 136.437 106.873 136.706 109.14 137.852C113.921 140.267 108.261 131.135 101.614 125.707C95.5288 120.738 93.6881 118.504 90.685 112.443C89.1453 109.335 89.1182 108.947 90.4397 108.935C91.2168 108.928 91.2327 108.554 90.5188 107.077C90.1461 106.306 89.532 104.23 89.1542 102.464C88.7763 100.698 88.3335 99.0059 88.1702 98.7038C87.6906 97.8167 90.0897 97.5712 97.544 97.7444C98.3159 97.7623 100.021 97.7684 101.333 97.7579C104.167 97.7351 106.039 98.0944 108.209 99.0767C110.104 99.9351 110.381 99.8731 110.809 98.4942C111.245 97.0878 109.704 95.87 107.49 95.87C106.353 95.87 106.311 95.5708 107.256 94.1842C107.717 93.5066 108.407 92.3095 108.79 91.524C109.762 89.5264 113.74 85.1591 115.34 84.3326C117.547 83.1927 117.539 83.221 115.868 82.464C114.33 81.767 110.504 79.1185 109.77 78.2428C109.252 77.6252 107.963 76.9739 107.259 76.9739C106.327 76.9739 106.34 76.5209 107.299 75.5356C107.8 75.0201 108.756 74.0061 109.422 73.2821C110.885 71.6927 116.632 68.0816 117.699 68.0816C117.803 68.0816 118.616 67.5447 119.506 66.8886C120.395 66.2324 121.48 65.543 121.916 65.3565C122.595 65.0663 122.685 64.9044 122.536 64.2346C122.259 62.9838 125.848 60.8221 128.842 60.4372C131.123 60.1441 131.132 60.1293 130.329 58.1468C129.319 55.6564 131.482 53.8847 136.564 53.0393C138.692 52.6853 138.712 52.6744 138.56 51.9226C138.264 50.458 144.913 48.7285 148.524 49.3305C149.297 49.4594 149.58 49.3959 149.709 49.0647C149.826 48.7619 150.249 48.6297 151.102 48.6297C151.776 48.6297 152.405 48.5535 152.499 48.4604C152.811 48.1509 156.745 48.116 158.597 48.4062C159.6 48.5635 160.674 48.7297 160.983 48.7756C167.583 49.756 171.489 51.1351 180.558 55.6865C188.048 59.4458 190.407 60.784 191.783 62.0553C192.203 62.4441 194.856 64.5187 197.677 66.6655C203.058 70.7598 205.196 72.5261 205.194 72.8765C205.194 72.992 205.912 73.7422 206.79 74.5438C207.668 75.3454 208.647 76.2669 208.965 76.5915C210.639 78.2989 215.948 82.7437 216.885 83.222C217.479 83.5254 218.647 84.2132 219.48 84.7504C225.457 88.6057 227.162 89.1256 226.466 86.8807C225.769 84.6316 222.261 81.223 218.526 79.1652C216.852 78.2425 211.913 74.864 211.064 74.0602C210.82 73.8287 210.503 73.6393 210.36 73.6393C210.217 73.6393 209.783 73.3482 209.395 72.9925C208.659 72.3168 206.052 70.611 202.947 68.773C199.014 66.4443 197.683 65.2406 197.848 64.1601C197.955 63.4662 196.362 62.2686 192.779 60.349C190.553 59.1565 189.438 58.3967 189.312 57.987C189.022 57.0431 188.407 56.489 186.435 55.3975C183.982 54.0397 181.485 51.6497 181.694 50.8599C181.821 50.3775 181.57 50.1207 180.257 49.3878C178.006 48.1313 174.316 44.5907 174.316 43.687C174.316 43.2145 173.954 42.6794 173.203 42.0433C169.431 38.8474 169.027 37.0499 171.93 36.3898C172.702 36.2143 174.17 35.6663 175.193 35.172C177.315 34.1465 177.316 34.3651 175.173 31.5355C174.215 30.2709 173.917 29.6276 173.888 28.7686C173.861 27.9485 173.534 27.1889 172.666 25.9261C171.499 24.2301 171.488 24.1891 171.924 23.353C172.323 22.5905 172.326 22.2687 171.96 20.2135C171.735 18.954 171.476 17.0842 171.383 16.0584L171.215 14.1932L172.134 13.7225C173.522 13.0117 175.682 12.5118 177.382 12.5081C178.322 12.5061 179.077 12.3488 179.359 12.0967C180.105 11.4277 184.503 11.5805 187.292 12.3723C188.093 12.5997 188.684 12.6456 188.783 12.488C189.71 11.0023 203.272 17.7436 204.891 20.4952C205.342 21.2631 205.277 19.8163 204.787 18.2047C203.979 15.5475 203.928 13.9584 204.632 13.3941C205.259 12.8918 205.985 10.0001 206.02 7.86657C206.034 7.05258 206.13 6.96114 207.196 6.75249C208.323 6.53199 208.376 6.47113 208.976 4.72148C209.316 3.72944 209.785 2.48011 210.019 1.94518C210.252 1.41025 210.521 0.753754 210.617 0.48629C210.846 -0.15955 211.391 -0.130388 214.951 0.718414C218.743 1.62234 225.755 4.16308 226.134 4.77047C226.23 4.92314 226.451 4.90135 226.675 4.7172C227.603 3.95459 231.892 7.21055 234.89 10.9532L235.761 12.0415L236.919 11.2832C237.877 10.6552 238.149 10.5854 238.504 10.877C239.443 11.6478 241.355 14.4161 242.221 16.2562C242.725 17.3261 243.283 18.4996 243.461 18.8642C243.639 19.2287 244.069 19.7115 244.417 19.9371C244.788 20.1776 245.224 20.9293 245.471 21.7533C245.984 23.4638 246.608 24.4538 247.171 24.4538C247.885 24.4538 248.343 26.2456 248.822 30.9123C248.881 31.4884 249.24 32.3184 249.627 32.7734C250.199 33.4461 250.359 34.0125 250.512 35.9019C250.776 39.1473 250.96 40.3892 251.226 40.71C251.895 41.5173 252.398 53.0563 251.952 57.383C251.653 60.2932 250.715 65.0699 249.825 68.2205C249.393 69.7489 248.952 71.4995 248.846 72.1109C248.739 72.7222 247.86 75.5983 246.893 78.5022C244.109 86.8636 244.222 89.8032 247.266 88.2445C249.308 87.1994 250.996 83.5167 253.324 75.0287C253.889 72.9654 254.46 70.9646 254.592 70.5825C254.724 70.2004 255.233 68.5748 255.723 66.97C256.709 63.7405 256.723 63.7055 258.372 60.1619C260.755 55.0433 262.563 52.3597 266.536 48.0424C267.045 47.4901 267.803 46.3647 268.222 45.5414C268.641 44.7182 269.189 43.9325 269.439 43.7955C270.302 43.3238 272.729 40.7079 273.398 39.529C273.767 38.8794 274.247 38.348 274.465 38.348C275.145 38.348 276.469 37.2422 277.594 35.7344C278.438 34.6039 278.944 34.2071 279.899 33.9266C280.83 33.6532 281.67 33.0137 283.412 31.2511C285.228 29.4136 285.922 28.8939 286.772 28.7362C287.36 28.6269 288.478 28.1394 289.254 27.6531C293.366 25.0783 297.356 23.8618 297.43 25.1602C297.55 27.2865 299.139 27.7794 303.158 26.9374C310.633 25.3714 324.402 26.376 323.809 28.4441C323.715 28.7712 323.571 30.0393 323.488 31.2619C323.406 32.4846 323.278 33.6623 323.204 33.879C322.617 35.5956 322.767 37.7532 323.507 38.2333C324.463 38.8535 324.355 39.5231 322.774 42.7548C321.054 46.2744 317.252 50.9119 315.228 51.9602C314.688 52.2402 313.867 52.8708 313.404 53.3616L312.562 54.2541L314.241 54.0537C315.741 53.8747 317.012 53.5165 318.737 52.7866C322.117 51.3561 332.84 51.5569 332.54 53.0449L332.389 53.7908L335.238 54.2721C336.806 54.5369 338.212 54.8762 338.363 55.0262C338.515 55.1762 338.819 55.2989 339.039 55.2989C339.26 55.2989 340.379 55.8304 341.526 56.4799C342.674 57.1295 344.079 57.9225 344.648 58.2423C345.491 58.7153 345.669 58.9621 345.603 59.5666C345.547 60.0767 345.679 60.3668 346.024 60.492C347.193 60.916 349.792 62.9173 352.281 65.3104C353.747 66.7205 355.232 68.0602 355.579 68.2877C356.486 68.8815 356.368 69.1315 355.018 69.4768C354.362 69.6446 353.632 69.8364 353.398 69.9029C353.163 69.9695 352.582 70.3684 352.108 70.7895C349.254 73.321 348.351 73.9011 346.176 74.6C344.647 75.0911 344.484 75.2579 345.02 75.7881C345.768 76.5284 342.571 78.5328 339.847 79.0317C339.098 79.1689 338.709 79.4166 338.536 79.8658C338.148 80.8761 336.05 82.49 333.685 83.5975C330.527 85.0762 330.929 85.3065 337.404 85.7277C338.87 85.8231 340.828 86.0101 341.755 86.1434C342.681 86.2767 344.449 86.4677 345.684 86.5679C346.919 86.6682 348.625 86.9199 349.474 87.1275C350.323 87.335 351.933 87.692 353.052 87.9208C354.17 88.1495 355.728 88.6562 356.513 89.0466C357.299 89.4371 358.3 89.7565 358.739 89.7565C361.33 89.7565 368.344 91.6707 369.981 92.8246C370.819 93.4151 370.846 93.5729 370.335 94.9223C370.182 95.3273 370.844 95.841 372.81 96.8426C375.095 98.0065 379.417 101.076 380.092 102.013L380.654 102.795L380.081 103.362C379.289 104.146 379.358 104.757 380.492 106.986C382.573 111.077 384.079 115.556 383.718 116.577C383.492 117.214 383.629 117.187 380.383 117.232L377.89 117.267L377.911 118.65C377.943 120.755 376.477 121.067 371.228 120.075C367.145 119.303 367.17 119.295 369.042 120.776C371.344 122.597 373.895 125.371 373.895 126.054C373.895 126.135 374.4 126.901 375.018 127.754C376.173 129.352 376.446 130.328 375.736 130.328C374.932 130.328 375.045 130.851 376.223 132.59C378.045 135.279 379.211 139.347 378.246 139.645C378.014 139.717 377.623 139.839 377.378 139.916C377.013 140.03 377.12 140.3 377.955 141.375C380.022 144.034 381.224 146.02 381.085 146.546C381.009 146.834 381.318 148.167 381.772 149.508C382.952 152.996 382.72 153.905 380.791 153.357C379.179 152.9 377.544 153.046 377.544 153.647C377.544 154.788 377.286 155.004 376.193 154.782C373.761 154.288 369.763 154.455 369.604 155.057C369.389 155.868 368.805 155.762 365.644 154.334C359.097 151.377 357.257 150.611 356.72 150.618C356.517 150.621 356.923 150.98 357.623 151.415C359.274 152.442 363.403 156.476 364.624 158.255C365.148 159.019 365.655 159.707 365.749 159.783C366.15 160.106 369.646 164.716 370.071 165.48C370.325 165.938 370.652 166.501 370.797 166.73C371.357 167.618 372.565 170.64 372.418 170.786C372.333 170.87 371.841 171.004 371.325 171.084C370.048 171.281 370.054 171.178 371.18 173.496C372.704 176.632 373.886 183.228 372.716 182.07C372.149 181.508 372.069 181.676 372.108 183.345C372.129 184.23 371.978 185.887 371.772 187.027C371.566 188.167 371.391 189.635 371.383 190.29C371.365 191.787 371.073 191.895 368.975 191.184C368.053 190.872 365.748 190.12 363.852 189.513C360.307 188.378 358.641 187.651 357.257 186.638C355.905 185.649 355.374 187.236 355.366 192.296C355.359 196.612 355.383 196.569 353.042 196.321L351.201 196.126L351.053 197.337C350.971 198.003 350.834 199.355 350.748 200.342C350.555 202.571 350.339 202.806 349.143 202.086C348.63 201.777 347.224 201.259 346.018 200.936C343.352 200.22 341.387 199.263 339.956 197.983C338.719 196.876 338.381 196.805 337.971 197.565C337.697 198.071 336.974 198.082 336.561 197.587C336.228 197.187 333.493 195.373 332.148 194.66C331.341 194.232 329.702 192.909 328.505 191.719C326.683 189.907 326.215 189.579 325.619 189.696C325.116 189.796 324.664 189.625 324.069 189.107C323.606 188.706 322.328 187.7 321.228 186.873C317.673 184.201 315.881 182.257 313.417 178.402C311.152 174.858 310.89 174.515 310.452 174.513C309.88 174.511 307.487 172.871 306.105 171.534C303.801 169.305 299.876 165.167 299.111 164.16C296.809 161.13 299.401 167.264 302.15 171.351C302.754 172.249 303.62 173.796 304.076 174.789C304.532 175.782 305.354 177.466 305.902 178.53C306.699 180.075 306.905 180.799 306.924 182.129L306.947 183.793L305.614 183.716C304.015 183.624 304.011 183.653 305.297 185.765C306.475 187.698 306.683 188.185 307.379 190.631C308.45 194.391 308.268 195.14 306.466 194.395C305.206 193.874 304.463 194.084 304.662 194.904C305.909 200.048 305.838 203.382 304.499 202.455C303.372 201.673 303.267 201.871 303.369 204.592C303.48 207.569 303.312 208.007 302.212 207.593C301.274 207.24 301.062 207.63 301.258 209.349C301.665 212.927 300.735 214.893 299.05 214.014C298.453 213.702 297.017 213.005 295.86 212.465C293.605 211.412 292.185 210.636 291.527 210.096C290.88 209.564 289.868 209.862 289.461 210.706C289.114 211.423 288.442 211.727 288.234 211.26C288.182 211.145 287.319 210.524 286.316 209.881C284.167 208.503 283.641 208.029 280.206 204.373C277.926 201.946 277.383 201.16 275.802 197.992C274.61 195.606 273.992 194.616 273.981 195.075C273.784 203.303 272.576 208.377 270.854 208.203C270.212 208.138 270.089 208.305 269.526 210.009C268.456 213.244 266.696 215.154 265.789 214.063C265.358 213.545 261.803 210.883 260.071 209.783C259.453 209.39 258.034 208.148 256.917 207.022C255.801 205.897 254.844 205.03 254.791 205.097C254.739 205.163 254.418 205.615 254.08 206.101C253.519 206.905 251.592 208.34 251.399 208.097C251.355 208.042 250.896 207.371 250.379 206.607C249.861 205.843 248.969 204.655 248.395 203.967C247.821 203.279 246.856 201.716 246.251 200.493C245.16 198.289 245.142 198.27 244.071 198.27C243.158 198.27 242.962 198.163 242.8 197.576C242.694 197.193 242.021 195.727 241.304 194.316C240.587 192.905 239.998 191.53 239.996 191.259C239.987 190.196 239.62 190.034 238.296 190.504C236.624 191.099 232.489 192.004 231.412 192.012C230.934 192.015 230.152 192.211 229.674 192.447C228.892 192.833 228.641 192.833 227.134 192.447C222.992 191.384 223.193 190.932 223.003 201.744C222.93 205.947 222.813 209.719 222.745 210.126C222.673 210.554 222.784 211 223.009 211.185C223.223 211.361 223.739 212.153 224.156 212.946C225.086 214.714 226.317 216.331 227.604 217.476C228.355 218.143 228.538 218.486 228.408 218.978C228.185 219.824 228.705 220.989 230.45 223.548C234.434 229.393 235.036 231.416 232.791 231.414C231.743 231.414 231.094 231.583 230.475 232.02C229.259 232.877 229.284 233.175 231.126 239.618C232.63 244.879 232.685 247.054 231.296 246.343C228.628 244.977 228.443 245.568 229.76 251.231C230.313 253.606 230.473 254.955 230.405 256.662C230.305 259.209 230.45 259.148 228.138 257.627C227.483 257.197 225.931 256.577 224.69 256.251C222.442 255.66 220.23 254.862 217.825 253.776C215.629 252.784 215.143 252.772 214.113 253.682L213.193 254.496L214.035 254.658C220.265 255.851 224.427 258.174 223.902 260.164C223.83 260.434 223.869 260.655 223.988 260.655C224.365 260.655 224.795 264.054 224.689 266.213C224.344 273.299 219.814 280.444 212.051 286.147C209.807 287.796 208.281 289.162 208.281 289.523C208.281 290.043 207.26 291.893 206.445 292.853C205.309 294.188 206.253 293.867 208.554 292.134C209.515 291.41 210.041 291.205 210.799 291.258C212.215 291.356 213.962 290.695 220.524 287.578C222.395 286.689 224.479 285.826 225.156 285.66C232.083 283.96 234.867 283.691 238.125 284.411C241.159 285.081 244.211 286.793 244.211 287.826C244.211 287.958 244.633 288.557 245.15 289.158C254.386 299.9 234.646 311.969 215.86 307.066C211.504 305.929 206.396 304.358 205.895 304.001C205.74 303.891 204.858 303.525 203.933 303.188C203.009 302.85 202.093 302.443 201.898 302.283C201.692 302.113 201.544 302.102 201.544 302.257C201.544 302.537 204.118 304.283 204.531 304.283C204.663 304.282 205.972 304.776 207.439 305.38C208.905 305.984 211.144 306.79 212.414 307.171C213.684 307.552 215.137 308.043 215.642 308.264C219.271 309.845 223.865 310.772 229.754 311.112C234.416 311.382 238.704 312.618 240.904 314.327C250.015 321.403 246.667 328.459 234.197 328.459C231.053 328.459 229.84 328.278 225.544 327.165C221.842 326.207 212.223 321.025 208.186 317.814C203.491 314.08 200.475 311.15 199.546 309.421C199.219 308.811 198.613 307.812 198.2 307.201C197.191 305.707 196.121 303.482 196.037 302.703C195.958 301.969 194.503 299.212 194.3 299.413C193.875 299.834 197.805 308.368 199.745 311.236C201.542 313.893 204.986 317.086 209.556 320.332C209.717 320.446 210.561 320.894 211.431 321.327C212.946 322.082 215.579 324.531 215.579 325.185C215.579 325.357 215.78 325.717 216.025 325.986C217.26 327.336 215.853 328.198 212.912 327.893C209.532 327.543 207.906 327.338 207.439 327.204C207.207 327.137 206.512 327.012 205.895 326.926C203.239 326.554 200.968 325.831 198.739 324.647C193.89 322.072 192.764 321.498 192.712 321.573C192.683 321.616 192.117 322.961 191.454 324.563C190.303 327.341 187.699 332.714 186.441 334.905C181.921 342.777 181.222 348.001 182.415 364.999C182.726 369.419 182.541 394.009 182.161 398.764C181.853 402.635 181.921 409.548 182.296 412.38C182.367 412.915 182.557 415.291 182.718 417.66C183.018 422.057 183.223 423.71 184.171 429.331C184.468 431.089 184.762 432.846 184.826 433.237C185.06 434.67 180.847 436.133 180.07 434.889C179.696 434.29 177.192 434.574 176.395 435.305C175.978 435.688 175.61 436 175.577 436C175.543 436 175.361 435.053 175.173 433.895ZM178.307 335.128C183.022 328.224 188.519 315.12 186.701 315.12C186.598 315.12 186.305 314.714 186.05 314.217C184.037 310.296 184.599 305.02 187.432 301.256C188.998 299.174 188.301 299.097 186.349 301.135C184.609 302.952 181.053 308.78 181.053 309.814C181.053 309.96 180.686 310.87 180.238 311.836C179.499 313.428 178.529 316.385 178.158 318.177C178.079 318.559 177.762 319.872 177.454 321.095C177.145 322.318 176.803 324.193 176.692 325.263C176.582 326.333 176.443 327.458 176.383 327.764C176.149 328.972 176.274 335.073 176.548 335.788C176.9 336.703 177.345 336.536 178.307 335.128ZM171.999 332.555C172.216 323.581 175.504 309.782 178.788 304.065C180.048 301.871 180.049 301.504 178.796 301.504C172.545 301.504 163.898 289.728 163.086 280.107C162.39 271.858 164.265 269.219 169.166 271.549C169.956 271.924 170.479 271.586 170.268 270.836C168.834 265.736 168.387 257.222 169.294 252.272C169.837 249.307 171.146 244.6 171.556 244.135C171.685 243.99 171.79 243.655 171.79 243.392C171.79 243.129 172.105 242.542 172.491 242.088C173.358 241.068 173.373 240.702 172.561 240.395C165.871 237.868 154.92 222.307 146.828 203.828C146.091 202.147 145.112 200.035 144.651 199.136L143.813 197.501L143.883 214.698C143.987 240.63 144.362 252.124 145.409 261.489C145.554 262.788 145.744 264.664 145.832 265.657C146.33 271.295 148.529 282.141 150.846 290.389C153.481 299.768 155.05 304.571 156.836 308.729C159.934 315.939 163.38 323.116 164.638 324.979C164.95 325.441 166.264 327.507 167.557 329.57C169.936 333.366 171.402 335.408 171.743 335.403C171.846 335.4 171.961 334.12 171.999 332.555ZM182.087 288.268C181.498 287.715 180.412 286.81 179.673 286.255C178.146 285.111 176.024 282.628 175.215 281.039C173.544 277.758 173.168 277.388 173.352 279.204C173.409 279.777 173.507 280.825 173.567 281.532C173.691 282.966 174.587 283.957 177.651 286.045C178.518 286.637 179.481 287.343 179.79 287.614C180.449 288.194 182.463 289.278 182.873 289.275C183.03 289.275 182.676 288.82 182.087 288.268ZM189.068 282.376C188.754 281.399 191.026 276.971 192.442 275.8C192.627 275.647 193.122 274.647 193.544 273.577C194.277 271.714 195.96 268.704 196.701 267.93C196.895 267.728 197.053 267.455 197.053 267.324C197.053 266.421 201.547 260.739 204.487 257.926C205.656 256.807 206.583 255.744 206.548 255.564C206.513 255.384 206.569 254.799 206.672 254.264C207.17 251.693 207.175 251.485 206.747 251.485C206.517 251.485 206.116 251.806 205.856 252.199C205.284 253.064 204.964 253.01 201.742 251.502C200.475 250.909 198.933 250.289 198.316 250.124C197.698 249.959 196.625 249.448 195.93 248.989C195.235 248.529 194.524 248.152 194.35 248.152C194.176 248.151 193.877 247.963 193.684 247.734C193.031 246.954 192.842 247.314 192.842 249.339C192.842 252.919 192.442 255.437 190.203 265.961C189.125 271.025 188.656 274.886 188.605 279.134C188.562 282.726 188.576 282.886 188.931 282.886C189.096 282.886 189.157 282.657 189.068 282.376ZM136.703 215.291C136.703 214.335 136.787 208.376 136.889 202.047C137.086 189.833 137.045 189.44 135.838 192.14C135.297 193.352 134.697 198.486 134.862 200.493C134.912 201.105 135.04 202.918 135.146 204.523C135.348 207.567 135.714 211.948 136.034 215.152C136.27 217.51 136.702 217.599 136.703 215.291ZM98.0009 200.078C98.7154 199.542 99.9786 198.515 100.808 197.796C101.637 197.076 103.337 195.681 104.586 194.695C111.131 189.527 114.391 182.266 109.799 183.083C109.037 183.219 103.289 188.829 102.218 190.483C101.819 191.098 101.033 192.164 100.47 192.851C99.407 194.15 94.689 201.192 93.3644 203.457C92.9474 204.17 92.4225 204.904 92.1979 205.089C91.9733 205.273 91.7931 205.565 91.7974 205.738C91.8017 205.91 92.907 204.926 94.2535 203.552C95.6001 202.178 97.2864 200.615 98.0009 200.078ZM216.453 193.439L216.562 190.83L214.607 190.297C213.532 190.004 212.521 189.66 212.361 189.533C211.926 189.187 205.855 187.294 205.182 187.294C204.285 187.294 195.721 184.391 195.369 183.968C195.023 183.553 189.451 181.53 187.284 181.032C179.089 179.151 181.201 181.606 190.487 184.756C197.104 187 198.393 187.582 201.583 189.768C205.247 192.278 207.209 194.035 212.657 199.686C213.261 200.312 213.944 200.902 214.176 200.998C214.537 201.147 214.528 201.221 214.111 201.522C213.668 201.842 213.729 201.977 214.813 203.072L216 204.271L216.172 200.159C216.267 197.898 216.393 194.873 216.453 193.439ZM98.1054 163.364C99.7259 161.742 89.1009 160.145 80.4212 160.707C76.2238 160.978 75.3475 161.091 73.4738 161.602C73.358 161.633 72.979 161.678 72.6317 161.702C72.1355 161.736 72.0904 161.796 72.4212 161.979C72.6527 162.108 74.4212 162.096 76.351 161.953C81.5691 161.566 88.8403 162.217 94.0352 163.536C95.6289 163.941 97.613 163.857 98.1054 163.364ZM232.414 157.535C231.997 156.095 231.534 150.096 231.723 148.573C232.063 145.83 232.097 145.455 232.268 142.554C232.611 136.732 232.72 135.397 232.988 133.78C233.614 129.993 232.692 131.955 231.28 137.414C230.963 138.636 230.525 140.324 230.305 141.165C228.967 146.292 227.625 154.713 228.118 154.9C228.323 154.978 228.491 155.342 228.491 155.709C228.491 156.249 228.853 156.568 230.386 157.377C232.7 158.599 232.723 158.601 232.414 157.535ZM292.772 156.042C292.772 155.928 290.679 152.925 288.503 149.918C288.06 149.307 287.363 148.307 286.953 147.695C286.543 147.084 286.07 146.459 285.902 146.306C285.734 146.153 284.696 144.965 283.595 143.666C279.806 139.196 272.099 132.551 270.705 132.551C270.592 132.551 270.298 132.369 270.051 132.148C268.919 131.133 263.471 128.674 263.122 129.02C262.463 129.673 268.135 137.014 270.096 138.046C270.887 138.462 271.798 139.07 272.12 139.395C272.441 139.721 273.399 140.391 274.247 140.883C275.095 141.376 276.295 142.184 276.912 142.679C277.53 143.174 278.547 143.897 279.172 144.286C279.797 144.674 281.818 146.425 283.663 148.176C285.508 149.926 288.091 152.269 289.404 153.381C290.716 154.493 291.891 155.575 292.014 155.787C292.223 156.145 292.772 156.33 292.772 156.042ZM221.498 146.932C222.071 143.029 223.304 136.995 223.84 135.468C224.171 134.527 224.212 133.842 223.914 134.241C222.771 135.77 220.441 138.947 219.447 140.331C218.734 141.325 217.444 142.881 216.582 143.789C215.719 144.697 215.109 145.531 215.226 145.644C215.343 145.756 216.488 146.364 217.77 146.994C219.449 147.821 220.081 148.273 220.032 148.613C219.927 149.33 220.359 150.379 220.711 150.263C220.883 150.206 221.237 148.707 221.498 146.932ZM285.404 116.114C290.867 115.421 281.505 113.052 275.088 113.505C269.929 113.868 269.246 114.302 272.353 115.242C276.812 116.591 279.979 116.803 285.404 116.114ZM146.408 114.527C147.785 113.938 149.494 113.37 150.205 113.266C151.042 113.143 151.698 112.848 152.069 112.425C152.956 111.416 156.821 110.419 161.825 109.909C162.751 109.814 164.772 109.565 166.316 109.354C167.86 109.143 169.881 108.88 170.807 108.769C171.733 108.658 172.744 108.527 173.053 108.479C176.093 107.999 186.478 108.632 192.281 109.651C193.593 109.881 195.351 110.188 196.187 110.334C201.035 111.176 209.721 110.075 211.818 108.352C213.896 106.644 199.557 105.095 191.283 106.133C183.057 107.165 179.235 107.577 176.856 107.689C175.382 107.758 173.797 107.872 173.333 107.941C172.87 108.011 168.386 108.145 163.369 108.24C158.351 108.334 153.618 108.547 152.851 108.713C151.395 109.028 142.414 109.087 141.461 108.787C140.645 108.531 140.758 109.075 142.131 112.016C142.802 113.452 143.429 114.846 143.526 115.113C143.747 115.726 143.484 115.779 146.408 114.527ZM270.035 96.9407C272.949 96.433 280.983 93.2735 280.983 92.6355C280.983 91.6117 270.211 93.5311 267.086 95.1117C262.996 97.1807 264.238 97.951 270.035 96.9407Z" fill="#F4B8B3"/>
</g>
<defs>
<clipPath id="clip0_102_76">
<rect width="384" height="436" fill="white"/>
</clipPath>
</defs>
</svg>
