<svg width="40" height="44" viewBox="0 0 40 44" fill="none" xmlns="http://www.w3.org/2000/svg">
<path d="M24.8723 6.63559C24.8995 6.63802 24.9266 6.64021 24.9547 6.64264C25.2574 6.66911 25.5576 6.70748 25.8575 6.75823C25.8846 6.76285 25.9116 6.76722 25.9396 6.77159C26.1895 6.81652 26.4448 6.91414 26.6197 7.12105C26.9338 7.42874 27.8154 7.39887 28.2181 7.4421C28.2618 7.44672 28.3053 7.45157 28.3504 7.45643C28.4349 7.46566 28.5194 7.4744 28.6039 7.48242C28.981 7.52297 29.3771 7.61938 29.6473 7.92756C29.669 7.97419 29.6906 8.02082 29.7129 8.06866C29.7733 8.18717 29.788 8.2015 29.911 8.2576C29.9572 8.26682 30.0034 8.2763 30.051 8.28577C30.1032 8.29767 30.1555 8.30981 30.208 8.3222C30.2357 8.32851 30.2637 8.33458 30.2923 8.34114C30.4521 8.37951 30.6089 8.42711 30.7662 8.47616C30.8115 8.48903 30.8115 8.48903 30.8577 8.50239C31.168 8.59953 31.3923 8.76904 31.5548 9.07382C31.5699 9.10903 31.585 9.14401 31.6005 9.18019C31.6943 9.31352 31.8159 9.3412 31.9581 9.39001C32.3149 9.52917 32.4891 9.67026 32.7036 10.0095C32.7938 10.1441 32.894 10.2249 33.0254 10.309C33.3416 10.5188 33.4996 10.7901 33.6087 11.1689V11.2874C33.6404 11.2906 33.6722 11.294 33.7051 11.2974C33.9109 11.3467 34.0598 11.4695 34.1901 11.6476C34.2791 11.8047 34.3253 11.9832 34.3789 12.1571C34.4733 12.4487 34.5599 12.6338 34.7985 12.8193C35.1641 13.1642 35.2229 13.7655 35.2959 14.2519C35.3157 14.3813 35.3356 14.5105 35.3554 14.64C35.3757 14.7728 35.3957 14.9057 35.4151 15.0387C35.4262 15.1121 35.4262 15.1121 35.4372 15.1869C35.4437 15.2303 35.45 15.2741 35.4566 15.319C35.492 15.5033 35.5465 15.6374 35.6583 15.7811C36.0035 16.2717 36.0294 16.9286 36.0513 17.5238C36.0529 17.5644 36.0544 17.6047 36.0558 17.6465C36.0716 18.1234 36.0684 18.6002 36.0614 19.0774C36.0594 19.2306 36.0583 19.3836 36.0574 19.5368C36.0402 21.0653 36.0402 21.0653 35.6238 21.594C35.3178 22.0137 35.3534 22.7845 35.306 23.2971C35.1821 24.6221 35.1821 24.6221 34.8558 25.0428C34.806 25.0823 34.7546 25.1202 34.7023 25.1562C34.5403 25.2776 34.5153 25.3946 34.4779 25.5984C34.474 25.6222 34.4702 25.646 34.4661 25.6705C34.25 26.9829 34.25 26.9829 33.8976 27.2809C33.8263 27.3319 33.7608 27.3724 33.6812 27.4062C33.5866 27.4684 33.5794 27.5118 33.5528 27.6264C33.5442 27.6612 33.5356 27.6959 33.5268 27.7318C33.5183 27.7688 33.5097 27.8059 33.5009 27.844C33.482 27.9201 33.4631 27.9958 33.4437 28.0716C33.4345 28.1083 33.425 28.1447 33.4155 28.1826C33.3249 28.5252 33.2071 28.8405 32.9486 29.0743C32.872 29.1176 32.872 29.1176 32.7949 29.1535C32.6498 29.2232 32.6038 29.2985 32.5418 29.4534C32.517 29.5236 32.4931 29.5943 32.4693 29.6649C32.3705 29.9452 32.2727 30.1392 32.0316 30.2998C31.9746 30.3211 31.9171 30.3418 31.8597 30.3614C31.7359 30.4139 31.7075 30.4433 31.6514 30.5766C31.6233 30.6735 31.5953 30.7706 31.5681 30.868C31.4563 31.1881 31.232 31.3885 30.9621 31.5512C30.8305 31.6541 30.7577 31.8122 30.6745 31.9599C30.5188 32.2112 30.3099 32.3239 30.051 32.4342C29.9779 32.4497 29.9047 32.4636 29.8308 32.4735C29.8258 32.4985 29.8209 32.5233 29.8157 32.549C29.7535 32.8157 29.6676 33.0127 29.4641 33.1851C29.2818 33.2861 29.0912 33.3577 28.8978 33.4296C28.7714 33.526 28.734 33.638 28.6779 33.7912C28.5303 34.062 28.3026 34.1764 28.0358 34.2745C27.7649 34.3763 27.4887 34.4814 27.3138 34.7391C26.9843 35.1711 26.4727 35.268 25.9932 35.378C25.6973 35.448 25.4751 35.5157 25.2709 35.7622C24.8454 36.2528 24.1707 36.2775 23.5891 36.3332C23.2429 36.3667 22.8988 36.4104 22.5547 36.4633C22.5126 36.4696 22.4704 36.4757 22.4271 36.4823C22.2113 36.5165 22.0301 36.558 21.8347 36.6634C20.7802 37.1982 19.5845 37.1858 18.4397 37.1846C18.3863 37.1846 18.3863 37.1846 18.332 37.1846C17.6631 37.1841 16.9997 37.1542 16.3328 37.0981C16.2652 37.0933 16.1978 37.0887 16.1302 37.0838C15.7235 37.0501 15.2897 36.9563 14.9609 36.6804C14.8169 36.5658 14.6807 36.5333 14.5059 36.5029C14.4725 36.4966 14.4394 36.4903 14.4051 36.484C13.9558 36.406 13.5001 36.3693 13.0465 36.3302C11.6263 36.203 11.6263 36.203 11.2046 35.6704C11.1611 35.5963 11.1611 35.5963 11.1611 35.5172C11.1233 35.5133 11.0854 35.5094 11.0462 35.5055C10.813 35.4737 10.5867 35.4101 10.3589 35.3491C10.3142 35.3377 10.2696 35.3265 10.2237 35.3146C9.83762 35.2119 9.48223 35.0985 9.25394 34.7267C9.2438 34.7005 9.23366 34.6742 9.22352 34.6475C9.17034 34.5499 9.13608 34.5368 9.0376 34.5023C9.00875 34.4919 8.98013 34.4812 8.95039 34.4702C8.90419 34.4542 8.90419 34.4542 8.85732 34.4377C8.36897 34.2536 7.92952 34.061 7.65774 33.5562C7.54642 33.3633 7.36906 33.271 7.17909 33.1851C6.89919 33.0559 6.77322 32.8871 6.64973 32.5923C6.52691 32.3307 6.38561 32.1605 6.15439 32.0068C5.78886 31.7469 5.64779 31.2199 5.54976 30.7765C5.48756 30.4982 5.4461 30.3396 5.21511 30.1866C5.19235 30.1718 5.16936 30.157 5.1457 30.1417C4.50771 29.435 4.69341 27.946 4.69611 27.0363C4.69656 26.8957 4.69634 26.7551 4.69589 26.6145C4.69025 24.458 4.69025 24.458 5.07246 23.9754C5.13308 23.9123 5.19505 23.8542 5.26153 23.7984C5.447 23.6335 5.54255 23.4965 5.60655 23.2466C5.69421 22.9139 5.83371 22.6701 6.0994 22.4734C6.14245 22.4588 6.18572 22.444 6.23011 22.4289C6.37907 22.3413 6.39642 22.2874 6.46628 22.1251C6.63688 21.729 6.85052 21.6234 7.21785 21.4784C7.40827 21.4063 7.40827 21.4063 7.49323 21.4063C7.5009 21.3728 7.50833 21.3393 7.51622 21.3048C7.61898 21.0282 7.78687 20.8604 8.03905 20.7397C8.43455 20.5842 8.87985 20.5524 9.29721 20.5143C9.37834 20.5068 9.45947 20.4988 9.5406 20.4905C10.2453 20.422 10.2453 20.422 10.5283 20.5663C10.5531 20.5782 10.5779 20.5903 10.6036 20.6027C10.8154 20.7404 10.9419 20.8856 11.0512 21.1246C11.0629 21.1477 11.0748 21.171 11.087 21.1948C11.1476 21.3245 11.1638 21.3937 11.1339 21.5365C11.1188 21.5848 11.1034 21.6331 11.0879 21.6829C11.0793 21.746 11.0726 21.8094 11.0669 21.8731C11.0228 22.3597 10.9437 22.8272 10.8332 23.301C10.8272 23.328 10.8208 23.3552 10.8145 23.3831C10.7143 23.8176 10.5763 24.1918 10.3679 24.5782C10.0463 25.1763 10.0609 25.7584 10.1452 26.4358C10.1896 26.5562 10.289 26.6133 10.3834 26.6883C10.609 26.9494 10.7012 27.3212 10.8012 27.6539C10.8139 27.6945 10.8263 27.7348 10.8393 27.7765C10.895 27.9594 10.9459 28.1396 10.982 28.3281C11.0011 28.481 11.0011 28.481 11.0879 28.5605C11.1454 28.586 11.2035 28.6098 11.2621 28.6321C11.5519 28.7557 11.6878 28.9123 11.8185 29.2128C11.8455 29.2803 11.8712 29.3488 11.8953 29.4177C11.9273 29.5146 11.9273 29.5146 12.0049 29.5882C12.0783 29.6132 12.1527 29.636 12.2271 29.6574C12.4964 29.7441 12.7398 29.8573 12.9056 30.112C12.9583 30.2206 12.9584 30.2206 12.9584 30.2998C12.9818 30.3102 13.0052 30.3209 13.0296 30.3318C13.1051 30.3787 13.1051 30.3787 13.1418 30.4972C13.2166 30.5164 13.2917 30.5348 13.3671 30.5504C13.5794 30.6031 13.7814 30.6929 13.9855 30.774C14.0234 30.7879 14.0612 30.802 14.1005 30.8165C14.4272 30.938 14.6458 31.083 14.829 31.4064V31.4854C15.1599 31.5694 15.4902 31.6476 15.8262 31.703C15.8546 31.7076 15.8828 31.7122 15.9119 31.717C15.9714 31.7268 16.0309 31.7365 16.0904 31.7462C16.7414 31.8543 17.3143 31.972 17.8939 32.3193C18.0933 32.4381 18.2529 32.5262 18.4809 32.5576C18.521 32.5634 18.5612 32.5692 18.6026 32.5753C19.3954 32.6693 20.2223 32.6816 21.0164 32.5898C21.0509 32.5864 21.0854 32.583 21.121 32.5796C21.3425 32.5488 21.4583 32.4747 21.6179 32.3081C21.8153 32.1071 22.0456 32.0009 22.3025 31.9179C22.332 31.9079 22.3618 31.898 22.3924 31.8875C22.6451 31.8059 22.9006 31.7479 23.1607 31.7017C23.4016 31.6561 23.6335 31.5934 23.7811 31.3719C23.8045 31.3312 23.828 31.2903 23.8521 31.2483C24.1924 30.8537 24.6629 30.6344 25.1359 30.4972H25.2092C25.213 30.463 25.2168 30.4287 25.2207 30.3935C25.2653 30.1574 25.3701 29.9462 25.5393 29.7859C25.6928 29.6853 25.8467 29.6035 26.0218 29.5586C26.1352 29.5185 26.1352 29.5185 26.1827 29.3973C26.1958 29.3526 26.2089 29.3082 26.2226 29.2621C26.3625 28.8283 26.557 28.6051 26.9331 28.4024C27.0452 28.2717 27.0909 28.118 27.1441 27.9528C27.3126 27.454 27.4702 26.9955 27.9166 26.7175C28.059 26.621 28.1005 26.494 28.1395 26.3216C28.1492 26.2667 28.1591 26.2116 28.1688 26.1567C28.2688 25.6601 28.434 25.2026 28.8295 24.8997C29.0727 24.628 29.0941 24.2316 29.134 23.8742C29.3217 22.3512 29.3217 22.3512 29.73 21.8361C30.1373 21.2992 30.0268 20.1168 30.0257 19.4708C30.0257 19.3272 30.0266 19.1835 30.0275 19.04C30.0654 18.0224 30.0654 18.0224 29.8308 17.0583C29.7776 17.0126 29.7242 16.967 29.671 16.9216C29.3129 16.5595 29.1673 15.8965 29.0876 15.3938C29.0587 15.2724 29.0321 15.2102 28.9505 15.1215C28.8672 15.0759 28.8672 15.0759 28.7741 15.0448C28.4942 14.9316 28.3486 14.7779 28.217 14.4889C28.2048 14.4467 28.1927 14.4042 28.1803 14.3605C28.1361 14.2298 28.1061 14.2045 27.9968 14.1334C27.9089 14.1057 27.8201 14.0812 27.7309 14.0591C27.3014 13.943 27.0168 13.6814 26.713 13.3427V13.2637C26.6871 13.2586 26.6611 13.2538 26.6343 13.2487C26.5271 13.2237 26.4272 13.1882 26.3233 13.1501C26.1196 13.0811 25.9202 13.0396 25.709 13.0068C24.6025 12.8315 24.6025 12.8315 24.235 12.4089C23.7718 11.9587 22.7967 12.0718 22.2072 12.047C22.0878 12.0417 21.9685 12.0356 21.8491 12.0283C21.2154 11.991 20.5819 11.9948 19.9476 11.997C19.7438 11.9978 19.5403 11.9982 19.3368 11.9985C18.7588 11.9995 18.1808 12.0009 17.6027 12.0026C17.2818 12.0036 16.9611 12.0043 16.6402 12.0048C16.4381 12.005 16.2359 12.0055 16.034 12.0065C15.9085 12.007 15.7827 12.007 15.6572 12.007C15.5993 12.0072 15.5414 12.0075 15.4835 12.0077C14.6787 12.0126 14.6787 12.0126 14.3522 11.7221C14.0493 11.31 14.0351 10.7111 14.0425 10.2026C14.075 9.92089 14.1881 9.64889 14.3959 9.46675C14.5077 9.39268 14.6217 9.36524 14.7488 9.33319C14.852 9.30841 14.852 9.30842 14.939 9.2715C14.9897 9.16416 14.9897 9.16416 15.0125 9.03448C15.2957 8.53858 15.874 8.46645 16.3588 8.33604C16.409 8.3222 16.409 8.32219 16.4604 8.30835C16.517 8.29305 16.5737 8.27848 16.6308 8.26488C16.7858 8.22506 16.855 8.17066 16.9496 8.03393C17.3391 7.53487 18.0277 7.48412 18.5959 7.43045C18.6585 7.42486 18.7209 7.41927 18.7836 7.41369C19.1604 7.38042 19.5336 7.34132 19.905 7.26312C19.9336 7.25754 19.962 7.25195 19.9915 7.24612C20.1891 7.20144 20.2928 7.12591 20.4409 6.97898C21.7315 6.35753 23.4949 6.51562 24.8723 6.63559Z" fill="black"/>
<path d="M9.1846 0.333105C9.28151 0.333105 9.37841 0.333104 9.47554 0.332861C9.68557 0.332861 9.8956 0.332619 10.1056 0.332619C10.418 0.332862 10.7303 0.332619 11.0427 0.332376C11.6333 0.332133 12.224 0.33189 12.8144 0.33189C13.2708 0.33189 13.7271 0.33189 14.1835 0.331647C14.3148 0.331647 14.4464 0.331647 14.5781 0.331647C14.6107 0.331647 14.6434 0.331647 14.6772 0.331647C15.5969 0.331405 16.5163 0.331162 17.436 0.331162C17.4707 0.331162 17.5054 0.331162 17.541 0.331162C17.7166 0.331162 17.8921 0.331162 18.0677 0.331162C18.12 0.331162 18.12 0.331162 18.1734 0.331162C18.2439 0.331162 18.3145 0.331162 18.385 0.331162C19.4811 0.331162 20.5775 0.330919 21.6739 0.330433C22.907 0.329705 24.1402 0.329462 25.3733 0.329462C25.5051 0.329462 25.6367 0.329462 25.7684 0.329462C25.817 0.329462 25.817 0.329462 25.8666 0.329462C26.3867 0.329462 26.9069 0.329219 27.427 0.328976C27.9503 0.32849 28.4738 0.328491 28.9973 0.328733C29.3073 0.328976 29.6177 0.328733 29.928 0.32849C30.136 0.328247 30.344 0.328247 30.5522 0.32849C30.6701 0.328733 30.7882 0.328733 30.9063 0.32849C31.3694 0.327276 31.8291 0.336747 32.2911 0.374146C32.3296 0.377303 32.3681 0.380461 32.408 0.383618C32.9782 0.434859 33.5558 0.526414 33.9686 0.988803C34.0119 1.05 34.0119 1.05 34.0119 1.12893C34.1859 1.19523 34.3601 1.25424 34.539 1.30281C34.573 1.31204 34.6068 1.32127 34.6418 1.33074C34.7107 1.34944 34.7799 1.36765 34.8491 1.38538C35.1851 1.47863 35.4276 1.6598 35.6831 1.9097C35.714 1.93957 35.7451 1.96968 35.7771 2.00052C35.8458 2.07775 35.8458 2.07775 35.8458 2.15668C35.8857 2.17319 35.8857 2.17319 35.9263 2.19019C36.0951 2.26499 36.2524 2.36067 36.4119 2.45563C36.4462 2.47505 36.4802 2.49424 36.5154 2.51415C36.7579 2.65938 36.8816 2.80946 37.0195 3.06591C37.1637 3.26505 37.3188 3.45933 37.5283 3.57954C37.7607 3.71651 37.8502 3.88554 37.9732 4.133C38.2125 4.62429 38.2125 4.62429 38.5645 5.01941C38.8462 5.27367 38.9474 5.62071 39.0369 5.99081C39.0619 6.08893 39.0871 6.1868 39.1126 6.28491C39.1236 6.32886 39.1345 6.37282 39.146 6.41799C39.2136 6.64457 39.2818 6.77255 39.4545 6.91948C39.8565 7.32431 39.9108 8.03927 39.9539 8.59953C39.957 8.63911 39.9599 8.67845 39.9631 8.71925C39.9978 9.23312 39.9958 9.74651 39.9955 10.2616C39.9955 10.3655 39.9956 10.4697 39.9958 10.5739C39.9958 10.7995 39.996 11.0254 39.996 11.251C39.9958 11.5866 39.996 11.922 39.9962 12.2576C39.9965 12.8922 39.9967 13.5265 39.9967 14.1608C39.9967 14.6511 39.9967 15.1412 39.9969 15.6315C39.9969 15.7729 39.9969 15.9142 39.9969 16.0556C39.9969 16.0905 39.9969 16.1257 39.9969 16.1619C39.9971 17.1498 39.9974 18.1378 39.9974 19.1257C39.9974 19.1628 39.9974 19.2 39.9974 19.2384C39.9974 19.4271 39.9974 19.6155 39.9974 19.8042C39.9974 19.8603 39.9974 19.8603 39.9974 19.9176C39.9974 19.9934 39.9974 20.0692 39.9974 20.1449C39.9974 21.3228 39.9976 22.5003 39.998 23.6782C39.9987 25.0029 39.9989 26.3277 39.9989 27.6522C39.9989 27.7938 39.9989 27.9351 39.9989 28.0767C39.9989 28.1114 39.9989 28.1464 39.9989 28.1823C39.9989 28.7409 39.9992 29.2997 39.9994 29.8583C39.9998 30.4207 39.9998 30.9829 39.9996 31.5451C39.9994 31.8785 39.9996 32.2117 39.9998 32.5452C40.0001 32.7686 40.0001 32.992 39.9998 33.2154C39.9996 33.3424 39.9996 33.4692 39.9998 33.596C40.001 34.0941 39.9922 34.5888 39.9575 35.0856C39.9545 35.1272 39.9516 35.1687 39.9487 35.2117C39.9014 35.822 39.8092 36.441 39.4038 36.9007C39.3675 36.9255 39.3675 36.9255 39.3305 36.9507C39.2305 37.0437 39.2073 37.1319 39.1653 37.2662C39.1498 37.3155 39.1342 37.3648 39.1182 37.4153C39.0729 37.57 39.0364 37.7264 39.0002 37.8838C38.9445 38.1164 38.878 38.2915 38.7435 38.4817C38.7259 38.5089 38.7085 38.5358 38.6905 38.5638C38.6053 38.6934 38.531 38.7915 38.4133 38.8894C38.2499 39.0266 38.1758 39.2357 38.0832 39.4302C37.9148 39.7749 37.7542 40.0646 37.4206 40.2406C37.221 40.3507 37.0756 40.5134 36.9852 40.7346C36.837 41.0824 36.5127 41.238 36.2125 41.4066C36.0058 41.5292 35.837 41.6297 35.6991 41.8415C35.57 41.96 35.57 41.96 35.479 41.96V42.039C35.2613 42.2464 35.0217 42.3136 34.7454 42.3947C34.6544 42.4219 34.5636 42.4489 34.4725 42.4763C34.4114 42.4941 34.4114 42.4941 34.349 42.5123C34.1388 42.5854 34.02 42.6587 33.8837 42.845C33.4981 43.2894 32.8191 43.3375 32.2879 43.3829C32.251 43.3863 32.214 43.3895 32.1761 43.3929C31.7 43.4303 31.2245 43.4281 30.7474 43.4278C30.6509 43.4278 30.5545 43.4281 30.458 43.4281C30.2489 43.4283 30.04 43.4283 29.8309 43.4283C29.5201 43.4283 29.2093 43.4283 28.8983 43.4286C28.3108 43.429 27.7231 43.429 27.1356 43.429C26.6815 43.429 26.2274 43.4293 25.7733 43.4293C25.6424 43.4293 25.5114 43.4295 25.3805 43.4295C25.3316 43.4295 25.3316 43.4295 25.2818 43.4295C24.3666 43.4298 23.4515 43.4298 22.5363 43.4298C22.5018 43.4298 22.4673 43.4298 22.432 43.4298C22.2573 43.4298 22.0824 43.4298 21.9078 43.4298C21.8557 43.4298 21.8557 43.4298 21.8025 43.4298C21.7324 43.4298 21.6624 43.4298 21.592 43.4298C20.5013 43.4298 19.4104 43.43 18.3194 43.4307C17.0924 43.4312 15.8651 43.4315 14.638 43.4315C14.5071 43.4315 14.3759 43.4315 14.2448 43.4315C14.1965 43.4315 14.1965 43.4315 14.1472 43.4315C13.6295 43.4315 13.1121 43.4317 12.5947 43.4322C12.0737 43.4324 11.5529 43.4324 11.0321 43.4322C10.7233 43.4322 10.4146 43.4322 10.1059 43.4327C9.89876 43.4327 9.69165 43.4327 9.48478 43.4324C9.36737 43.4322 9.24996 43.4324 9.13232 43.4327C8.66268 43.4337 8.19574 43.4232 7.727 43.3868C7.68666 43.3836 7.6461 43.3807 7.60463 43.3773C7.04507 43.3295 6.48281 43.2212 6.06229 42.7901C6.0393 42.751 6.0393 42.751 6.01564 42.7112C5.84009 42.4916 5.46712 42.4392 5.20977 42.3763C4.94317 42.311 4.73314 42.2318 4.52175 42.039C4.49291 42.0127 4.46384 41.9863 4.43387 41.9591C4.32705 41.8588 4.22226 41.7582 4.12558 41.6463C4.03949 41.5593 3.95859 41.5076 3.8538 41.4493C3.81729 41.4284 3.78078 41.4073 3.74292 41.3857C3.66675 41.3422 3.59013 41.2995 3.51351 41.2572C3.2575 41.1084 3.12342 40.9663 2.98144 40.6953C2.83699 40.4959 2.68217 40.3016 2.47236 40.1814C2.24002 40.0444 2.15191 39.8744 2.02774 39.6279C1.99889 39.5762 1.96982 39.5247 1.94075 39.4732C1.92565 39.4465 1.91032 39.4198 1.89477 39.3924C1.86458 39.3392 1.83415 39.286 1.80373 39.2328C1.69759 39.0439 1.69759 39.0439 1.69759 38.956C1.66626 38.9419 1.66626 38.9419 1.63449 38.9275C1.32643 38.741 1.11234 38.3578 1.01386 38.0016C0.972617 37.8418 0.934757 37.6815 0.898249 37.5205C0.868277 37.3927 0.837403 37.2655 0.802698 37.1392C0.795036 37.1105 0.787148 37.0816 0.779261 37.052C0.733513 36.9585 0.686189 36.9408 0.597173 36.9007C0.539933 36.8434 0.539932 36.8434 0.487199 36.7771C0.461057 36.745 0.461058 36.745 0.434466 36.7125C0.134742 36.2489 0.0813324 35.6741 0.0432471 35.125C0.0400921 35.0803 0.0371625 35.0356 0.0337822 34.9895C0.00155624 34.4892 0.000203998 33.9899 0.00110542 33.4884C0.000880067 33.3837 0.000879455 33.2788 0.000654098 33.1739C0.000428742 32.9481 0.000428742 32.7222 0.000654098 32.4964C0.000879455 32.1605 0.000654222 31.8246 0.000428866 31.4885C0.000203509 30.8884 0.000203509 30.2881 0.000428866 29.6878C0.000654222 29.1625 0.000654222 28.637 0.000428866 28.1117C0.000428866 28.0767 0.000428866 28.0417 0.000428866 28.0058C0.000428866 27.8637 0.000428866 27.7219 0.000428866 27.5798C0.000203509 26.2507 0.000429478 24.9213 0.000880191 23.592C0.00110555 22.4132 0.00110481 21.2344 0.000654098 20.0553C0.000428742 18.7284 0.000203509 17.4014 0.000428866 16.0743C0.000428866 15.9327 0.000428866 15.7911 0.000428866 15.6493C0.000428866 15.6145 0.000428866 15.5796 0.000428866 15.5436C0.000654222 15.0188 0.000428866 14.494 0.000428866 13.9692C0.000203509 13.372 0.000203386 12.7749 0.000654098 12.1777C0.000879455 11.844 0.000879579 11.5106 0.000428866 11.1772C0.000428866 10.9535 0.000429478 10.7301 0.000880191 10.5064C0.000880191 10.3796 0.000879455 10.2526 0.000654098 10.1258C-0.00362767 7.52515 -0.00362731 7.52515 0.569679 6.87285C0.670639 6.7813 0.670639 6.7813 0.743879 6.7813C0.805176 6.59333 0.860389 6.40488 0.906362 6.21181C0.91515 6.17514 0.923939 6.13847 0.932954 6.10058C0.950531 6.02578 0.967884 5.95074 0.985011 5.87546C1.0436 5.63334 1.12225 5.44318 1.25747 5.23992C1.27752 5.2081 1.29758 5.17653 1.31831 5.14399C1.33521 5.11922 1.35234 5.09469 1.36969 5.06944C1.38682 5.04418 1.40395 5.01917 1.42153 4.99318C1.48327 4.91644 1.54547 4.86058 1.62412 4.80497H1.69759C1.70705 4.77024 1.71674 4.73552 1.72643 4.69982C1.7706 4.56916 1.82311 4.47032 1.89477 4.35545C1.97342 4.22674 2.04261 4.1041 2.09872 3.96252C2.19743 3.7391 2.39214 3.63127 2.58008 3.50304C2.77682 3.35418 2.92578 3.19729 3.03395 2.96464C3.16533 2.69289 3.38551 2.56272 3.63588 2.43644C3.76365 2.36771 3.88354 2.28466 4.00456 2.20306C4.08163 2.15668 4.08163 2.15668 4.1551 2.15668C4.16344 2.13482 4.17178 2.11272 4.18034 2.09013C4.36446 1.74019 4.72705 1.52235 5.07207 1.40578C5.22036 1.36207 5.37 1.32345 5.51941 1.2846C5.68189 1.24161 5.83446 1.1979 5.98905 1.12893C6.01519 1.0772 6.03953 1.0245 6.06229 0.970832C6.43818 0.484401 7.09352 0.435345 7.63956 0.378032C8.15427 0.33019 8.66831 0.332862 9.1846 0.333105ZM8.65524 3.04357C8.61851 3.04843 8.582 3.05328 8.54414 3.05814C8.26042 3.09748 8.26042 3.09748 8.03393 3.27574C7.83134 3.4892 7.59764 3.61063 7.33015 3.70315C7.30175 3.71335 7.27335 3.72331 7.24428 3.73375C7.04755 3.80102 6.85284 3.84498 6.64934 3.87849C6.3201 3.93459 6.06454 4.00818 5.8606 4.30591C5.84031 4.33675 5.82026 4.3676 5.7993 4.39917C5.68009 4.55848 5.52459 4.65732 5.36549 4.76539C5.33146 4.78967 5.29766 4.81371 5.2625 4.83848C5.10926 4.94631 4.95804 5.04734 4.79241 5.13112C4.65877 5.186 4.65877 5.18601 4.63195 5.31884C4.59792 5.33439 4.59792 5.33439 4.56345 5.35017C4.44694 5.42108 4.42417 5.51701 4.37054 5.64742C4.18237 6.07848 3.92794 6.4328 3.57661 6.72641C3.37807 6.95591 3.32556 7.25146 3.27936 7.55211C3.19463 8.04752 3.08218 8.60924 2.76127 8.99489C2.7358 9.01359 2.71011 9.03253 2.68397 9.05171C2.59586 9.12991 2.58977 9.17338 2.57332 9.29384C2.56791 9.33269 2.56251 9.37179 2.5571 9.41186C2.55191 9.45679 2.54651 9.50196 2.5411 9.5481C2.53479 9.59935 2.52848 9.65034 2.52194 9.70304C2.48341 10.0285 2.46042 10.3534 2.44757 10.681C2.446 10.7203 2.44442 10.7599 2.44284 10.8005C2.42729 11.2289 2.42594 11.6568 2.42639 12.0854C2.42639 12.1738 2.42639 12.2622 2.42639 12.3509C2.42616 12.5913 2.42616 12.8317 2.42639 13.0721C2.42639 13.3057 2.42639 13.5394 2.42616 13.7727C2.42594 14.2793 2.42616 14.7859 2.42616 15.2925C2.42616 15.7357 2.42639 16.1789 2.42616 16.6224C2.42616 16.6518 2.42616 16.6814 2.42616 16.7117C2.42616 16.8315 2.42616 16.9512 2.42616 17.0712C2.42616 18.1929 2.42616 19.3146 2.42639 20.4363C2.42662 21.4311 2.42662 22.4258 2.42639 23.4205C2.42616 24.5403 2.42616 25.6601 2.42616 26.7801C2.42616 26.8996 2.42616 27.0191 2.42616 27.1388C2.42616 27.1682 2.42616 27.1976 2.42616 27.2279C2.42639 27.6707 2.42616 28.1136 2.42616 28.5563C2.42594 29.0602 2.42616 29.5642 2.42616 30.0681C2.42639 30.325 2.42639 30.5817 2.42639 30.8384C2.42616 31.074 2.42616 31.3098 2.42639 31.5453C2.42639 31.6299 2.42639 31.7146 2.42639 31.7994C2.42571 32.5546 2.43541 33.3114 2.52059 34.062C2.52735 34.1276 2.52735 34.1276 2.53411 34.1941C2.56589 34.5176 2.56589 34.5176 2.73603 34.776C2.93412 34.9946 3.0468 35.2462 3.13266 35.5344C3.14663 35.5803 3.14663 35.5803 3.16105 35.6272C3.22325 35.8382 3.26291 36.0468 3.29311 36.2657C3.34652 36.6379 3.44568 36.933 3.73323 37.1625C3.7756 37.1946 3.7756 37.1946 3.81887 37.2273C3.95341 37.3434 4.03025 37.4942 4.11837 37.6516C4.15555 37.7111 4.19296 37.7704 4.23082 37.8294C4.30406 37.9467 4.36648 38.0642 4.42553 38.1903C4.59702 38.5249 4.87061 38.6828 5.18025 38.8503C5.29022 38.9154 5.37946 38.988 5.47546 39.0745C5.52369 39.1109 5.57169 39.1471 5.61992 39.1833C5.72854 39.2692 5.79998 39.3516 5.87434 39.4723C6.03142 39.7076 6.23063 39.7991 6.49114 39.8543C6.56776 39.8676 6.64461 39.8803 6.72123 39.8929C6.94929 39.9327 7.16563 39.998 7.38513 40.075C7.43291 40.0913 7.43291 40.0913 7.48158 40.1076C7.73038 40.1979 7.94199 40.3273 8.11191 40.5469C8.24261 40.663 8.39202 40.6705 8.55653 40.6953C8.60003 40.7021 8.64352 40.7089 8.68814 40.7159C8.98742 40.7603 9.28669 40.7829 9.58821 40.796C9.62675 40.7977 9.66506 40.7994 9.7045 40.8011C10.1081 40.8174 10.5113 40.8194 10.9151 40.8189C10.9971 40.8189 11.0794 40.8189 11.1614 40.8189C11.3845 40.8191 11.6074 40.8191 11.8303 40.8189C12.0471 40.8189 12.2636 40.8189 12.4802 40.8191C12.9501 40.8194 13.42 40.8191 13.8896 40.8191C14.3009 40.8191 14.7119 40.8189 15.123 40.8191C15.1505 40.8191 15.1777 40.8191 15.2059 40.8191C15.3172 40.8191 15.4283 40.8191 15.5394 40.8191C16.5799 40.8191 17.6206 40.8191 18.6611 40.8189C19.5837 40.8186 20.5063 40.8186 21.4287 40.8189C22.4676 40.8191 23.5062 40.8191 24.5451 40.8191C24.656 40.8191 24.7669 40.8191 24.8777 40.8191C24.9052 40.8191 24.9325 40.8191 24.9607 40.8191C25.3713 40.8189 25.7819 40.8191 26.1927 40.8191C26.6601 40.8194 27.1275 40.8191 27.5949 40.8191C27.8328 40.8189 28.071 40.8189 28.3092 40.8189C28.5276 40.8191 28.7462 40.8191 28.9648 40.8189C29.0432 40.8189 29.1219 40.8189 29.2003 40.8189C29.9012 40.8196 30.6086 40.8186 31.3045 40.7198C31.341 40.7154 31.3775 40.7108 31.4151 40.7062C31.6743 40.671 31.8271 40.6047 32.0127 40.4036C32.3668 40.0643 32.9536 39.9293 33.4136 39.87C33.656 39.8336 33.851 39.745 34.0486 39.5883C34.1322 39.473 34.1322 39.473 34.1953 39.3513C34.3387 39.1966 34.5011 39.0728 34.6722 38.956C34.7195 38.9229 34.7195 38.9229 34.7677 38.8889C35.0548 38.6893 35.0548 38.6893 35.1948 38.6225C35.4436 38.47 35.5723 38.2179 35.6899 37.9462C35.7494 37.8206 35.8235 37.7147 35.9047 37.6045C35.9623 37.5268 35.9623 37.5268 36.0268 37.4095C36.1214 37.2674 36.2344 37.1686 36.3592 37.0588C36.5931 36.8427 36.6573 36.592 36.7031 36.2756C36.7817 35.7396 36.8924 35.0849 37.2974 34.7209C37.4179 34.5681 37.4292 34.4375 37.4506 34.2425C37.4547 34.2104 37.4587 34.1786 37.463 34.1456C37.4752 34.0496 37.486 33.9535 37.4963 33.857C37.4991 33.8328 37.502 33.8085 37.5047 33.7837C37.5306 33.5498 37.5443 33.3169 37.5534 33.0819C37.5549 33.0423 37.5565 33.0027 37.5581 32.9619C37.5736 32.5333 37.5748 32.1046 37.5743 31.6758C37.5743 31.5871 37.5745 31.4987 37.5745 31.4101C37.5748 31.1697 37.5745 30.9292 37.5745 30.6888C37.5745 30.4552 37.5745 30.2218 37.5745 29.9882C37.5748 29.4816 37.5748 28.975 37.5748 28.4687C37.5745 28.0252 37.5745 27.582 37.5745 27.1388C37.5745 27.1092 37.5745 27.0798 37.5745 27.0494C37.5745 26.9295 37.5745 26.8097 37.5748 26.69C37.5748 25.568 37.5748 24.4463 37.5745 23.3246C37.5743 22.3299 37.5743 21.3351 37.5745 20.3404C37.5748 19.2206 37.5748 18.1008 37.5748 16.9811C37.5745 16.8613 37.5745 16.7418 37.5745 16.6224C37.5745 16.5927 37.5745 16.5634 37.5745 16.533C37.5745 16.0903 37.5745 15.6476 37.5748 15.2046C37.5748 14.7007 37.5748 14.1968 37.5745 13.6928C37.5745 13.4362 37.5745 13.1795 37.5745 12.9225C37.5748 12.687 37.5745 12.4514 37.5745 12.2158C37.5743 12.1311 37.5743 12.0463 37.5745 11.9618C37.5752 11.2131 37.5696 10.4617 37.4781 9.71858C37.4731 9.67706 37.4684 9.63529 37.4634 9.5923C37.4492 9.30258 37.4492 9.30258 37.333 9.05997C37.3113 9.04346 37.2895 9.0267 37.2672 9.0097C36.8872 8.67214 36.7804 8.00284 36.7101 7.50014C36.665 7.19172 36.5931 6.88985 36.3635 6.67808C36.3146 6.64117 36.2652 6.60499 36.2154 6.56953C35.934 6.33008 35.7543 5.92063 35.5804 5.58792C35.3929 5.2421 35.145 5.09275 34.8193 4.90988C34.6909 4.83387 34.5969 4.75276 34.4887 4.64687C34.4392 4.60875 34.3894 4.57086 34.3396 4.53322C34.2388 4.45381 34.1732 4.38338 34.1081 4.269C33.9553 4.0276 33.7284 3.95013 33.4706 3.89646C33.3712 3.87704 33.2718 3.85858 33.1724 3.83988C32.7454 3.75755 32.2906 3.61791 31.9578 3.30293C31.9368 3.26238 31.9368 3.26238 31.9154 3.22109C31.8047 3.09627 31.6648 3.09894 31.5109 3.0783C31.4805 3.07368 31.4503 3.06907 31.4189 3.06421C31.3297 3.05086 31.2405 3.03847 31.151 3.02633C31.1093 3.02001 31.0676 3.0137 31.0246 3.00714C30.8283 2.98091 30.6318 2.9729 30.4344 2.96489C30.394 2.96319 30.3537 2.96149 30.3122 2.95979C29.9018 2.944 29.4921 2.94181 29.0815 2.9423C28.9995 2.9423 28.9173 2.94206 28.8352 2.94206C28.6124 2.94181 28.3895 2.94206 28.1668 2.94206C27.9503 2.94206 27.7337 2.94206 27.5171 2.94206C27.0477 2.94181 26.5781 2.94181 26.1086 2.94181C25.6976 2.94206 25.2868 2.94206 24.8757 2.94206C24.8484 2.94206 24.821 2.94206 24.7928 2.94206C24.6817 2.94206 24.5706 2.94206 24.4595 2.94181C23.4195 2.94181 22.3792 2.94181 21.339 2.94206C20.417 2.9423 19.4949 2.9423 18.5729 2.94206C17.5345 2.94181 16.4961 2.94181 15.4578 2.94181C15.347 2.94206 15.2359 2.94206 15.125 2.94206C15.0842 2.94206 15.0842 2.94206 15.0423 2.94206C14.6319 2.94206 14.2215 2.94206 13.8109 2.94181C13.3438 2.94181 12.8766 2.94181 12.4095 2.94206C12.1715 2.94206 11.9335 2.94206 11.6955 2.94206C11.4772 2.94181 11.2586 2.94206 11.0402 2.94206C10.9618 2.9423 10.8833 2.9423 10.8049 2.94206C9.72726 2.94011 9.72726 2.94012 8.65524 3.04357Z" fill="black"/>
<path d="M22.5549 12.5046C22.5824 12.5044 22.6099 12.5044 22.6383 12.5041C22.6967 12.5036 22.7553 12.5034 22.8136 12.5031C22.902 12.5029 22.9903 12.5017 23.0786 12.5005C23.6436 12.4959 23.6436 12.4959 23.8888 12.6314C23.96 12.7761 23.9751 12.9106 23.9853 13.0726C23.9884 13.1202 23.9916 13.1681 23.9947 13.2171C23.9976 13.2667 24.0004 13.3165 24.0035 13.3675C24.0067 13.415 24.0098 13.4624 24.013 13.5115C24.054 14.1764 24.0369 14.8394 24.0058 15.5043C24.0042 15.539 24.0026 15.5738 24.0008 15.6095C23.8624 18.5798 23.8624 18.5798 23.4052 19.3732C22.9847 20.1372 23.1079 21.4508 23.0723 22.3051C22.9333 25.5933 22.9333 25.5933 22.4594 26.4936C22.351 26.7056 22.3154 26.8994 22.291 27.1383C22.2845 27.194 22.2845 27.1939 22.2777 27.2508C22.2642 27.3686 22.2511 27.4866 22.2383 27.6044C22.1024 28.8427 22.1024 28.8427 21.8347 29.1139C21.7152 29.1897 21.5929 29.2528 21.4678 29.3177C21.306 29.425 21.2569 29.5615 21.1861 29.7439C21.0851 29.9639 20.9182 30.0953 20.7083 30.1832C20.5136 30.2434 20.3205 30.2354 20.119 30.2352C20.0449 30.2354 19.9708 30.2369 19.8966 30.2383C19.5922 30.2393 19.3235 30.2262 19.0898 29.9962C18.8117 29.6778 18.7994 29.3327 18.7903 28.9163C18.7892 28.8614 18.7892 28.8614 18.7879 28.8055C18.7112 24.5318 18.7112 24.5318 19.4369 23.338C19.5944 23.0475 19.6014 22.6827 19.6341 22.3549C19.6375 22.3204 19.6408 22.2862 19.6444 22.2507C19.696 21.7084 19.7163 21.1647 19.7373 20.6202C19.872 17.1146 19.872 17.1146 20.332 16.3582C20.46 16.135 20.4922 15.9249 20.5211 15.6675C20.5269 15.6231 20.5326 15.5786 20.5384 15.5327C20.5668 15.311 20.5914 15.0885 20.6159 14.8663C20.6205 14.826 20.625 14.7857 20.6297 14.7442C20.638 14.6689 20.6459 14.5936 20.6531 14.5183C20.6935 14.1455 20.7809 13.8364 21.0585 13.5982C21.157 13.5263 21.2575 13.4694 21.3666 13.4187C21.5039 13.3415 21.5557 13.2431 21.61 13.0908C21.7256 12.8018 21.9039 12.6722 22.1648 12.5522C22.2967 12.5048 22.4177 12.5056 22.5549 12.5046Z" fill="black"/>
</svg>
