<svg width="40" height="44" viewBox="0 0 40 44" fill="none" xmlns="http://www.w3.org/2000/svg">
<path d="M4.56457 0.333992C4.61998 0.333992 4.67445 0.333992 4.72985 0.333992C4.88011 0.333992 5.03036 0.333992 5.18062 0.333992C5.34402 0.333992 5.50742 0.333992 5.67177 0.332981C5.95819 0.332981 6.24462 0.332981 6.53104 0.332981C6.95739 0.332981 7.38374 0.332981 7.81009 0.332981C8.61583 0.332981 9.42252 0.331969 10.2283 0.331969C10.8499 0.331969 11.4726 0.331969 12.0952 0.331969C12.2736 0.331969 12.453 0.331969 12.6324 0.331969C12.6765 0.331969 12.7216 0.331969 12.7676 0.331969C14.0203 0.331969 15.2731 0.331969 16.5258 0.331969C16.5728 0.331969 16.6198 0.331969 16.6686 0.331969C16.9081 0.331969 17.1475 0.331969 17.387 0.331969C17.4584 0.331969 17.4584 0.331969 17.5307 0.331969C17.6265 0.331969 17.7232 0.331969 17.819 0.331969C19.315 0.331969 20.81 0.330957 22.306 0.330957C23.987 0.329945 25.667 0.329945 27.348 0.329945C27.5274 0.329945 27.7067 0.329945 27.8852 0.329945C27.9518 0.329945 27.9518 0.329945 28.0194 0.329945C28.7294 0.329945 29.4394 0.329945 30.1493 0.328933C30.8621 0.328933 31.5758 0.328933 32.2895 0.328933C32.7131 0.328933 33.1366 0.328933 33.5611 0.328933C33.8437 0.328933 34.1273 0.328933 34.4109 0.328933C34.5715 0.328933 34.7331 0.328933 34.8946 0.328933C36.9409 0.324886 36.9409 0.324886 37.4639 0.853076C37.4949 0.887479 37.5259 0.920871 37.5578 0.956286C37.7147 1.12122 37.91 1.22949 38.0988 1.34686C38.126 1.36305 38.1523 1.37924 38.1795 1.39644C38.2331 1.42984 38.2866 1.46222 38.3411 1.49561C38.7524 1.75161 38.9336 2.15534 39.16 2.58841C39.252 2.75942 39.345 2.89197 39.4811 3.02655C40.0286 3.6448 40.0004 4.48363 39.9995 5.29008C39.9995 5.34978 39.9995 5.40847 39.9995 5.46817C39.9995 5.62905 39.9995 5.79095 39.9995 5.95285C39.9995 6.12891 39.9995 6.30497 39.9995 6.48104C39.9995 6.78965 39.9995 7.09726 39.9995 7.40588C39.9995 7.86425 39.9995 8.32363 39.9995 8.78201C39.9995 9.6006 39.9995 10.4202 39.9995 11.2388C39.9995 11.9562 39.9995 12.6726 39.9995 13.39C39.9995 13.4376 39.9995 13.4851 39.9995 13.5337C39.9995 13.727 39.9995 13.9202 39.9995 14.1125C39.9995 15.9237 39.9995 17.7339 39.9995 19.5452C39.9995 21.154 39.9995 22.7629 39.9995 24.3707C39.9995 26.1789 39.9995 27.9861 39.9995 29.7933C39.9995 29.9855 39.9995 30.1788 39.9995 30.371C39.9995 30.4186 39.9995 30.4662 39.9995 30.5147C39.9995 31.2311 39.9995 31.9475 39.9995 32.6639C39.9995 33.4785 39.9995 34.293 39.9995 35.1075C39.9995 35.5639 39.9995 36.0192 39.9995 36.4756C39.9995 36.7802 39.9995 37.0847 39.9995 37.3893C39.9995 37.5623 39.9995 37.7364 39.9995 37.9094C39.9995 38.0672 39.9995 38.2251 39.9995 38.3839C39.9995 38.4406 39.9995 38.4963 39.9995 38.5529C40.0004 39.3715 39.9835 40.1759 39.4445 40.8134C39.4173 40.8326 39.39 40.8509 39.3628 40.8711C39.2107 41.0219 39.1327 41.208 39.0388 41.4033C38.7458 42.0084 38.7458 42.0084 38.5204 42.145C38.4894 42.1643 38.4575 42.1845 38.4246 42.2047C38.3861 42.228 38.3476 42.2513 38.3073 42.2756C38.1993 42.3423 38.0922 42.4091 37.9842 42.4759C37.957 42.4921 37.9307 42.5083 37.9034 42.5255C37.7466 42.6226 37.6245 42.7238 37.5006 42.8685C36.9371 43.4483 36.1774 43.4281 35.4402 43.4271C35.3848 43.4271 35.3303 43.4271 35.2749 43.4271C35.1247 43.4271 34.9744 43.4271 34.8241 43.4271C34.6607 43.4271 34.4973 43.4271 34.333 43.4281C34.0466 43.4281 33.7601 43.4281 33.4737 43.4281C33.0474 43.4281 32.621 43.4281 32.1947 43.4281C31.3889 43.4281 30.5822 43.4291 29.7765 43.4291C29.1548 43.4291 28.5322 43.4291 27.9096 43.4291C27.7311 43.4291 27.5518 43.4291 27.3724 43.4291C27.3283 43.4291 27.2832 43.4291 27.2372 43.4291C25.9844 43.4291 24.7317 43.4291 23.4789 43.4291C23.4085 43.4291 23.4085 43.4291 23.3362 43.4291C23.0967 43.4291 22.8572 43.4291 22.6178 43.4291C22.5708 43.4291 22.5229 43.4291 22.4741 43.4291C22.3783 43.4291 22.2816 43.4291 22.1858 43.4291C20.6898 43.4291 19.1948 43.4301 17.6988 43.4301C16.0178 43.4311 14.3377 43.4311 12.6568 43.4311C12.4774 43.4311 12.298 43.4311 12.1196 43.4311C12.0529 43.4311 12.0529 43.4311 11.9853 43.4311C11.2754 43.4311 10.5654 43.4311 9.85544 43.4321C9.14267 43.4321 8.42895 43.4321 7.71524 43.4321C7.29171 43.4321 6.86818 43.4321 6.4437 43.4321C6.16104 43.4321 5.87743 43.4321 5.59382 43.4321C5.43324 43.4321 5.27171 43.4321 5.11019 43.4321C3.0639 43.4362 3.0639 43.4362 2.54082 42.908C2.4948 42.8564 2.4948 42.8564 2.44691 42.8048C2.29008 42.6398 2.09475 42.5316 1.90599 42.4142C1.87876 42.398 1.85246 42.3818 1.82523 42.3646C1.7717 42.3312 1.71817 42.2988 1.6637 42.2654C1.25238 42.0094 1.07113 41.6057 0.84481 41.1726C0.752778 41.0016 0.659808 40.8691 0.523639 40.7345C-0.0238546 40.1163 0.00431826 39.2774 0.00525736 38.471C0.00525736 38.4113 0.00525736 38.3526 0.00525736 38.2929C0.00525736 38.131 0.00525736 37.9701 0.00525736 37.8082C0.00525736 37.6321 0.00525742 37.4561 0.00431833 37.28C0.00431833 36.9714 0.00431833 36.6628 0.00431833 36.3542C0.00431833 35.8948 0.00431833 35.4364 0.00431833 34.978C0.00431833 34.1109 0.0033793 33.2437 0.0033793 32.3765C0.0033793 31.7067 0.0033793 31.0368 0.0033793 30.368C0.0033793 30.1747 0.0033793 29.9815 0.0033793 29.7892C0.0033793 29.7417 0.0033793 29.6931 0.0033793 29.6435C0.0033793 28.2957 0.0033793 26.9479 0.0033793 25.5991C0.0033793 25.5485 0.0033793 25.4979 0.0033793 25.4453C0.0033793 25.1883 0.0033793 24.9303 0.0033793 24.6733C0.0033793 24.6217 0.0033793 24.5711 0.0033793 24.5174C0.0033793 24.4142 0.0033793 24.311 0.0033793 24.2078C0.0033793 22.5979 0.00244027 20.9891 0.00244027 19.3792C0.00150117 17.571 0.00150124 15.7618 0.00150124 13.9536C0.00150124 13.7604 0.00150124 13.5681 0.00150124 13.3748C0.00150124 13.3273 0.00150124 13.2797 0.00150124 13.2312C0.00150124 12.4672 0.00150131 11.7032 0.000562213 10.9393C0.000562213 10.1713 0.000562213 9.4043 0.000562213 8.6363C0.000562213 8.17995 0.000562213 7.72461 0.000562213 7.26826C0.000562213 6.96369 0.000562213 6.65811 0.000562213 6.35354C0.000562213 6.18052 0.000562213 6.00648 0.000562213 5.83345C-0.00319417 3.62861 -0.00319447 3.62861 0.523639 2.98709C0.579045 2.94054 0.579045 2.94054 0.635391 2.89298C0.794098 2.74019 0.869226 2.54794 0.965953 2.34658C1.13781 1.99142 1.289 1.71518 1.62426 1.52495C1.69845 1.48043 1.77358 1.43591 1.84777 1.39139C1.89942 1.36103 1.95107 1.33067 2.00272 1.30032C2.15861 1.20925 2.27224 1.11211 2.39432 0.971464C3.03197 0.345123 3.73535 0.332981 4.56457 0.333992ZM4.92331 2.98C4.87353 2.98405 4.87353 2.98405 4.82282 2.98911C4.58711 3.01238 4.35515 3.05185 4.1786 3.23499C4.14292 3.28457 4.14292 3.28457 4.10723 3.33517C3.99172 3.4829 3.89594 3.57397 3.73535 3.65896C3.38319 3.84919 3.17001 4.13454 2.99722 4.50892C2.90707 4.6779 2.77559 4.7973 2.61407 4.88432C2.51265 5.12616 2.47884 5.34978 2.461 5.61286C2.45818 5.65435 2.45536 5.69482 2.45254 5.73732C2.4178 6.27765 2.42061 6.81799 2.42155 7.35933C2.42155 7.52022 2.42155 7.6811 2.42155 7.84199C2.42061 8.12227 2.42061 8.40357 2.42155 8.68487C2.42155 9.10277 2.42155 9.52066 2.42155 9.93856C2.42061 10.6853 2.42061 11.4311 2.42061 12.1778C2.42155 12.8315 2.42155 13.4851 2.42155 14.1378C2.42155 14.1813 2.42155 14.2248 2.42155 14.2693C2.42155 14.4464 2.42155 14.6225 2.42155 14.7985C2.42061 16.4509 2.42061 18.1022 2.42155 19.7546C2.42155 21.2208 2.42155 22.687 2.42155 24.1532C2.42061 25.8025 2.42061 27.4508 2.42155 29.1001C2.42155 29.2762 2.42155 29.4523 2.42155 29.6283C2.42155 29.6718 2.42155 29.7143 2.42155 29.7599C2.42155 30.4125 2.42155 31.0652 2.42061 31.7178C2.42061 32.4605 2.42061 33.2032 2.42155 33.9459C2.42155 34.3608 2.42155 34.7757 2.42155 35.1915C2.42061 35.4688 2.42155 35.747 2.42155 36.0243C2.42155 36.1821 2.42155 36.34 2.42155 36.4978C2.42061 37.0422 2.42061 37.5856 2.461 38.1279C2.46381 38.1634 2.46663 38.1988 2.46945 38.2362C2.49105 38.4902 2.52767 38.7401 2.69765 38.9304C2.72864 38.9557 2.75963 38.9809 2.79062 39.0073C2.92773 39.1317 3.01224 39.2349 3.09113 39.408C3.26017 39.7712 3.51278 40.0151 3.85461 40.181C4.00863 40.2569 4.09878 40.3419 4.18236 40.4997C4.32228 40.696 4.54109 40.7315 4.76178 40.7628C4.82282 40.7689 4.88386 40.775 4.94491 40.781C4.99656 40.7851 4.99656 40.7851 5.04915 40.7901C5.53748 40.8296 6.02674 40.8246 6.51601 40.8235C6.66533 40.8235 6.81465 40.8235 6.96396 40.8235C7.22503 40.8246 7.4861 40.8246 7.74717 40.8235C8.13502 40.8235 8.52286 40.8235 8.91165 40.8235C9.6047 40.8246 10.2978 40.8246 10.9908 40.8246C11.5975 40.8235 12.2041 40.8235 12.8108 40.8235C12.8718 40.8235 12.8718 40.8235 12.9338 40.8235C13.0972 40.8235 13.2606 40.8235 13.424 40.8235C14.9585 40.8246 16.492 40.8246 18.0256 40.8235C19.3873 40.8235 20.749 40.8235 22.1107 40.8235C23.6414 40.8246 25.1721 40.8246 26.7038 40.8235C26.8672 40.8235 27.0306 40.8235 27.194 40.8235C27.2541 40.8235 27.2541 40.8235 27.3151 40.8235C27.9218 40.8235 28.5275 40.8235 29.1342 40.8246C29.8235 40.8246 30.5127 40.8246 31.203 40.8235C31.588 40.8235 31.974 40.8235 32.359 40.8235C32.6173 40.8246 32.8755 40.8235 33.1328 40.8235C33.2793 40.8235 33.4268 40.8235 33.5733 40.8235C34.317 40.8256 34.317 40.8256 35.0599 40.781C35.0918 40.778 35.1228 40.775 35.1547 40.7719C35.3773 40.7487 35.6449 40.7153 35.8093 40.5422C35.8309 40.5028 35.8309 40.5028 35.8515 40.4623C35.982 40.2498 36.1501 40.1537 36.3605 40.0485C36.6817 39.8633 36.862 39.5688 37.0075 39.2208C37.0949 39.0427 37.2273 38.9465 37.3747 38.8312C37.7654 38.2838 37.5841 37.0685 37.5832 36.4169C37.5832 36.256 37.5832 36.0951 37.5832 35.9342C37.5841 35.6529 37.5841 35.3727 37.5832 35.0914C37.5832 34.6735 37.5832 34.2556 37.5832 33.8367C37.5841 33.0899 37.5841 32.3432 37.5841 31.5964C37.5832 30.9427 37.5832 30.2891 37.5832 29.6354C37.5832 29.5919 37.5832 29.5484 37.5832 29.5039C37.5832 29.3278 37.5832 29.1517 37.5832 28.9757C37.5841 27.3223 37.5841 25.6699 37.5832 24.0176C37.5832 22.5514 37.5832 21.0842 37.5832 19.617C37.5841 17.9677 37.5841 16.3183 37.5832 14.669C37.5832 14.4929 37.5832 14.3169 37.5832 14.1408C37.5832 14.0983 37.5832 14.0548 37.5832 14.0103C37.5832 13.3566 37.5832 12.704 37.5841 12.0513C37.5841 11.3076 37.5841 10.5649 37.5832 9.8222C37.5832 9.40734 37.5832 8.99146 37.5832 8.5766C37.5841 8.29834 37.5832 8.02008 37.5832 7.74283C37.5832 7.58396 37.5832 7.42611 37.5832 7.26826C37.5841 6.71579 37.5832 6.16433 37.5456 5.61286C37.5438 5.57542 37.5409 5.53798 37.5391 5.49953C37.5175 5.22836 37.4574 4.99563 37.2752 4.79933C37.248 4.77808 37.2207 4.75582 37.1935 4.73356C37.0639 4.6182 36.9897 4.51803 36.9155 4.35613C36.738 3.97669 36.477 3.74801 36.1285 3.56284C35.9943 3.47582 35.9107 3.36148 35.8186 3.22589C35.6214 3.02351 35.3406 3.00227 35.0815 2.98C35.0448 2.97697 35.0082 2.97393 34.9706 2.9709C34.4757 2.93245 33.9799 2.93649 33.4841 2.93751C33.3347 2.93751 33.1854 2.93751 33.0361 2.93751C32.776 2.93649 32.5149 2.93649 32.2538 2.93751C31.866 2.93751 31.4781 2.93751 31.0903 2.93751C30.3972 2.93649 29.7042 2.93649 29.0111 2.93649C28.4045 2.93751 27.7978 2.93751 27.1912 2.93751C27.1508 2.93751 27.1113 2.93751 27.0691 2.93751C26.9057 2.93751 26.7423 2.93751 26.5789 2.93751C25.0453 2.93649 23.5118 2.93649 21.9782 2.93751C20.6175 2.93751 19.2567 2.93751 17.895 2.93751C16.3643 2.93649 14.8336 2.93649 13.3029 2.93751C13.1395 2.93751 12.977 2.93751 12.8136 2.93751C12.7732 2.93751 12.7328 2.93751 12.6915 2.93751C12.0858 2.93751 11.4791 2.93751 10.8734 2.93649C10.1841 2.93649 9.49483 2.93649 8.80553 2.93751C8.4205 2.93751 8.03453 2.93751 7.6495 2.93751C7.39125 2.93649 7.13394 2.93751 6.87569 2.93751C6.72919 2.93751 6.58269 2.93751 6.43619 2.93751C5.93096 2.93649 5.4276 2.93649 4.92331 2.98Z" fill="black"/>
<path d="M15.7051 15.5109C15.7634 15.5109 15.8216 15.5109 15.8798 15.5109C16.0376 15.5109 16.1944 15.5099 16.3512 15.5099C16.4498 15.5099 16.5484 15.5099 16.647 15.5099C16.9908 15.5099 17.3345 15.5099 17.6791 15.5099C17.9984 15.5099 18.3177 15.5088 18.637 15.5088C18.9131 15.5078 19.1882 15.5078 19.4634 15.5078C19.6277 15.5078 19.7911 15.5078 19.9555 15.5068C20.1095 15.5068 20.2644 15.5068 20.4185 15.5068C20.4748 15.5068 20.5311 15.5068 20.5875 15.5068C21.5576 15.5028 21.5576 15.5028 21.8722 15.7932C22.0177 15.95 22.0938 16.1058 22.1661 16.3092C22.2018 16.3993 22.2018 16.3993 22.3126 16.4651C22.5192 16.457 22.692 16.3912 22.8629 16.2677C22.9071 16.2101 22.9512 16.1524 22.9935 16.0927C23.4508 15.5554 24.3307 15.5463 24.9534 15.5169C25.1675 15.5099 25.3806 15.5099 25.5948 15.5099C25.6549 15.5099 25.715 15.5099 25.776 15.5099C25.9018 15.5099 26.0277 15.5099 26.1535 15.5099C26.2812 15.5099 26.408 15.5088 26.5357 15.5088C29.0638 15.4977 29.0638 15.4977 29.5756 15.9915C29.661 16.0947 29.661 16.0947 29.723 16.1888C29.8526 16.3689 29.9982 16.3932 30.1945 16.4408C31.0875 16.6765 31.0875 16.6765 31.3364 17.058C31.3627 17.1116 31.3871 17.1663 31.4096 17.2219C31.5148 17.4678 31.7055 17.5558 31.9261 17.6661C32.236 17.8301 32.3534 18.081 32.4962 18.4119C32.5422 18.511 32.5957 18.59 32.6577 18.679V18.7579C32.6887 18.765 32.7197 18.7731 32.7516 18.7802C33.0249 18.9036 33.1648 19.1333 33.2766 19.4217C33.3404 19.618 33.3846 19.8194 33.4287 20.0217C33.471 20.217 33.5273 20.4062 33.5846 20.5965C33.6109 20.6946 33.6109 20.6946 33.6109 20.7736C33.6494 20.7847 33.6494 20.7847 33.6888 20.7958C33.9086 20.9142 34.0391 21.1368 34.1293 21.3776C34.6176 23.0249 34.3875 25.0254 34.3866 26.7364C34.3866 26.954 34.3866 27.1705 34.3866 27.3871C34.3866 27.4346 34.3866 27.4346 34.3866 27.4822C34.3866 27.5459 34.3866 27.6087 34.3866 27.6724C34.3866 28.2633 34.3866 28.8532 34.3866 29.4432C34.3856 29.9481 34.3856 30.453 34.3866 30.9579C34.3866 31.5478 34.3866 32.1377 34.3866 32.7277C34.3866 32.7904 34.3866 32.8541 34.3866 32.9169C34.3866 32.9472 34.3866 32.9786 34.3866 33.011C34.3866 33.2275 34.3866 33.444 34.3866 33.6606C34.3866 33.9247 34.3866 34.1888 34.3866 34.4529C34.3866 34.5875 34.3866 34.722 34.3866 34.8556C34.3875 36.6729 34.3875 36.6729 34.1246 37.0189C33.5968 37.5826 32.5168 37.3802 31.8294 37.3802C31.6876 37.3802 31.5468 37.3802 31.4049 37.3802C31.1674 37.3802 30.9298 37.3802 30.6922 37.3802C30.4189 37.3792 30.1456 37.3792 29.8733 37.3802C29.6366 37.3802 29.4009 37.3802 29.1643 37.3802C29.0243 37.3802 28.8844 37.3802 28.7435 37.3802C26.8738 37.3812 26.8738 37.3812 26.531 37.0189C26.1075 36.4655 26.269 35.3322 26.2681 34.6654C26.2681 34.5692 26.2672 34.4731 26.2672 34.378C26.2672 34.1736 26.2662 33.9692 26.2662 33.7638C26.2653 33.4673 26.2643 33.1709 26.2634 32.8744C26.2625 32.3927 26.2615 31.9111 26.2596 31.4284C26.2596 31.4001 26.2596 31.3707 26.2596 31.3414C26.2587 30.9336 26.2578 30.5248 26.2568 30.1171C26.2568 30.0877 26.2568 30.0594 26.2568 30.03C26.2568 29.9865 26.2568 29.9865 26.2568 29.943C26.2559 29.4624 26.254 28.9817 26.2531 28.5011C26.2521 28.232 26.2512 27.9628 26.2512 27.6937C26.2512 27.4407 26.2502 27.1877 26.2493 26.9348C26.2493 26.8427 26.2484 26.7496 26.2484 26.6575C26.2963 25.6436 26.2963 25.6436 25.9695 24.7441C25.9366 24.7117 25.9047 24.6803 25.8709 24.6469C25.8352 24.5984 25.8014 24.5488 25.7676 24.4992C25.6877 24.3798 25.6013 24.2746 25.5065 24.1683C25.3947 24.0398 25.3365 23.9265 25.2811 23.7606C25.2248 23.6027 25.1731 23.4621 25.0275 23.3821C24.5721 23.2192 24.095 23.2445 23.6283 23.3234C23.5935 23.3285 23.5588 23.3346 23.5222 23.3406C23.4367 23.3538 23.3513 23.368 23.2667 23.3821C23.2592 23.4084 23.2527 23.4347 23.2461 23.4621C23.14 23.8567 22.9747 24.142 22.7145 24.4426C22.6235 24.5518 22.5455 24.6682 22.4676 24.7886C22.4525 24.8068 22.4375 24.826 22.4225 24.8453H22.3492C22.3445 24.8716 22.3398 24.8979 22.3342 24.9242C22.276 25.2399 22.276 25.2399 22.2572 25.3289C22.1633 25.8855 22.1962 26.4764 22.1952 27.04C22.1952 27.1361 22.1952 27.2322 22.1943 27.3294C22.1943 27.5358 22.1933 27.7422 22.1933 27.9486C22.1924 28.2482 22.1915 28.5477 22.1905 28.8472C22.1887 29.3339 22.1877 29.8206 22.1858 30.3073C22.1858 30.3366 22.1858 30.365 22.1858 30.3953C22.1849 30.6311 22.1849 30.8668 22.184 31.1016C22.183 31.308 22.183 31.5134 22.1821 31.7198C22.1821 31.7492 22.1821 31.7775 22.1821 31.8079C22.1811 32.2926 22.1793 32.7782 22.1774 33.2629C22.1764 33.5614 22.1755 33.8599 22.1755 34.1584C22.1746 34.3871 22.1736 34.6158 22.1736 34.8445C22.1727 34.9386 22.1727 35.0317 22.1727 35.1247C22.1699 36.7134 22.1699 36.7134 21.9135 37.023C21.3585 37.5734 20.3189 37.3802 19.6137 37.3802C19.4718 37.3802 19.331 37.3802 19.1892 37.3802C18.9516 37.3802 18.714 37.3802 18.4764 37.3802C18.2031 37.3792 17.9308 37.3792 17.6575 37.3802C17.4209 37.3802 17.1851 37.3802 16.9494 37.3802C16.8086 37.3802 16.6686 37.3802 16.5278 37.3802C14.7801 37.3812 14.7801 37.3812 14.3885 37.0979C13.9903 36.6567 14.0899 35.9646 14.0908 35.3969C14.0908 35.317 14.0908 35.2361 14.0899 35.1551C14.0899 34.9335 14.0899 34.7129 14.0899 34.4913C14.0899 34.2535 14.0899 34.0147 14.0899 33.7759C14.0899 33.3085 14.0889 32.841 14.0889 32.3735C14.0889 31.993 14.0889 31.6136 14.0889 31.2331C14.0889 31.1239 14.0889 31.0146 14.0889 30.9053C14.0889 30.878 14.0889 30.8507 14.0889 30.8223C14.0889 30.0574 14.0889 29.2924 14.0889 28.5264C14.0889 28.4839 14.0889 28.4839 14.0889 28.4394C14.0889 28.2937 14.0889 28.147 14.0889 28.0013C14.0889 27.9719 14.0889 27.9426 14.0889 27.9132C14.0889 27.8545 14.0889 27.7958 14.0889 27.7372C14.0889 26.8235 14.088 25.9108 14.088 24.9981C14.0871 23.971 14.0871 22.945 14.0871 21.918C14.0871 21.8087 14.0871 21.6994 14.0871 21.5891C14.0871 21.5628 14.0871 21.5355 14.0871 21.5082C14.0871 21.0741 14.0871 20.641 14.0861 20.2079C14.0861 19.7718 14.0861 19.3367 14.0861 18.9006C14.0861 18.6648 14.0861 18.4291 14.0861 18.1933C14.0861 17.9768 14.0861 17.7602 14.0861 17.5447C14.0861 17.4668 14.0861 17.3889 14.0861 17.311C14.0833 16.1645 14.0833 16.1645 14.32 15.8286C14.6853 15.438 15.2309 15.5109 15.7051 15.5109ZM16.5165 18.3228C16.4893 18.4544 16.4893 18.4544 16.493 18.6001C16.493 18.6274 16.493 18.6547 16.493 18.683C16.4921 18.7761 16.493 18.8682 16.493 18.9613C16.493 19.0281 16.493 19.0949 16.4921 19.1617C16.4921 19.3458 16.4921 19.529 16.493 19.7131C16.493 19.9114 16.4921 20.1098 16.4921 20.3081C16.4912 20.6966 16.4912 21.0852 16.4921 21.4738C16.4921 21.7895 16.4921 22.1052 16.4921 22.4209C16.4921 22.4664 16.4921 22.5109 16.4921 22.5575C16.4921 22.6485 16.4921 22.7396 16.4921 22.8307C16.4912 23.6867 16.4921 24.5417 16.493 25.3977C16.494 26.1324 16.493 26.866 16.493 27.6006C16.4921 28.4536 16.4912 29.3055 16.4921 30.1585C16.4921 30.2496 16.4921 30.3397 16.4921 30.4307C16.4921 30.4753 16.4921 30.5208 16.4921 30.5663C16.4921 30.882 16.4921 31.1977 16.4912 31.5124C16.4912 31.8969 16.4912 32.2814 16.4921 32.6659C16.493 32.8612 16.493 33.0575 16.4921 33.2538C16.4921 33.4329 16.4921 33.613 16.493 33.7921C16.493 33.8569 16.493 33.9227 16.493 33.9874C16.4921 34.0755 16.493 34.1635 16.493 34.2515C16.494 34.3011 16.494 34.3497 16.494 34.4003C16.5231 34.5652 16.5785 34.6239 16.6996 34.7261C16.8011 34.7453 16.8799 34.7534 16.9814 34.7514C17.0227 34.7514 17.0227 34.7514 17.0649 34.7524C17.156 34.7524 17.2471 34.7524 17.3382 34.7514C17.4021 34.7514 17.4659 34.7514 17.5289 34.7514C17.6622 34.7514 17.7956 34.7514 17.928 34.7504C18.0989 34.7483 18.2689 34.7493 18.4398 34.7493C18.5703 34.7504 18.7018 34.7493 18.8333 34.7493C18.8962 34.7493 18.9591 34.7493 19.0211 34.7493C19.1094 34.7493 19.1967 34.7483 19.285 34.7473C19.3113 34.7473 19.3366 34.7483 19.3639 34.7483C19.4747 34.7463 19.5479 34.7362 19.6409 34.6684C19.7395 34.5207 19.7282 34.3922 19.7273 34.2151C19.7273 34.1604 19.7273 34.1604 19.7273 34.1058C19.7282 33.9844 19.7282 33.863 19.7273 33.7415C19.7273 33.6545 19.7282 33.5675 19.7282 33.4805C19.7292 33.2437 19.7292 33.0069 19.7292 32.7702C19.7292 32.5212 19.7301 32.2733 19.731 32.0244C19.732 31.6065 19.7329 31.1876 19.7329 30.7687C19.7329 30.3407 19.7339 29.9127 19.7348 29.4846C19.7348 29.4583 19.7348 29.432 19.7348 29.4047C19.7348 29.1173 19.7357 28.829 19.7367 28.5416C19.7367 28.491 19.7367 28.4394 19.7367 28.3878C19.7367 28.2856 19.7367 28.1844 19.7376 28.0822C19.7376 27.7878 19.7386 27.4923 19.7386 27.1978C19.7395 25.5475 19.7395 25.5475 19.7602 24.8817C19.762 24.8392 19.763 24.7967 19.7648 24.7522C19.8174 23.3224 19.8174 23.3224 20.1846 22.948C20.2391 22.9116 20.2936 22.8762 20.348 22.8418C20.5725 22.686 20.6457 22.4725 20.734 22.2094C20.826 21.9392 20.9218 21.7976 21.1632 21.6711C21.2317 21.6377 21.3012 21.6043 21.3707 21.5729C21.4693 21.5243 21.5604 21.4687 21.6524 21.406C21.6496 21.3584 21.6393 21.2066 21.6383 21.1783C21.6036 21.0417 21.5698 20.9871 21.4693 20.8919C21.3256 20.8535 21.1819 20.8413 21.0354 20.8282C20.6016 20.7867 20.3659 20.7321 20.0757 20.3627C19.7263 19.877 19.7292 19.2811 19.732 18.6922C19.731 18.6476 19.731 18.6021 19.7301 18.5566C19.7301 18.5161 19.7301 18.4766 19.7301 18.4351C19.6991 18.2783 19.639 18.2247 19.5244 18.1255C19.4249 18.1063 19.3469 18.0982 19.2474 18.1002C19.2202 18.0992 19.1929 18.0992 19.1648 18.0992C19.0746 18.0982 18.9854 18.0982 18.8952 18.0992C18.8323 18.0992 18.7703 18.0992 18.7074 18.0992C18.5759 18.0982 18.4454 18.0992 18.3139 18.1002C18.1458 18.1012 17.9787 18.1002 17.8106 18.0992C17.681 18.0982 17.5514 18.0982 17.4227 18.0992C17.3608 18.0992 17.2988 18.0992 17.2368 18.0982C17.1504 18.0982 17.064 18.0992 16.9776 18.1002C16.9513 18.0992 16.926 18.0992 16.8997 18.0992C16.7081 18.1033 16.6339 18.165 16.5165 18.3228ZM25.4492 18.1974C25.406 18.2014 25.406 18.2014 25.3628 18.2055C25.1121 18.2358 24.9139 18.3087 24.7364 18.511C24.4171 18.8257 24.0143 18.9542 23.5992 19.0392C23.2395 19.106 23.2395 19.106 22.9362 19.3114C22.9014 19.3721 22.8686 19.4359 22.8376 19.4986C22.7089 19.7587 22.4967 19.8781 22.2685 20.0207C22.1671 20.0845 22.0675 20.1543 21.9689 20.2231C21.9126 20.2615 21.8553 20.3 21.7989 20.3395C21.8515 20.4923 21.8872 20.5692 22.0187 20.6552C22.2525 20.7391 22.4976 20.6966 22.7371 20.6582C23.2958 20.5712 23.8762 20.5611 24.4406 20.5762C24.4707 20.5773 24.5016 20.5772 24.5336 20.5783C26.1423 20.6187 26.1423 20.6187 26.4944 20.9648C26.594 21.0822 26.6738 21.2016 26.7517 21.3372C26.8992 21.5567 27.1283 21.6276 27.3593 21.7095C27.5969 21.8492 27.6758 22.095 27.7688 22.3521C27.8843 22.6516 27.9979 22.8135 28.2552 22.9875C28.6891 23.4236 28.6684 24.2604 28.6919 24.8584C28.7032 25.2116 28.7004 25.5657 28.7004 25.9189C28.7004 26.013 28.7004 26.1071 28.7004 26.2012C28.7004 26.4025 28.7004 26.6029 28.7004 26.8042C28.7004 27.122 28.7013 27.4397 28.7013 27.7574C28.7013 27.812 28.7022 27.8657 28.7022 27.9203C28.7022 28.0023 28.7022 28.0852 28.7022 28.1672C28.7032 28.4758 28.7032 28.7844 28.7041 29.0931C28.7041 29.1356 28.7041 29.1356 28.7041 29.1781C28.705 29.6364 28.705 30.0938 28.705 30.5522C28.705 31.0237 28.705 31.4942 28.7069 31.9657C28.7069 32.2298 28.7079 32.4939 28.7069 32.758C28.7069 33.0059 28.7069 33.2538 28.7079 33.5017C28.7088 33.5928 28.7088 33.6839 28.7079 33.7749C28.7079 33.8984 28.7079 34.0228 28.7088 34.1463C28.7088 34.1827 28.7079 34.2191 28.7079 34.2566C28.7097 34.4316 28.7163 34.5065 28.8168 34.6502C28.9436 34.7483 29.0459 34.7544 29.1971 34.7514C29.2244 34.7514 29.2525 34.7524 29.2807 34.7524C29.3718 34.7524 29.4629 34.7524 29.554 34.7514C29.6178 34.7514 29.6817 34.7514 29.7446 34.7514C29.878 34.7514 30.0104 34.7514 30.1437 34.7504C30.3147 34.7483 30.4846 34.7493 30.6556 34.7493C30.7861 34.7504 30.9176 34.7493 31.0481 34.7493C31.111 34.7493 31.1739 34.7493 31.2369 34.7493C31.3251 34.7493 31.4125 34.7483 31.5007 34.7473C31.5261 34.7473 31.5524 34.7483 31.5787 34.7483C31.6895 34.7463 31.7637 34.7362 31.8567 34.6694C31.9571 34.5176 31.944 34.38 31.9421 34.1969C31.9421 34.1402 31.9421 34.1402 31.9421 34.0815C31.9431 33.954 31.9421 33.8265 31.9412 33.698C31.9412 33.607 31.9421 33.5149 31.9421 33.4238C31.9421 33.1739 31.9421 32.925 31.9412 32.676C31.9402 32.4403 31.9402 32.2055 31.9402 31.9698C31.9402 31.5033 31.9402 31.0358 31.9384 30.5683C31.9374 30.1181 31.9374 29.6668 31.9374 29.2155C31.9374 29.1882 31.9374 29.1608 31.9374 29.1325C31.9374 29.091 31.9374 29.091 31.9374 29.0485C31.9374 28.5588 31.9365 28.0701 31.9365 27.5803C31.9365 27.3739 31.9355 27.1665 31.9355 26.959C31.9384 25.4787 31.9384 25.4787 31.8585 24.0024C31.8482 23.8698 31.8398 23.7383 31.8313 23.6057C31.8106 23.3416 31.7505 23.1838 31.5862 22.9885C31.2725 22.606 31.1749 22.005 31.08 21.5173C30.9889 20.9729 30.9889 20.9729 30.7128 20.5368H30.6396C30.6311 20.5135 30.6217 20.4902 30.6124 20.4659C30.5579 20.3627 30.5006 20.3182 30.4104 20.2504C30.1522 20.04 30.0113 19.8052 29.8977 19.4814C29.7343 19.2527 29.3859 19.1839 29.1398 19.0939C29.076 19.0696 29.0112 19.0453 28.9464 19.022C28.844 18.9836 28.7417 18.9461 28.6393 18.9087C28.429 18.8298 28.2346 18.7539 28.0871 18.5647C27.7782 18.1984 27.3049 18.1812 26.8719 18.1579C26.3967 18.1427 25.9216 18.1508 25.4492 18.1974Z" fill="black"/>
<path d="M7.26873 15.5109C7.32695 15.5109 7.38518 15.5109 7.4434 15.5109C7.60023 15.5109 7.758 15.5099 7.91483 15.5099C8.01343 15.5099 8.1111 15.5099 8.2097 15.5099C8.55435 15.5099 8.89806 15.5099 9.24177 15.5099C9.562 15.5099 9.88129 15.5089 10.2006 15.5089C10.4757 15.5078 10.7509 15.5078 11.027 15.5078C11.1904 15.5078 11.3547 15.5078 11.5191 15.5068C11.6731 15.5068 11.8271 15.5068 11.9821 15.5068C12.0384 15.5068 12.0947 15.5068 12.1511 15.5068C13.155 15.5028 13.155 15.5028 13.4724 15.8327C13.6339 16.0937 13.6884 16.3467 13.7034 16.6553C13.7072 16.7201 13.7072 16.7201 13.7109 16.7868C13.7476 17.4951 13.7391 18.2055 13.7391 18.9148C13.7382 19.1374 13.7391 19.36 13.7391 19.5826C13.7391 20.0177 13.7391 20.4528 13.7391 20.8879C13.7391 21.242 13.7391 21.5962 13.7391 21.9504C13.7391 22.0009 13.7391 22.0515 13.7391 22.1031C13.7391 22.2064 13.7391 22.3086 13.7391 22.4118C13.7391 23.3457 13.7391 24.2797 13.7382 25.2136C13.7382 26.0646 13.7382 26.9145 13.7382 27.7645C13.7391 28.7227 13.7391 29.681 13.7391 30.6392C13.7391 30.7424 13.7391 30.8446 13.7391 30.9468C13.7391 31.0227 13.7391 31.0227 13.7391 31.0996C13.7391 31.4527 13.7391 31.8059 13.7391 32.159C13.7391 32.589 13.7391 33.0201 13.7391 33.4511C13.7391 33.6707 13.7382 33.8903 13.7391 34.1099C13.74 35.6206 13.74 35.6206 13.7034 36.2166C13.7006 36.2722 13.7006 36.2722 13.6978 36.3289C13.6734 36.6304 13.5785 36.933 13.3625 37.1373C12.7906 37.5482 11.8384 37.3802 11.1782 37.3802C11.0373 37.3802 10.8955 37.3802 10.7537 37.3802C10.5171 37.3802 10.2795 37.3802 10.0419 37.3802C9.7686 37.3792 9.49626 37.3792 9.22393 37.3802C8.98727 37.3802 8.75156 37.3802 8.51585 37.3802C8.37592 37.3802 8.23506 37.3802 8.09513 37.3802C6.2207 37.3812 6.2207 37.3812 5.86478 37.0149C5.49102 36.5444 5.61686 35.5973 5.6178 35.0104C5.61686 34.9335 5.61686 34.8566 5.61686 34.7787C5.61686 34.5682 5.61686 34.3568 5.61686 34.1463C5.61686 33.9176 5.61686 33.6899 5.61686 33.4623C5.61686 33.016 5.61686 32.5698 5.61686 32.1236C5.61686 31.7603 5.61686 31.3981 5.61686 31.0348C5.61686 30.9832 5.61686 30.9316 5.61686 30.878C5.61686 30.7738 5.61686 30.6685 5.61686 30.5633C5.61686 29.6071 5.61686 28.6509 5.61686 27.6947C5.6178 26.8225 5.6178 25.9502 5.61686 25.079C5.61686 24.0975 5.61686 23.117 5.61686 22.1365C5.61686 22.0313 5.61686 21.9271 5.61686 21.8218C5.61686 21.7702 5.61686 21.7196 5.61686 21.666C5.61686 21.3038 5.61686 20.9415 5.61686 20.5803C5.61686 20.1381 5.61686 19.6969 5.61686 19.2548C5.61686 19.0301 5.61686 18.8045 5.61686 18.5798C5.61686 18.3734 5.61686 18.167 5.61686 17.9606C5.6178 17.8857 5.61686 17.8118 5.61686 17.737C5.61686 17.3869 5.61967 17.0368 5.63752 16.6867C5.6394 16.6604 5.64033 16.633 5.64221 16.6047C5.66099 16.286 5.71358 16.0087 5.923 15.773C6.29582 15.4431 6.81608 15.5109 7.26873 15.5109ZM8.08011 18.3228C8.05287 18.4544 8.05287 18.4544 8.05663 18.6011C8.05663 18.6284 8.05663 18.6557 8.05569 18.6841C8.05569 18.7772 8.05569 18.8703 8.05663 18.9623C8.05663 19.0301 8.05663 19.0969 8.05569 19.1637C8.05569 19.3479 8.05569 19.533 8.05663 19.7172C8.05663 19.9165 8.05663 20.1148 8.05569 20.3142C8.05475 20.7037 8.05569 21.0933 8.05663 21.4829C8.05663 21.7996 8.05663 22.1163 8.05663 22.433C8.05663 22.4775 8.05663 22.5221 8.05663 22.5686C8.05663 22.6607 8.05663 22.7517 8.05663 22.8428C8.05663 23.6523 8.05663 24.4608 8.05757 25.2703C8.05851 26.0555 8.05945 26.8407 8.05851 27.6269C8.05851 28.4809 8.05757 29.3359 8.05851 30.1909C8.05851 30.282 8.05851 30.3731 8.05851 30.4641C8.05851 30.5087 8.05851 30.5542 8.05851 30.5997C8.05945 30.9164 8.05851 31.2332 8.05851 31.5489C8.05851 31.9344 8.05851 32.3199 8.05945 32.7054C8.06039 32.9017 8.06039 33.098 8.05945 33.2953C8.05945 33.4754 8.05945 33.6545 8.06039 33.8346C8.06039 33.9004 8.06039 33.9652 8.06039 34.0309C8.06039 34.119 8.06039 34.207 8.06133 34.296C8.06133 34.3446 8.06133 34.3942 8.06133 34.4448C8.08292 34.5915 8.11579 34.6391 8.22661 34.7261C8.32333 34.7423 8.40597 34.7483 8.5027 34.7473C8.53087 34.7473 8.55811 34.7483 8.58628 34.7483C8.67831 34.7494 8.7694 34.7494 8.8605 34.7483C8.92342 34.7494 8.98727 34.7494 9.05113 34.7494C9.18355 34.7504 9.3169 34.7494 9.45025 34.7494C9.62023 34.7483 9.79114 34.7494 9.96112 34.7504C10.0926 34.7514 10.2231 34.7514 10.3546 34.7514C10.4175 34.7514 10.4804 34.7514 10.5434 34.7524C10.6307 34.7524 10.719 34.7524 10.8063 34.7514C10.8326 34.7514 10.8589 34.7524 10.8852 34.7524C11.0176 34.7504 11.0815 34.7322 11.1866 34.6431C11.2918 34.5015 11.2946 34.4316 11.2946 34.2515C11.2946 34.2111 11.2946 34.2111 11.2956 34.1686C11.2956 34.0765 11.2956 33.9834 11.2946 33.8913C11.2946 33.8245 11.2946 33.7577 11.2956 33.691C11.2965 33.5068 11.2956 33.3226 11.2956 33.1385C11.2946 32.9402 11.2956 32.7418 11.2956 32.5435C11.2965 32.155 11.2965 31.7664 11.2965 31.3778C11.2956 31.0621 11.2956 30.7464 11.2956 30.4307C11.2956 30.3862 11.2956 30.3407 11.2956 30.2952C11.2956 30.2041 11.2956 30.113 11.2965 30.0209C11.2965 29.1659 11.2956 28.3099 11.2946 27.4549C11.2946 26.7203 11.2946 25.9856 11.2956 25.251C11.2965 24.3991 11.2965 23.5461 11.2956 22.6941C11.2956 22.603 11.2956 22.5119 11.2956 22.4209C11.2956 22.3763 11.2956 22.3318 11.2956 22.2853C11.2956 21.9706 11.2956 21.6549 11.2965 21.3392C11.2965 20.9547 11.2965 20.5712 11.2956 20.1867C11.2956 19.9904 11.2946 19.7941 11.2956 19.5978C11.2965 19.4187 11.2956 19.2396 11.2946 19.0595C11.2946 18.9947 11.2946 18.93 11.2956 18.8642C11.2956 18.7761 11.2956 18.6881 11.2946 18.6001C11.2946 18.5515 11.2946 18.5019 11.2946 18.4513C11.2646 18.2864 11.2092 18.2277 11.088 18.1255C10.9875 18.1063 10.9105 18.0982 10.811 18.1002C10.7838 18.0992 10.7565 18.0992 10.7284 18.0992C10.6382 18.0982 10.5481 18.0982 10.4588 18.0992C10.3959 18.0992 10.333 18.0992 10.271 18.0992C10.1395 18.0982 10.0081 18.0992 9.87754 18.1002C9.70944 18.1012 9.54134 18.1002 9.37324 18.0992C9.24459 18.0982 9.11499 18.0982 8.9854 18.0992C8.92436 18.0992 8.86237 18.0992 8.80039 18.0982C8.714 18.0982 8.62666 18.0992 8.54026 18.1002C8.51491 18.0992 8.48955 18.0992 8.46326 18.0992C8.27168 18.1033 8.19749 18.165 8.08011 18.3228Z" fill="black"/>
<path d="M10.7763 7.4433C10.827 7.44734 10.827 7.44734 10.8777 7.45139C11.2637 7.48883 11.5933 7.61633 11.8581 7.92798C11.9408 8.05041 11.968 8.09392 11.968 8.24368C12.0385 8.25683 12.0385 8.25683 12.1108 8.26897C12.3916 8.33778 12.6254 8.47742 12.7935 8.73342C12.8611 8.85282 12.8977 8.95501 12.9221 9.09162C12.9344 9.13816 12.9466 9.18471 12.9588 9.23226C13.0611 9.28286 13.0611 9.28286 13.1785 9.31119C13.4311 9.48826 13.526 9.74022 13.6283 10.0377C13.7063 10.4424 13.6997 10.8603 13.6988 11.2732C13.6997 11.3663 13.6997 11.4604 13.7007 11.5535C13.7025 12.0766 13.6903 12.6028 13.3898 13.0389C13.2968 13.137 13.2546 13.1643 13.14 13.2149C13.0433 13.2615 13.0038 13.2858 12.9541 13.389C12.9325 13.4568 12.9109 13.5246 12.8893 13.5934C12.7841 13.8656 12.5803 14.0669 12.3333 14.1863C12.262 14.2126 12.262 14.2126 12.1286 14.2369C11.9596 14.3118 11.9258 14.4211 11.8403 14.589C11.6966 14.842 11.4543 14.9311 11.198 15.0029C10.7519 15.1091 10.2805 15.0899 9.82688 15.0889C9.72452 15.0899 9.62216 15.0899 9.52074 15.0909C8.03978 15.096 8.03978 15.096 7.58902 14.6417C7.52985 14.5678 7.52985 14.5678 7.46787 14.4251C7.38054 14.2349 7.1946 14.2025 7.02086 14.1378C6.76073 14.0386 6.60484 13.8706 6.46586 13.6197C6.44895 13.5661 6.43393 13.5114 6.41984 13.4568C6.37383 13.305 6.30809 13.2635 6.17943 13.1896C5.92024 13.0409 5.81788 12.8173 5.72021 12.5279C5.54836 11.6142 5.43003 10.2047 5.91367 9.38809C5.94935 9.33547 5.98692 9.28286 6.02542 9.23226C6.04139 9.21 6.05735 9.18673 6.07425 9.16346C6.14187 9.07138 6.21042 8.99448 6.29588 8.92061C6.38228 8.84573 6.44144 8.7749 6.51187 8.68384C6.67809 8.47539 6.86873 8.32564 7.11008 8.23457C7.24531 8.15969 7.28851 8.10202 7.37866 7.9725C7.58902 7.67097 7.85384 7.53639 8.19849 7.47972C9.04743 7.37247 9.92455 7.3755 10.7763 7.4433ZM8.92347 10.2208C8.85774 10.3109 8.85774 10.3109 8.81078 10.4151C8.71312 10.6043 8.62296 10.7106 8.44735 10.8189C8.27925 10.9241 8.17783 10.998 8.11679 11.2084C8.12336 11.3663 8.17032 11.4826 8.26329 11.6041C8.32151 11.6364 8.38068 11.6668 8.43984 11.6951C8.67273 11.8115 8.79106 11.9815 8.89812 12.2284C8.99766 12.368 9.13477 12.3953 9.29066 12.4338C9.43246 12.451 9.57239 12.452 9.71419 12.451C9.76866 12.452 9.76866 12.452 9.82501 12.454C10.0551 12.453 10.2382 12.4247 10.4279 12.2759C10.4974 12.195 10.4974 12.195 10.5397 12.1029C10.6674 11.8763 10.8214 11.7407 11.0261 11.599C11.1473 11.5079 11.1473 11.5079 11.198 11.3663C11.1876 11.2044 11.1689 11.0698 11.0881 10.9322C11.0148 10.8786 11.0148 10.8786 10.9294 10.8381C10.719 10.7187 10.6129 10.579 10.503 10.3514C10.4148 10.1986 10.3612 10.1682 10.2072 10.1014C10.087 10.0842 10.087 10.0842 9.96118 10.0863C9.91516 10.0863 9.86821 10.0863 9.82031 10.0853C9.77242 10.0863 9.72452 10.0863 9.67569 10.0873C9.60338 10.0863 9.60338 10.0863 9.53013 10.0853C9.48411 10.0863 9.4381 10.0863 9.3902 10.0863C9.34794 10.0863 9.30569 10.0863 9.26249 10.0863C9.1282 10.1035 9.03992 10.145 8.92347 10.2208Z" fill="black"/>
</svg>
