<svg width="63" height="50" viewBox="0 0 63 50" fill="none" xmlns="http://www.w3.org/2000/svg">
<g clip-path="url(#clip0_76_29)">
<path d="M5.35077 7.94462L25.5161 21.0545L25.5227 21.0602C27.7611 22.473 28.8803 23.1808 30.1084 23.4537C31.1932 23.6953 32.3316 23.6953 33.4165 23.4537C34.6446 23.1808 35.7671 22.473 38.0121 21.0545C38.0121 21.0545 50.9439 12.5098 58.1741 7.94462M2.04932 35.8018V14.1983C2.04932 11.0146 2.04932 9.42275 2.76903 8.20613C3.40291 7.13449 4.40986 6.2675 5.65451 5.72173C7.06753 5.10205 8.91635 5.10205 12.614 5.10205H50.9109C54.6085 5.10205 56.4573 5.10205 57.8671 5.72173C59.1117 6.2675 60.1219 7.13449 60.7558 8.20613C61.4755 9.41991 61.4755 11.0117 61.4755 14.1897V35.8131C61.4755 38.9911 61.4755 40.5773 60.7558 41.7939C60.1216 42.8638 59.1104 43.7334 57.8671 44.2783C56.4573 44.898 54.6118 44.898 50.9208 44.898H12.6041C8.91305 44.898 7.06423 44.898 5.65451 44.2783C4.41214 43.7332 3.40207 42.8636 2.76903 41.7939C2.04932 40.5773 2.04932 38.9854 2.04932 35.8018Z" stroke="black" stroke-width="4" stroke-linecap="round" stroke-linejoin="round"/>
</g>
<defs>
<clipPath id="clip0_76_29">
<rect width="62.5" height="50" fill="white"/>
</clipPath>
</defs>
</svg>
