<svg width="90" height="90" viewBox="0 0 90 90" fill="none" xmlns="http://www.w3.org/2000/svg">
<path d="M43.3603 3.04959C43.556 3.05266 43.7517 3.05559 43.9474 3.05838C48.057 3.11711 48.057 3.11711 49.395 3.25633C49.4847 3.26539 49.5745 3.27446 49.6669 3.28381C51.6762 3.50124 51.6762 3.50124 52.3775 4.21626C52.7636 4.56242 53.1374 4.62715 53.6401 4.69773C53.7237 4.71137 53.8072 4.725 53.8933 4.73905C54.1396 4.77883 54.3863 4.81566 54.6333 4.85154C54.8765 4.88781 55.1197 4.9244 55.3628 4.9614C55.4161 4.96946 55.4694 4.97751 55.5243 4.98581C56.4713 5.13521 57.2156 5.39224 57.7974 6.18748C57.7974 6.23388 57.7974 6.28029 57.7974 6.3281C58.1562 6.461 58.5106 6.559 58.8846 6.63654C59.775 6.82163 60.5395 7.04003 61.1724 7.73435C61.2398 7.84529 61.2398 7.84529 61.3086 7.95847C61.6017 8.35818 62.1008 8.49144 62.5566 8.64402C62.979 8.79436 63.2895 8.97647 63.5146 9.37379C63.7036 9.78256 63.7036 9.78256 63.7036 9.98435C63.7478 9.99632 63.7921 10.0083 63.8376 10.0206C64.5203 10.2139 65.0637 10.4182 65.4614 11.039C65.554 11.2696 65.6201 11.4994 65.6724 11.7422C65.7275 11.7451 65.7826 11.748 65.8393 11.751C66.4148 11.8899 66.8266 12.1943 67.1346 12.6961C67.2216 12.872 67.276 13.0445 67.3335 13.2319C67.4201 13.4702 67.4724 13.5528 67.6905 13.6887C67.8397 13.7564 67.9893 13.8232 68.1393 13.8889C68.5277 14.0847 68.6968 14.3693 68.846 14.7684C68.8935 14.9134 68.9384 15.0593 68.9801 15.2062C69.0476 15.3992 69.1331 15.5203 69.2583 15.6797C69.2583 15.7261 69.2583 15.7725 69.2583 15.8203C69.3163 15.8333 69.3743 15.8464 69.4341 15.8598C69.9477 16.0708 70.2333 16.3788 70.4624 16.8838C70.5858 17.1914 70.6816 17.4935 70.762 17.8149C70.7788 17.8803 70.7956 17.9457 70.813 18.0131C70.8451 18.1421 70.875 18.2717 70.9023 18.4018C70.9921 18.7673 71.0853 18.9466 71.4045 19.1568C71.4589 19.1874 71.5133 19.218 71.5694 19.2495C72.0278 19.5139 72.1902 19.9861 72.352 20.4609C72.4249 20.7431 72.4819 21.0273 72.5366 21.3135C72.6792 22.3807 72.6792 22.3807 73.2573 23.2251C73.5165 23.4473 73.697 23.6597 73.8286 23.9765C73.8641 24.0619 73.8641 24.0619 73.9003 24.149C74.2534 25.1382 74.2904 26.2346 74.3709 27.2737C74.4457 28.8761 74.4457 28.8761 75.1129 30.2797C75.6525 31.0126 75.7998 32.1888 75.9687 33.0732C76.0585 33.5417 76.1806 33.9966 76.3159 34.4539C76.3877 34.7004 76.4302 34.8972 76.4302 35.1562C76.4896 35.1722 76.5491 35.1881 76.6103 35.2046C77.2005 35.4299 77.4163 35.7102 77.6768 36.2733C77.7763 36.5172 77.8528 36.7609 77.9238 37.0143C78.0938 37.5918 78.2607 38.028 78.7417 38.4024C79.2137 38.8094 79.5173 39.3385 79.6645 39.9375C79.8602 40.8027 79.8602 40.8027 80.4687 41.4053C80.8301 41.6294 80.9689 41.8771 81.1411 42.2578C81.1706 42.3149 81.2 42.372 81.2304 42.4308C81.4462 42.8651 81.5733 43.3 81.6795 43.7708C81.756 44.1206 81.756 44.1206 81.9145 44.4375C82.0331 44.5026 82.1516 44.5675 82.2705 44.6319C82.8195 44.9817 83.0396 45.512 83.1802 46.125C83.5044 47.7334 83.6113 50.0013 82.7407 51.4443C82.5251 51.7335 82.266 51.9487 81.9849 52.1719C81.9237 52.2248 81.8625 52.2777 81.7995 52.3323C81.4854 52.601 81.1868 52.8273 80.8159 53.0112C80.5168 53.1631 80.3327 53.3257 80.1172 53.5825C79.6205 54.1668 79.0414 54.3068 78.3162 54.4908C77.6997 54.6552 77.1516 54.8108 76.7304 55.3109C76.7009 55.3424 76.6714 55.3738 76.6411 55.4062C76.5947 55.4062 76.5483 55.4062 76.5005 55.4062C76.4845 55.4599 76.4686 55.5135 76.4521 55.5688C76.3598 55.8281 76.3598 55.8281 76.2756 55.9748C75.9227 56.6154 75.9581 57.2504 75.961 57.9608C75.9603 58.0932 75.9594 58.2255 75.9583 58.3578C75.9559 58.7053 75.9555 59.0527 75.9557 59.4002C75.9555 59.8177 75.9531 60.2352 75.9509 60.6528C75.9491 60.9787 75.9477 61.3047 75.9476 61.6307C75.9459 62.7956 75.9293 63.9703 75.7798 65.1269C75.773 65.1912 75.7662 65.2555 75.7592 65.3217C75.6821 65.9305 75.4483 66.4858 75.0239 66.9375C74.977 66.9675 74.93 66.9974 74.8817 67.0283C74.7013 67.1842 74.6817 67.2966 74.6322 67.528C74.6155 67.6033 74.5987 67.6786 74.5814 67.7562C74.565 67.8341 74.5486 67.9119 74.5317 67.9922C74.4984 68.1396 74.4649 68.287 74.4312 68.4344C74.3802 68.6576 74.3294 68.8808 74.2804 69.1045C74.1231 69.7843 73.9385 70.3831 73.3408 70.7868C73.1958 70.875 73.1958 70.875 73.0109 70.967C72.7969 71.1197 72.7733 71.2298 72.708 71.4814C72.5204 72.0997 72.2789 72.5195 71.7069 72.8355C71.5256 72.9465 71.4194 73.0939 71.2973 73.2656C71.2631 73.2991 71.2288 73.3325 71.1935 73.367C71.0679 73.4876 71.0679 73.4876 70.9414 73.7095C70.5599 74.2493 69.8708 74.4911 69.2583 74.6719C69.2119 74.6719 69.1655 74.6719 69.1177 74.6719C69.1133 74.7415 69.1133 74.7415 69.1089 74.8125C69.0036 75.1736 68.8001 75.4643 68.4892 75.6809C67.8859 75.9961 67.2298 76.1079 66.5675 76.2365C65.9366 76.3608 65.4582 76.4772 64.9739 76.9305C64.0793 77.7434 62.4768 77.658 61.3468 77.6448C61.1585 77.6426 60.9702 77.6419 60.7819 77.6415C60.0194 77.638 59.2611 77.6081 58.5005 77.5547C58.1712 78.1161 58.1808 78.6563 58.1851 79.2876C58.1863 79.4737 58.1857 79.6597 58.1848 79.8457C58.1827 80.3076 58.1836 80.7694 58.1844 81.2313C58.185 81.6224 58.1844 82.0134 58.1824 82.4045C58.1819 82.5867 58.183 82.7688 58.1843 82.951C58.1841 84.2001 58.1841 84.2001 57.7758 84.6979C57.3312 85.1122 56.7959 85.1797 56.2196 85.1752C56.1222 85.1757 56.1222 85.1757 56.0228 85.1762C55.8054 85.177 55.5879 85.1763 55.3705 85.1757C55.2129 85.176 55.0554 85.1764 54.8979 85.1768C54.4651 85.1778 54.0323 85.1775 53.5995 85.177C53.1806 85.1767 52.7618 85.1774 52.3429 85.1781C51.4334 85.1795 50.5238 85.1796 49.6143 85.1793C48.8183 85.1789 48.0223 85.179 47.2263 85.1794C47.1196 85.1794 47.0128 85.1795 46.906 85.1795C46.7451 85.1796 46.5842 85.1797 46.4233 85.1798C44.9275 85.1805 43.4317 85.1809 41.9358 85.1803C41.8513 85.1803 41.8513 85.1803 41.765 85.1803C41.3071 85.1801 40.8492 85.1799 40.3913 85.1797C38.605 85.179 36.8188 85.1796 35.0326 85.1812C33.0257 85.1831 31.0188 85.184 29.0119 85.1835C28.7979 85.1834 28.5839 85.1834 28.37 85.1833C28.3173 85.1833 28.2646 85.1833 28.2103 85.1833C27.4149 85.1831 26.6195 85.1837 25.824 85.1846C24.9195 85.1857 24.015 85.1857 23.1105 85.1845C22.6488 85.1838 22.1872 85.1837 21.7256 85.1848C21.3032 85.1858 20.8807 85.1854 20.4582 85.1841C20.3053 85.1838 20.1524 85.184 19.9995 85.1847C19.7917 85.1857 19.584 85.1849 19.3762 85.1836C19.3167 85.1843 19.2573 85.185 19.1961 85.1857C18.6815 85.1794 18.2665 85.0289 17.8686 84.7002C17.5292 84.2809 17.4295 83.9064 17.4283 83.379C17.4279 83.2899 17.4275 83.2008 17.4271 83.109C17.427 83.0103 17.427 82.9116 17.4269 82.813C17.4266 82.7088 17.4262 82.6047 17.4258 82.5006C17.425 82.2759 17.4244 82.0512 17.424 81.8265C17.4232 81.468 17.4218 81.1095 17.4202 80.751C17.4159 79.7313 17.4121 78.7116 17.4098 77.6918C17.408 76.9478 17.4053 76.2038 17.4012 75.4599C17.4008 75.3997 17.4005 75.3395 17.4002 75.2775C17.3897 73.4749 17.3428 71.6851 17.1567 69.8906C17.1474 69.7826 17.1474 69.7826 17.138 69.6725C17.1324 69.609 17.1269 69.5455 17.1213 69.4801C17.1169 69.4273 17.1125 69.3744 17.108 69.3199C17.0757 69.1217 16.9876 69.0035 16.8579 68.8535C16.0346 67.7709 15.9217 66.1521 15.7711 64.8391C15.7004 64.2307 15.6103 63.6382 15.4445 63.0475C15.4248 62.9742 15.4248 62.9742 15.4047 62.8994C15.2789 62.4808 15.0471 62.2539 14.7266 61.9719C14.2828 61.5388 14.1198 60.9546 13.9844 60.3666C13.7094 59.1412 13.7094 59.1412 12.891 58.2564C12.5913 58.0591 12.4269 57.7977 12.3008 57.4673C12.2775 57.4063 12.2542 57.3453 12.2302 57.2824C12.167 57.1007 12.1118 56.9184 12.0591 56.7334C11.8931 56.1731 11.7369 55.8548 11.2518 55.5191C10.5803 54.9853 10.3321 54.0007 10.1558 53.1989C10.0422 52.6905 10.0422 52.6905 9.73079 52.2894C9.69137 52.268 9.65194 52.2466 9.61132 52.2246C8.93674 51.7749 8.73831 50.8579 8.58373 50.1108C8.50757 49.725 8.43756 49.3381 8.36747 48.9512C8.33715 48.7848 8.30615 48.6186 8.2751 48.4524C8.26631 48.4025 8.25751 48.3525 8.24845 48.301C8.16967 47.8803 8.0572 47.4706 7.74364 47.1621C6.2461 45.4681 6.66872 41.8178 6.67083 39.7334C6.67078 39.5632 6.67071 39.3931 6.67062 39.2229C6.67052 38.8687 6.67067 38.5145 6.671 38.1602C6.6714 37.7135 6.67116 37.2668 6.67076 36.8201C6.66831 33.6551 6.66831 33.6551 6.7101 32.2622C6.71264 32.1754 6.71518 32.0887 6.7178 31.9993C6.84995 28.2441 6.84996 28.2441 7.80956 27.1582C8.39128 26.465 8.37685 25.2917 8.48908 24.4153C8.77734 22.1824 8.77734 22.1824 9.49678 21.6117C9.59102 21.5457 9.6872 21.4822 9.78572 21.4228C10.1285 21.1085 10.1775 20.6024 10.2573 20.1665C10.4079 19.4077 10.613 18.6319 11.1802 18.0703C11.304 17.9959 11.304 17.9959 11.4307 17.9341C11.761 17.7653 11.8865 17.4902 12.0239 17.1562C12.0711 17.003 12.1165 16.8491 12.1601 16.6948C12.2797 16.2909 12.4051 15.9621 12.727 15.6797C12.8559 15.6137 12.9865 15.5509 13.1182 15.4907C13.4636 15.3198 13.5689 15.176 13.6982 14.8139C13.7233 14.7345 13.7484 14.6551 13.7743 14.5733C13.9402 14.0834 14.217 13.7385 14.6255 13.4297C14.7536 13.2906 14.8762 13.1474 14.999 13.0037C15.1477 12.8326 15.309 12.6759 15.4692 12.5156C15.5517 12.4207 15.6337 12.3255 15.7153 12.23C15.8528 12.0705 15.9749 11.9426 16.1416 11.8125C16.3044 11.6789 16.3987 11.5608 16.5195 11.3906C16.7026 11.1367 16.8888 10.9934 17.1567 10.8281C17.2372 10.7454 17.2372 10.7454 17.3193 10.6611C17.6425 10.3454 18.0084 10.1057 18.4267 9.93601C18.7664 9.77695 18.9242 9.4854 19.1318 9.18455C19.4915 8.69019 19.9205 8.58356 20.5034 8.4438C20.8728 8.32547 21.1552 8.16362 21.3359 7.81346C21.7364 7.13678 22.3658 6.89418 23.1039 6.70294C23.3672 6.63851 23.6308 6.57634 23.8955 6.51787C23.9566 6.50429 24.0177 6.49069 24.0806 6.47669C24.1624 6.45906 24.1624 6.45906 24.2459 6.44107C24.5182 6.36515 24.6495 6.30431 24.8076 6.06443C25.199 5.48296 25.7208 5.23276 26.3927 5.07868C26.8277 4.99438 27.2648 4.92455 27.7022 4.85374C27.8125 4.83572 27.8125 4.83572 27.9251 4.81735C28.0694 4.7939 28.2138 4.7709 28.3583 4.74841C29.3471 4.598 29.3471 4.598 30.1593 4.06217C31.1672 3.20044 32.9314 3.22825 34.1899 3.15965C34.2408 3.15678 34.2916 3.15392 34.344 3.15096C37.3431 2.98618 40.358 3.00251 43.3603 3.04959ZM37.5531 20.35C37.4574 20.3537 37.4574 20.3537 37.3597 20.3575C36.3576 20.4053 35.6303 20.5243 34.9213 21.2607C34.5344 21.6437 34.0849 21.7848 33.5703 21.9287C33.0963 22.0679 32.6805 22.278 32.3986 22.6991C32.3763 22.7407 32.354 22.7823 32.331 22.8252C32.1555 23.152 31.9416 23.3341 31.6059 23.5019C31.1472 23.8231 30.9805 24.3075 30.8325 24.8247C30.6823 25.3463 30.4954 25.7079 30.0929 26.0747C29.4119 26.7329 29.3827 27.6486 29.3581 28.5463C29.3231 30.1295 29.3231 30.1295 30.0547 31.4648C30.1232 31.5317 30.1919 31.5984 30.2609 31.6648C30.6375 32.0452 30.7835 32.4666 30.894 32.9809C31.0075 33.4721 31.2333 33.847 31.6535 34.1367C31.7603 34.2017 31.8673 34.2666 31.9743 34.3314C32.225 34.5233 32.3784 34.7738 32.5469 35.0379C32.8817 35.4621 33.2678 35.6275 33.7812 35.7539C34.4192 35.9266 34.8377 36.1483 35.2973 36.6328C36.0354 37.2976 37.1909 37.2415 38.1284 37.2755C38.7261 37.3028 39.3011 37.3538 39.7578 37.7754C40.0742 38.3322 40.1088 38.7923 40.1047 39.4232C40.105 39.5124 40.1053 39.6015 40.1056 39.6934C40.1063 39.9398 40.1057 40.1862 40.1049 40.4326C40.1043 40.6988 40.1049 40.9651 40.1053 41.2313C40.106 41.6924 40.1059 42.1536 40.1053 42.6148C40.1045 43.2829 40.1052 43.951 40.1062 44.6192C40.1079 45.7051 40.1088 46.791 40.1091 47.8769C40.1091 47.9418 40.1091 48.0068 40.1092 48.0737C40.1093 48.7975 40.1094 49.5214 40.1093 50.2452C40.1093 50.5073 40.1093 50.7694 40.1092 51.0314C40.1092 51.0961 40.1092 51.1608 40.1092 51.2274C40.1092 52.3085 40.1102 53.3895 40.1121 54.4706C40.1132 55.1364 40.1134 55.8021 40.1123 56.4678C40.1116 56.9249 40.112 57.3819 40.1131 57.8389C40.1137 58.102 40.1139 58.365 40.1128 58.628C40.1053 60.2018 40.1053 60.2018 40.4302 61.7344C40.5576 61.8618 40.7312 61.814 40.9007 61.8143C40.9542 61.814 41.0078 61.8137 41.063 61.8135C41.1144 61.8137 41.1658 61.814 41.2187 61.8143C41.5934 61.8136 41.9568 61.7808 42.3286 61.7344C42.6252 60.8041 42.7229 59.9371 42.7124 58.9595C42.7139 58.4075 42.7697 57.971 43.102 57.5156C43.6221 57.0613 44.3006 57.0739 44.9488 57.0745C45.1206 57.0731 45.2923 57.0716 45.4641 57.0701C45.732 57.0685 46 57.0674 46.2679 57.067C47.3422 57.0642 48.3165 57.0078 49.3599 56.7422C49.3599 56.1389 49.3599 55.5356 49.3599 54.914C48.5579 54.6467 47.8844 54.5425 47.0439 54.5433C46.8705 54.5418 46.6971 54.5404 46.5237 54.5389C46.2539 54.5373 45.9841 54.5361 45.7142 54.5357C45.4514 54.535 45.1886 54.5327 44.9258 54.5301C44.8461 54.5304 44.7663 54.5308 44.6842 54.5311C44.1415 54.5245 43.5614 54.4666 43.1221 54.1141C42.6773 53.6194 42.7243 53.0007 42.7244 52.3788C42.7241 52.2213 42.7216 52.0641 42.7189 51.9067C42.7139 51.2778 42.7367 50.7255 43.1899 50.2471C43.7377 49.9234 44.2002 49.8924 44.825 49.8958C44.9978 49.8945 45.1706 49.8933 45.3434 49.8921C45.613 49.8914 45.8827 49.8911 46.1523 49.8912C47.5767 49.9297 47.5767 49.9297 48.938 49.5703C49.0915 49.34 49.1031 49.2397 49.1231 48.9696C49.129 48.8942 49.1349 48.8187 49.1409 48.741C49.1465 48.6622 49.152 48.5835 49.1577 48.5024C49.1668 48.3831 49.1668 48.3831 49.1761 48.2614C49.191 48.0649 49.2054 47.8684 49.2192 47.6719C48.0466 47.3199 46.9441 47.2754 45.7256 47.2851C45.3781 47.2879 45.0307 47.2883 44.6832 47.2873C44.5664 47.2894 44.5664 47.2894 44.4473 47.2915C43.9302 47.2898 43.5181 47.2206 43.102 46.8984C42.776 46.4422 42.6987 45.9963 42.7019 45.4478C42.7004 45.3412 42.7004 45.3412 42.699 45.2324C42.6962 44.9995 42.696 44.7667 42.6958 44.5339C42.6945 44.3709 42.6931 44.2079 42.6916 44.0449C42.6887 43.7042 42.687 43.3635 42.6862 43.0227C42.6851 42.5871 42.6819 42.1515 42.6779 41.7158C42.6749 41.3795 42.6728 41.0433 42.6709 40.707C42.6699 40.5464 42.6688 40.3858 42.6676 40.2252C42.666 40.0004 42.6654 39.7757 42.6651 39.5509C42.6645 39.4852 42.6639 39.4196 42.6632 39.3519C42.6643 38.747 42.7336 38.1819 43.102 37.6875C43.6447 37.2587 44.4245 37.268 45.084 37.2456C46.1924 37.2062 47.033 37.1421 47.8297 36.3255C48.2174 35.9564 48.6774 35.8144 49.1885 35.6924C49.6148 35.583 49.9539 35.389 50.2739 35.0859C50.3564 34.9463 50.4158 34.8081 50.4766 34.658C50.6078 34.4333 50.8166 34.33 51.0347 34.1974C51.451 33.937 51.7555 33.5479 51.8949 33.0784C51.9235 32.9475 51.9235 32.9475 51.9526 32.8139C52.087 32.2609 52.3018 31.8836 52.6843 31.4651C52.7401 31.4026 52.796 31.3402 52.8535 31.2759C52.906 31.2212 52.9585 31.1666 53.0125 31.1102C53.4572 30.4899 53.4043 29.5275 53.3984 28.8017C53.3981 28.7541 53.3978 28.7066 53.3975 28.6575C53.3879 27.5831 53.3539 26.7716 52.5525 25.9807C52.1915 25.6051 52.0432 25.1808 51.935 24.6797C51.8156 24.1662 51.593 23.7361 51.1501 23.4322C51.0285 23.363 50.9061 23.2951 50.7829 23.2289C50.5151 23.0654 50.4071 22.8556 50.2833 22.5706C50.0273 22.1179 49.4733 21.9642 49.0039 21.8276C48.5017 21.6809 48.1036 21.5331 47.7358 21.1517C47.0381 20.44 46.1941 20.3837 45.2427 20.3494C45.1684 20.3466 45.0942 20.3438 45.0176 20.3409C43.9301 20.305 42.8418 20.3097 41.7538 20.3111C41.4382 20.3115 41.1225 20.3113 40.8068 20.3109C39.1796 20.3081 39.1796 20.3081 37.5531 20.35Z" fill="black"/>
<path d="M38.909 22.8304C39.0529 22.8303 39.1969 22.83 39.3409 22.8298C39.7926 22.829 40.2444 22.829 40.6962 22.8294C41.1571 22.8298 41.6179 22.8289 42.0788 22.8274C42.479 22.8262 42.8791 22.8258 43.2793 22.826C43.5163 22.8261 43.7533 22.8259 43.9903 22.825C44.899 22.8219 45.7983 22.8343 46.7016 22.9411C46.7682 22.9487 46.8349 22.9562 46.9036 22.9641C47.5593 23.0522 48.213 23.2472 48.6558 23.7656C48.7159 23.8679 48.7729 23.9721 48.8272 24.0777C49.0706 24.5502 49.45 24.8193 49.895 25.0928C50.4116 25.433 50.6187 25.8457 50.752 26.4419C50.8548 26.9859 50.9167 27.519 50.92 28.0717C50.9204 28.1257 50.9208 28.1796 50.9213 28.2352C50.9219 28.349 50.9224 28.4628 50.9227 28.5766C50.9233 28.7462 50.9255 28.9157 50.9277 29.0852C50.9317 29.6568 50.9048 30.2107 50.8124 30.7755C50.8042 30.8259 50.796 30.8764 50.7875 30.9283C50.675 31.5492 50.4704 32.0574 49.9917 32.4844C49.8345 32.5826 49.6743 32.6672 49.5094 32.7516C49.1718 32.9408 48.9616 33.1838 48.8052 33.5347C48.6316 33.9076 48.348 34.2116 47.9605 34.3651C46.6923 34.7955 45.3466 34.7665 44.0228 34.7627C43.7733 34.7622 43.5237 34.7627 43.2741 34.763C42.8555 34.7634 42.4369 34.7629 42.0183 34.7619C41.5386 34.7607 41.059 34.7611 40.5793 34.7623C40.1629 34.7632 39.7464 34.7634 39.3299 34.7628C39.0832 34.7625 38.8365 34.7624 38.5898 34.7631C35.4879 34.7709 35.4879 34.7708 34.3999 34.1279C34.2466 33.9661 34.1543 33.8194 34.0439 33.627C33.7876 33.1813 33.4701 32.7936 33.0068 32.5547C32.6043 32.3205 32.307 31.9986 32.1455 31.5571C31.9206 30.6989 31.8972 29.8576 31.8992 28.9758C31.8994 28.7721 31.8978 28.5686 31.896 28.3649C31.8882 26.0668 31.8882 26.0668 32.5418 25.3908C32.748 25.2035 32.9582 25.043 33.1914 24.8906C33.5717 24.6317 33.8538 24.352 34.0571 23.937C34.2827 23.5084 34.6112 23.2985 35.061 23.1356C36.3123 22.7888 37.6235 22.8297 38.909 22.8304Z" fill="black"/>
</svg>
